<?xml version="1.0" standalone="yes"?>
<svg xmlns="http://www.w3.org/2000/svg" width="1980" height="2150">
<path style="fill:#ffffff; stroke:none;" d="M0 0L0 1102L1 1102C1 981.928 114.475 908.834 187.91 830C253.845 759.218 324.586 692.414 393 624L778 239L956 61C970.175 46.8247 984.818 33.1821 999 19C1007.22 10.781 1014.59 1.56836 1027 1L1000 0L940 0L729 0L0 0z"/>
<path style="fill:#422790; stroke:none;" d="M1027 0L1028 1L1027 0z"/>
<path style="fill:#7c59fd; stroke:none;" d="M1028 0.594971C1014.54 1.14185 1006.94 10.0605 998 19L957 60L779 238L263 754L117 900C81.574 935.426 44.4097 968.22 22.2585 1014C-13.8981 1088.73 -4.79713 1181.19 42.0255 1249C67.5496 1285.97 104.357 1316.36 136 1348C157.184 1369.18 178.36 1390.35 200 1411.04C209.781 1420.39 218.219 1432.67 233 1432.98C246.865 1433.28 254.87 1424.13 264 1415L307 1372L496 1183C699.181 979.819 902.816 777.184 1106 574L1277 403L1324 356C1332.07 347.935 1342.54 340.082 1346.45 329C1352.14 312.885 1341.64 300.642 1331 290L1287 246L1101 60L1059 18C1050.13 9.13477 1041.52 0.0454102 1028 0.594971z"/>
<path style="fill:#2e1c75; stroke:none;" d="M1030 0L1031 1L1030 0z"/>
<path style="fill:#ffffff; stroke:none;" d="M1031 0L1031 1C1049.84 1.86255 1065.67 25.6716 1078 38L1186 146L1307 267C1320.58 280.579 1346.95 298.118 1347.9 319C1348.72 337.252 1327.48 351.522 1316 363L1218 461L955 724L870 809C855.955 823.045 838.435 836.766 827 853C851.57 851.945 876.668 845.856 901 842.272C948.011 835.346 994.989 828.197 1042 821.272C1193.36 798.973 1344.57 775.55 1496 753.729C1552.68 745.562 1609.46 737.492 1666 728.411C1684.96 725.366 1703.99 722.52 1723 719.87C1731.98 718.618 1741.95 715.761 1751 717.468C1763.19 719.768 1771.7 730.697 1780 739L1830 789C1866.74 825.74 1909.35 861.07 1938.97 904C1965.25 942.07 1979 987.92 1979 1034L1980 1034L1980 0L1031 0z"/>
<path style="fill:#422790; stroke:none;" d="M1039 2L1040 3L1039 2M1046 6L1047 7L1046 6z"/>
<path style="fill:#2e1c75; stroke:none;" d="M972 44L973 45L972 44M971 45L972 46L971 45M970 46L971 47L970 46M969 47L970 48L969 47M968 48L969 49L968 48M967 49L968 50L967 49M966 50L967 51L966 50M965 51L966 52L965 51M964 52L965 53L964 52M963 53L964 54L963 53M962 54L963 55L962 54M961 55L962 56L961 55M960 56L961 57L960 56M959 57L960 58L959 57M958 58L959 59L958 58M957 59L958 60L957 59M956 60L957 61L956 60M955 61L956 62L955 61M954 62L955 63L954 62M953 63L954 64L953 63M952 64L953 65L952 64M951 65L952 66L951 65M950 66L951 67L950 66M949 67L950 68L949 67M948 68L949 69L948 68M947 69L948 70L947 69M946 70L947 71L946 70M945 71L946 72L945 71M944 72L945 73L944 72M943 73L944 74L943 73M942 74L943 75L942 74M941 75L942 76L941 75M940 76L941 77L940 76M939 77L940 78L939 77M938 78L939 79L938 78M937 79L938 80L937 79M936 80L937 81L936 80M935 81L936 82L935 81M934 82L935 83L934 82M933 83L934 84L933 83M932 84L933 85L932 84M931 85L932 86L931 85M930 86L931 87L930 86M929 87L930 88L929 87M928 88L929 89L928 88M927 89L928 90L927 89M926 90L927 91L926 90M925 91L926 92L925 91M924 92L925 93L924 92M923 93L924 94L923 93M922 94L923 95L922 94M921 95L922 96L921 95M920 96L921 97L920 96M919 97L920 98L919 97M918 98L919 99L918 98M917 99L918 100L917 99M916 100L917 101L916 100M915 101L916 102L915 101M914 102L915 103L914 102M913 103L914 104L913 103M912 104L913 105L912 104M911 105L912 106L911 105M910 106L911 107L910 106M909 107L910 108L909 107M908 108L909 109L908 108M907 109L908 110L907 109M906 110L907 111L906 110M905 111L906 112L905 111M904 112L905 113L904 112M903 113L904 114L903 113M902 114L903 115L902 114M901 115L902 116L901 115M900 116L901 117L900 116M899 117L900 118L899 117M898 118L899 119L898 118M897 119L898 120L897 119M896 120L897 121L896 120M895 121L896 122L895 121M894 122L895 123L894 122M893 123L894 124L893 123M892 124L893 125L892 124M891 125L892 126L891 125M890 126L891 127L890 126M889 127L890 128L889 127M888 128L889 129L888 128M887 129L888 130L887 129M886 130L887 131L886 130M885 131L886 132L885 131M884 132L885 133L884 132M883 133L884 134L883 133M882 134L883 135L882 134z"/>
<path style="fill:#ffffff; stroke:none;" d="M1016 134L911 239L880 270C875.227 274.773 868.078 279.9 865.028 286C861.115 293.825 865.022 309.507 865.83 318C867.937 340.133 868.988 362.788 869.961 385C872.56 444.355 876.852 503.732 880.911 563C883.063 594.426 881.251 628.036 887 659L924 623L994 553L1025 522L1038.93 507L1038.04 482L1034.04 417L1022.09 223L1018.17 159L1016 134z"/>
<path style="fill:#2e1c75; stroke:none;" d="M881 135L882 136L881 135M880 136L881 137L880 136M879 137L880 138L879 137M878 138L879 139L878 138M877 139L878 140L877 139M876 140L877 141L876 140M875 141L876 142L875 141M874 142L875 143L874 142M873 143L874 144L873 143M872 144L873 145L872 144M871 145L872 146L871 145M870 146L871 147L870 146M869 147L870 148L869 147M868 148L869 149L868 148M867 149L868 150L867 149M866 150L867 151L866 150M865 151L866 152L865 151M864 152L865 153L864 152M863 153L864 154L863 153M862 154L863 155L862 154M861 155L862 156L861 155M860 156L861 157L860 156M859 157L860 158L859 157M858 158L859 159L858 158M857 159L858 160L857 159M856 160L857 161L856 160M855 161L856 162L855 161M1018 161L1019 162L1018 161M854 162L855 163L854 162M853 163L854 164L853 163M852 164L853 165L852 164M851 165L852 166L851 165M850 166L851 167L850 166M849 167L850 168L849 167M848 168L849 169L848 168M847 169L848 170L847 169M846 170L847 171L846 170M845 171L846 172L845 171M844 172L845 173L844 172M843 173L844 174L843 173M842 174L843 175L842 174M841 175L842 176L841 175M840 176L841 177L840 176M839 177L840 178L839 177z"/>
<path style="fill:#422790; stroke:none;" d="M1019 177L1020 178L1019 177z"/>
<path style="fill:#2e1c75; stroke:none;" d="M838 178L839 179L838 178M837 179L838 180L837 179M836 180L837 181L836 180M835 181L836 182L835 181M834 182L835 183L834 182M833 183L834 184L833 183M832 184L833 185L832 184M831 185L832 186L831 185M830 186L831 187L830 186M829 187L830 188L829 187M828 188L829 189L828 188M827 189L828 190L827 189M826 190L827 191L826 190M825 191L826 192L825 191M824 192L825 193L824 192M823 193L824 194L823 193M822 194L823 195L822 194M821 195L822 196L821 195M820 196L821 197L820 196M819 197L820 198L819 197M818 198L819 199L818 198M817 199L818 200L817 199M816 200L817 201L816 200M815 201L816 202L815 201M814 202L815 203L814 202M813 203L814 204L813 203M812 204L813 205L812 204M811 205L812 206L811 205M810 206L811 207L810 206M809 207L810 208L809 207M808 208L809 209L808 208M807 209L808 210L807 209M806 210L807 211L806 210M805 211L806 212L805 211M804 212L805 213L804 212M803 213L804 214L803 213M802 214L803 215L802 214M801 215L802 216L801 215M800 216L801 217L800 216M799 217L800 218L799 217M798 218L799 219L798 218M797 219L798 220L797 219M796 220L797 221L796 220M795 221L796 222L795 221M794 222L795 223L794 222M793 223L794 224L793 223M792 224L793 225L792 224M791 225L792 226L791 225M790 226L791 227L790 226M1022 226L1023 227L1022 226M789 227L790 228L789 227M788 228L789 229L788 228M787 229L788 230L787 229M786 230L787 231L786 230M785 231L786 232L785 231M784 232L785 233L784 232M783 233L784 234L783 233M782 234L783 235L782 234M781 235L782 236L781 235M780 236L781 237L780 236M779 237L780 238L779 237M778 238L779 239L778 238M777 239L778 240L777 239M776 240L777 241L776 240M775 241L776 242L775 241M774 242L775 243L774 242z"/>
<path style="fill:#422790; stroke:none;" d="M1023 242L1024 243L1023 242z"/>
<path style="fill:#2e1c75; stroke:none;" d="M773 243L774 244L773 243M772 244L773 245L772 244M771 245L772 246L771 245M770 246L771 247L770 246M769 247L770 248L769 247M768 248L769 249L768 248M767 249L768 250L767 249M766 250L767 251L766 250M765 251L766 252L765 251M764 252L765 253L764 252M763 253L764 254L763 253M762 254L763 255L762 254M761 255L762 256L761 255M760 256L761 257L760 256M759 257L760 258L759 257M758 258L759 259L758 258M757 259L758 260L757 259M756 260L757 261L756 260M755 261L756 262L755 261M754 262L755 263L754 262M753 263L754 264L753 263M752 264L753 265L752 264M751 265L752 266L751 265M750 266L751 267L750 266M749 267L750 268L749 267M748 268L749 269L748 268M747 269L748 270L747 269M746 270L747 271L746 270M745 271L746 272L745 271M744 272L745 273L744 272M743 273L744 274L743 273M742 274L743 275L742 274M741 275L742 276L741 275M740 276L741 277L740 276M739 277L740 278L739 277M738 278L739 279L738 278M737 279L738 280L737 279M736 280L737 281L736 280M735 281L736 282L735 281M734 282L735 283L734 282M733 283L734 284L733 283M732 284L733 285L732 284M731 285L732 286L731 285M730 286L731 287L730 286M729 287L730 288L729 287M728 288L729 289L728 288M727 289L728 290L727 289M726 290L727 291L726 290M725 291L726 292L725 291M1026 291L1027 292L1026 291M724 292L725 293L724 292M723 293L724 294L723 293M722 294L723 295L722 294M721 295L722 296L721 295M720 296L721 297L720 296M719 297L720 298L719 297M718 298L719 299L718 298M717 299L718 300L717 299M716 300L717 301L716 300M715 301L716 302L715 301M714 302L715 303L714 302M713 303L714 304L713 303M712 304L713 305L712 304M711 305L712 306L711 305M710 306L711 307L710 306M709 307L710 308L709 307z"/>
<path style="fill:#422790; stroke:none;" d="M1027 307L1028 308L1027 307z"/>
<path style="fill:#2e1c75; stroke:none;" d="M708 308L709 309L708 308M707 309L708 310L707 309M706 310L707 311L706 310M1346 310L1347 311L1346 310M705 311L706 312L705 311M704 312L705 313L704 312M703 313L704 314L703 313M702 314L703 315L702 314M701 315L702 316L701 315M700 316L701 317L700 316M699 317L700 318L699 317M698 318L699 319L698 318M697 319L698 320L697 319M696 320L697 321L696 320M695 321L696 322L695 321M694 322L695 323L694 322M693 323L694 324L693 323M692 324L693 325L692 324M691 325L692 326L691 325M690 326L691 327L690 326M689 327L690 328L689 327M688 328L689 329L688 328M687 329L688 330L687 329M686 330L687 331L686 330M685 331L686 332L685 331z"/>
<path style="fill:#422790; stroke:none;" d="M866 331L867 332L866 331z"/>
<path style="fill:#2e1c75; stroke:none;" d="M684 332L685 333L684 332M683 333L684 334L683 333M682 334L683 335L682 334M681 335L682 336L681 335M680 336L681 337L680 336M679 337L680 338L679 337M678 338L679 339L678 338M677 339L678 340L677 339M676 340L677 341L676 340M675 341L676 342L675 341M674 342L675 343L674 342M673 343L674 344L673 343M672 344L673 345L672 344M671 345L672 346L671 345M670 346L671 347L670 346M669 347L670 348L669 347M867 347L868 348L867 347M668 348L669 349L668 348M667 349L668 350L667 349M666 350L667 351L666 350M665 351L666 352L665 351M664 352L665 353L664 352M663 353L664 354L663 353M662 354L663 355L662 354M661 355L662 356L661 355M660 356L661 357L660 356M1030 356L1031 357L1030 356M659 357L660 358L659 357M658 358L659 359L658 358M657 359L658 360L657 359M656 360L657 361L656 360M655 361L656 362L655 361M654 362L655 363L654 362M653 363L654 364L653 363M652 364L653 365L652 364M651 365L652 366L651 365M650 366L651 367L650 366M649 367L650 368L649 367M648 368L649 369L648 368M647 369L648 370L647 369M646 370L647 371L646 370M645 371L646 372L645 371M644 372L645 373L644 372z"/>
<path style="fill:#422790; stroke:none;" d="M1031 372L1032 373L1031 372z"/>
<path style="fill:#2e1c75; stroke:none;" d="M643 373L644 374L643 373M642 374L643 375L642 374M641 375L642 376L641 375M640 376L641 377L640 376M639 377L640 378L639 377M638 378L639 379L638 378M637 379L638 380L637 379M636 380L637 381L636 380M635 381L636 382L635 381M634 382L635 383L634 382M633 383L634 384L633 383M632 384L633 385L632 384M631 385L632 386L631 385M630 386L631 387L630 386M629 387L630 388L629 387M628 388L629 389L628 388M627 389L628 390L627 389M626 390L627 391L626 390M625 391L626 392L625 391M624 392L625 393L624 392M623 393L624 394L623 393M622 394L623 395L622 394M621 395L622 396L621 395M620 396L621 397L620 396z"/>
<path style="fill:#422790; stroke:none;" d="M870 396L871 397L870 396z"/>
<path style="fill:#2e1c75; stroke:none;" d="M619 397L620 398L619 397M618 398L619 399L618 398M617 399L618 400L617 399M616 400L617 401L616 400M615 401L616 402L615 401M614 402L615 403L614 402M613 403L614 404L613 403M612 404L613 405L612 404M611 405L612 406L611 405M1033 405L1034 406L1033 405M610 406L611 407L610 406M609 407L610 408L609 407M608 408L609 409L608 408M607 409L608 410L607 409M606 410L607 411L606 410M605 411L606 412L605 411M604 412L605 413L604 412M871 412L872 413L871 412M603 413L604 414L603 413M602 414L603 415L602 414M601 415L602 416L601 415M600 416L601 417L600 416M599 417L600 418L599 417M598 418L599 419L598 418M597 419L598 420L597 419M596 420L597 421L596 420M595 421L596 422L595 421M1034 421L1035 422L1034 421M594 422L595 423L594 422M593 423L594 424L593 423M592 424L593 425L592 424M591 425L592 426L591 425M590 426L591 427L590 426M589 427L590 428L589 427M588 428L589 429L588 428M587 429L588 430L587 429M586 430L587 431L586 430M585 431L586 432L585 431M584 432L585 433L584 432M583 433L584 434L583 433M582 434L583 435L582 434M581 435L582 436L581 435M580 436L581 437L580 436M579 437L580 438L579 437z"/>
<path style="fill:#422790; stroke:none;" d="M1035 437L1036 438L1035 437z"/>
<path style="fill:#2e1c75; stroke:none;" d="M578 438L579 439L578 438M577 439L578 440L577 439M576 440L577 441L576 440M575 441L576 442L575 441M574 442L575 443L574 442M573 443L574 444L573 443M572 444L573 445L572 444M571 445L572 446L571 445M570 446L571 447L570 446M569 447L570 448L569 447M568 448L569 449L568 448M567 449L568 450L567 449M566 450L567 451L566 450M565 451L566 452L565 451M564 452L565 453L564 452M563 453L564 454L563 453M562 454L563 455L562 454M561 455L562 456L561 455z"/>
<path style="fill:#ffffff; stroke:none;" d="M695 455L588 562L557 593L544.198 607L544.999 633L549.911 711L560.089 882L566 980L604 943L676 871L706 841L718.397 827L718.039 809L715.089 761L705.089 598L699.015 499L697.089 468L695 455z"/>
<path style="fill:#422790; stroke:none;" d="M696 455L697 456L696 455z"/>
<path style="fill:#2e1c75; stroke:none;" d="M560 456L561 457L560 456M559 457L560 458L559 457M558 458L559 459L558 458M557 459L558 460L557 459M556 460L557 461L556 460M555 461L556 462L555 461z"/>
<path style="fill:#422790; stroke:none;" d="M874 461L875 462L874 461z"/>
<path style="fill:#2e1c75; stroke:none;" d="M554 462L555 463L554 462M553 463L554 464L553 463M552 464L553 465L552 464M551 465L552 466L551 465M550 466L551 467L550 466M549 467L550 468L549 467M548 468L549 469L548 468M547 469L548 470L547 469M546 470L547 471L546 470M1037 470L1038 471L1037 470M545 471L546 472L545 471M544 472L545 473L544 472M543 473L544 474L543 473M542 474L543 475L542 474M541 475L542 476L541 475M540 476L541 477L540 476M539 477L540 478L539 477M875 477L876 478L875 477M538 478L539 479L538 478M537 479L538 480L537 479M536 480L537 481L536 480M535 481L536 482L535 481M534 482L535 483L534 482M533 483L534 484L533 483M532 484L533 485L532 484M531 485L532 486L531 485M530 486L531 487L530 486M1038 486L1039 487L1038 486M529 487L530 488L529 487M528 488L529 489L528 488M527 489L528 490L527 489M526 490L527 491L526 490M525 491L526 492L525 491M524 492L525 493L524 492M523 493L524 494L523 493M522 494L523 495L522 494M521 495L522 496L521 495M520 496L521 497L520 496M519 497L520 498L519 497M518 498L519 499L518 498M517 499L518 500L517 499M516 500L517 501L516 500M515 501L516 502L515 501M514 502L515 503L514 502z"/>
<path style="fill:#422790; stroke:none;" d="M1039 502L1040 503L1039 502z"/>
<path style="fill:#2e1c75; stroke:none;" d="M513 503L514 504L513 503M512 504L513 505L512 504M699 504L700 505L699 504M511 505L512 506L511 505M510 506L511 507L510 506M509 507L510 508L509 507M508 508L509 509L508 508M507 509L508 510L507 509M506 510L507 511L506 510M505 511L506 512L505 511M504 512L505 513L504 512M503 513L504 514L503 513M502 514L503 515L502 514M501 515L502 516L501 515M500 516L501 517L500 516M499 517L500 518L499 517M498 518L499 519L498 518M497 519L498 520L497 519M496 520L497 521L496 520M495 521L496 522L495 521M494 522L495 523L494 522M493 523L494 524L493 523M492 524L493 525L492 524M491 525L492 526L491 525M490 526L491 527L490 526z"/>
<path style="fill:#422790; stroke:none;" d="M878 526L879 527L878 526z"/>
<path style="fill:#2e1c75; stroke:none;" d="M489 527L490 528L489 527M488 528L489 529L488 528M487 529L488 530L487 529M486 530L487 531L486 530M485 531L486 532L485 531M484 532L485 533L484 532M483 533L484 534L483 533M482 534L483 535L482 534M481 535L482 536L481 535M480 536L481 537L480 536M479 537L480 538L479 537M478 538L479 539L478 538M477 539L478 540L477 539M476 540L477 541L476 540M475 541L476 542L475 541M474 542L475 543L474 542M879 542L880 543L879 542M473 543L474 544L473 543M472 544L473 545L472 544M471 545L472 546L471 545M470 546L471 547L470 546M469 547L470 548L469 547M468 548L469 549L468 548M467 549L468 550L467 549M466 550L467 551L466 550M465 551L466 552L465 551M464 552L465 553L464 552M463 553L464 554L463 553M462 554L463 555L462 554M461 555L462 556L461 555M460 556L461 557L460 556M459 557L460 558L459 557M458 558L459 559L458 558M457 559L458 560L457 559M456 560L457 561L456 560M455 561L456 562L455 561M454 562L455 563L454 562M453 563L454 564L453 563M452 564L453 565L452 564M451 565L452 566L451 565M450 566L451 567L450 566M449 567L450 568L449 567M448 568L449 569L448 568M447 569L448 570L447 569z"/>
<path style="fill:#422790; stroke:none;" d="M703 569L704 570L703 569z"/>
<path style="fill:#2e1c75; stroke:none;" d="M446 570L447 571L446 570M445 571L446 572L445 571M444 572L445 573L444 572M443 573L444 574L443 573M442 574L443 575L442 574M441 575L442 576L441 575M440 576L441 577L440 576M439 577L440 578L439 577M438 578L439 579L438 578M437 579L438 580L437 579M436 580L437 581L436 580M435 581L436 582L435 581M434 582L435 583L434 582M433 583L434 584L433 583M432 584L433 585L432 584M431 585L432 586L431 585M430 586L431 587L430 586M429 587L430 588L429 587M428 588L429 589L428 588M427 589L428 590L427 589M426 590L427 591L426 590M425 591L426 592L425 591M424 592L425 593L424 592M423 593L424 594L423 593M422 594L423 595L422 594M421 595L422 596L421 595M420 596L421 597L420 596M419 597L420 598L419 597M418 598L419 599L418 598M417 599L418 600L417 599M416 600L417 601L416 600M415 601L416 602L415 601M414 602L415 603L414 602M413 603L414 604L413 603M412 604L413 605L412 604M411 605L412 606L411 605M410 606L411 607L410 606M409 607L410 608L409 607M883 607L884 608L883 607M408 608L409 609L408 608M407 609L408 610L407 609M406 610L407 611L406 610M405 611L406 612L405 611M404 612L405 613L404 612M403 613L404 614L403 613M402 614L403 615L402 614M401 615L402 616L401 615M400 616L401 617L400 616M399 617L400 618L399 617M398 618L399 619L398 618M397 619L398 620L397 619M396 620L397 621L396 620M395 621L396 622L395 621M394 622L395 623L394 622M393 623L394 624L393 623M392 624L393 625L392 624M391 625L392 626L391 625z"/>
<path style="fill:#422790; stroke:none;" d="M544 625L545 626L544 625z"/>
<path style="fill:#2e1c75; stroke:none;" d="M390 626L391 627L390 626M389 627L390 628L389 627M388 628L389 629L388 628M387 629L388 630L387 629M386 630L387 631L386 630M385 631L386 632L385 631M384 632L385 633L384 632M383 633L384 634L383 633M382 634L383 635L382 634z"/>
<path style="fill:#422790; stroke:none;" d="M707 634L708 635L707 634z"/>
<path style="fill:#2e1c75; stroke:none;" d="M381 635L382 636L381 635M380 636L381 637L380 636M379 637L380 638L379 637M378 638L379 639L378 638M377 639L378 640L377 639M376 640L377 641L376 640M375 641L376 642L375 641M374 642L375 643L374 642M373 643L374 644L373 643M372 644L373 645L372 644M371 645L372 646L371 645M370 646L371 647L370 646M369 647L370 648L369 647M368 648L369 649L368 648M367 649L368 650L367 649M366 650L367 651L366 650M365 651L366 652L365 651M364 652L365 653L364 652M363 653L364 654L363 653M362 654L363 655L362 654M361 655L362 656L361 655M360 656L361 657L360 656M359 657L360 658L359 657M358 658L359 659L358 658M357 659L358 660L357 659M356 660L357 661L356 660M355 661L356 662L355 661M354 662L355 663L354 662M353 663L354 664L353 663M352 664L353 665L352 664M351 665L352 666L351 665M350 666L351 667L350 666M349 667L350 668L349 667M348 668L349 669L348 668M347 669L348 670L347 669M346 670L347 671L346 670M345 671L346 672L345 671M344 672L345 673L344 672M343 673L344 674L343 673M342 674L343 675L342 674M341 675L342 676L341 675M340 676L341 677L340 676M339 677L340 678L339 677M338 678L339 679L338 678M337 679L338 680L337 679M336 680L337 681L336 680M335 681L336 682L335 681M334 682L335 683L334 682M333 683L334 684L333 683M710 683L711 684L710 683M332 684L333 685L332 684M331 685L332 686L331 685M330 686L331 687L330 686M329 687L330 688L329 687M328 688L329 689L328 688M327 689L328 690L327 689M326 690L327 691L326 690M548 690L549 691L548 690M325 691L326 692L325 691M324 692L325 693L324 692M323 693L324 694L323 693M322 694L323 695L322 694M321 695L322 696L321 695M320 696L321 697L320 696M319 697L320 698L319 697M318 698L319 699L318 698M317 699L318 700L317 699z"/>
<path style="fill:#422790; stroke:none;" d="M711 699L712 700L711 699z"/>
<path style="fill:#2e1c75; stroke:none;" d="M316 700L317 701L316 700M315 701L316 702L315 701M314 702L315 703L314 702M313 703L314 704L313 703M312 704L313 705L312 704M311 705L312 706L311 705M310 706L311 707L310 706M309 707L310 708L309 707M308 708L309 709L308 708M307 709L308 710L307 709M306 710L307 711L306 710M305 711L306 712L305 711M304 712L305 713L304 712M303 713L304 714L303 713M302 714L303 715L302 714M301 715L302 716L301 715z"/>
<path style="fill:#422790; stroke:none;" d="M712 715L713 716L712 715z"/>
<path style="fill:#2e1c75; stroke:none;" d="M300 716L301 717L300 716M299 717L300 718L299 717z"/>
<path style="fill:#422790; stroke:none;" d="M1739 717L1740 718L1739 717z"/>
<path style="fill:#7c59fd; stroke:none;" d="M1740 717L1741 718L1740 717z"/>
<path style="fill:#49b0fb; stroke:none;" d="M1115 1336L1147 1305L1125.42 1378L1101.34 1458L1091.72 1489L1074 1509L1093 1491L1097.91 1565L1109.09 1755L1114.01 1835L1115.38 1862L1102 1877L1072 1907L963 2016L958 1934C952.89 1945.36 950.694 1959.03 946.974 1971C937.473 2001.58 928.518 2032.34 919.28 2063C915.765 2074.67 912.29 2086.37 908.659 2098C907.244 2102.53 903.89 2109.22 904.618 2114C905.408 2119.19 911.523 2123.52 915 2127C924.889 2136.89 934.18 2148.31 949 2149.83C961.879 2151.15 970.647 2142.35 979 2134L1018 2095L1195 1918L1714 1399L1863 1250C1897.18 1215.82 1933.92 1183.94 1955.75 1140C1992.35 1066.32 1985.96 974.529 1940.92 906C1915.15 866.789 1876.99 834.99 1844 802L1778 736C1766.97 724.969 1754.95 712.834 1738 718.36C1717.39 725.077 1699.01 751.988 1684 767L1566 885L1260 1191C1228.5 1222.5 1197.97 1254.95 1166 1285.98C1149.33 1302.16 1128.51 1316.82 1115 1336z"/>
<path style="fill:#2e1c75; stroke:none;" d="M298 718L299 719L298 718M807 1347C832.03 1345.02 857.186 1339.27 882 1335.42C939.674 1326.48 997.259 1316.78 1055 1308.27C1079.68 1304.64 1104.39 1300.85 1129 1296.75C1138.14 1295.23 1152.2 1295.7 1160 1290.44C1176.61 1279.22 1190.82 1260.18 1205 1246L1297 1154L1584 867L1686 765C1700.6 750.396 1716.83 727.275 1736 719L1717 720.589L1676 726.729L1522 749.728L1447 760.87L1410 767.013L1395 780.999L1368 806.996L1288 883.961L1004 1156.96L875 1280.96L827 1327L807 1347z"/>
<path style="fill:#422790; stroke:none;" d="M1736 718L1737 719L1736 718z"/>
<path style="fill:#7c59fd; stroke:none;" d="M1737 718L1738 719L1737 718z"/>
<path style="fill:#2e1c75; stroke:none;" d="M297 719L298 720L297 719z"/>
<path style="fill:#422790; stroke:none;" d="M1734 719L1735 720L1734 719z"/>
<path style="fill:#2e1c75; stroke:none;" d="M296 720L297 721L296 720z"/>
<path style="fill:#7c59fd; stroke:none;" d="M1732 720L1733 721L1732 720z"/>
<path style="fill:#2e1c75; stroke:none;" d="M295 721L296 722L295 721z"/>
<path style="fill:#422790; stroke:none;" d="M1730 721L1731 722L1730 721z"/>
<path style="fill:#2e1c75; stroke:none;" d="M294 722L295 723L294 722z"/>
<path style="fill:#7c59fd; stroke:none;" d="M1729 722L1730 723L1729 722z"/>
<path style="fill:#2e1c75; stroke:none;" d="M293 723L294 724L293 723z"/>
<path style="fill:#422790; stroke:none;" d="M1727 723L1728 724L1727 723z"/>
<path style="fill:#2e1c75; stroke:none;" d="M292 724L293 725L292 724z"/>
<path style="fill:#422790; stroke:none;" d="M1726 724L1727 725L1726 724z"/>
<path style="fill:#2e1c75; stroke:none;" d="M1765 724L1766 725L1765 724M291 725L292 726L291 725z"/>
<path style="fill:#422790; stroke:none;" d="M1725 725L1726 726L1725 725z"/>
<path style="fill:#2e1c75; stroke:none;" d="M290 726L291 727L290 726z"/>
<path style="fill:#422790; stroke:none;" d="M1724 726L1725 727L1724 726z"/>
<path style="fill:#2e1c75; stroke:none;" d="M289 727L290 728L289 727z"/>
<path style="fill:#422790; stroke:none;" d="M1723 727L1724 728L1723 727z"/>
<path style="fill:#2e1c75; stroke:none;" d="M288 728L289 729L288 728z"/>
<path style="fill:#422790; stroke:none;" d="M1722 728L1723 729L1722 728z"/>
<path style="fill:#2e1c75; stroke:none;" d="M287 729L288 730L287 729z"/>
<path style="fill:#422790; stroke:none;" d="M1721 729L1722 730L1721 729z"/>
<path style="fill:#2e1c75; stroke:none;" d="M286 730L287 731L286 730z"/>
<path style="fill:#422790; stroke:none;" d="M1720 730L1721 731L1720 730z"/>
<path style="fill:#2e1c75; stroke:none;" d="M285 731L286 732L285 731z"/>
<path style="fill:#422790; stroke:none;" d="M1719 731L1720 732L1719 731z"/>
<path style="fill:#2e1c75; stroke:none;" d="M284 732L285 733L284 732z"/>
<path style="fill:#422790; stroke:none;" d="M1718 732L1719 733L1718 732z"/>
<path style="fill:#2e1c75; stroke:none;" d="M283 733L284 734L283 733z"/>
<path style="fill:#422790; stroke:none;" d="M1717 733L1718 734L1717 733z"/>
<path style="fill:#2e1c75; stroke:none;" d="M282 734L283 735L282 734z"/>
<path style="fill:#422790; stroke:none;" d="M1716 734L1717 735L1716 734z"/>
<path style="fill:#2e1c75; stroke:none;" d="M281 735L282 736L281 735z"/>
<path style="fill:#422790; stroke:none;" d="M1715 735L1716 736L1715 735z"/>
<path style="fill:#2e1c75; stroke:none;" d="M280 736L281 737L280 736z"/>
<path style="fill:#422790; stroke:none;" d="M1714 736L1715 737L1714 736z"/>
<path style="fill:#2e1c75; stroke:none;" d="M279 737L280 738L279 737z"/>
<path style="fill:#422790; stroke:none;" d="M1713 737L1714 738L1713 737z"/>
<path style="fill:#2e1c75; stroke:none;" d="M278 738L279 739L278 738z"/>
<path style="fill:#422790; stroke:none;" d="M1712 738L1713 739L1712 738z"/>
<path style="fill:#2e1c75; stroke:none;" d="M277 739L278 740L277 739z"/>
<path style="fill:#422790; stroke:none;" d="M551 739L552 740L551 739M1711 739L1712 740L1711 739z"/>
<path style="fill:#2e1c75; stroke:none;" d="M276 740L277 741L276 740z"/>
<path style="fill:#422790; stroke:none;" d="M1710 740L1711 741L1710 740z"/>
<path style="fill:#2e1c75; stroke:none;" d="M275 741L276 742L275 741z"/>
<path style="fill:#422790; stroke:none;" d="M1709 741L1710 742L1709 741z"/>
<path style="fill:#2e1c75; stroke:none;" d="M274 742L275 743L274 742z"/>
<path style="fill:#422790; stroke:none;" d="M1708 742L1709 743L1708 742z"/>
<path style="fill:#2e1c75; stroke:none;" d="M273 743L274 744L273 743z"/>
<path style="fill:#422790; stroke:none;" d="M1707 743L1708 744L1707 743z"/>
<path style="fill:#2e1c75; stroke:none;" d="M272 744L273 745L272 744z"/>
<path style="fill:#422790; stroke:none;" d="M1706 744L1707 745L1706 744z"/>
<path style="fill:#2e1c75; stroke:none;" d="M271 745L272 746L271 745z"/>
<path style="fill:#422790; stroke:none;" d="M1705 745L1706 746L1705 745z"/>
<path style="fill:#2e1c75; stroke:none;" d="M270 746L271 747L270 746z"/>
<path style="fill:#422790; stroke:none;" d="M1704 746L1705 747L1704 746z"/>
<path style="fill:#2e1c75; stroke:none;" d="M269 747L270 748L269 747z"/>
<path style="fill:#422790; stroke:none;" d="M1703 747L1704 748L1703 747z"/>
<path style="fill:#2e1c75; stroke:none;" d="M268 748L269 749L268 748M714 748L715 749L714 748z"/>
<path style="fill:#422790; stroke:none;" d="M1702 748L1703 749L1702 748z"/>
<path style="fill:#2e1c75; stroke:none;" d="M267 749L268 750L267 749z"/>
<path style="fill:#422790; stroke:none;" d="M1701 749L1702 750L1701 749z"/>
<path style="fill:#2e1c75; stroke:none;" d="M266 750L267 751L266 750z"/>
<path style="fill:#422790; stroke:none;" d="M1700 750L1701 751L1700 750z"/>
<path style="fill:#2e1c75; stroke:none;" d="M265 751L266 752L265 751z"/>
<path style="fill:#422790; stroke:none;" d="M1699 751L1700 752L1699 751z"/>
<path style="fill:#2e1c75; stroke:none;" d="M264 752L265 753L264 752z"/>
<path style="fill:#422790; stroke:none;" d="M1698 752L1699 753L1698 752z"/>
<path style="fill:#2e1c75; stroke:none;" d="M263 753L264 754L263 753z"/>
<path style="fill:#422790; stroke:none;" d="M1697 753L1698 754L1697 753z"/>
<path style="fill:#2e1c75; stroke:none;" d="M262 754L263 755L262 754z"/>
<path style="fill:#422790; stroke:none;" d="M1696 754L1697 755L1696 754z"/>
<path style="fill:#2e1c75; stroke:none;" d="M261 755L262 756L261 755M552 755L553 756L552 755z"/>
<path style="fill:#422790; stroke:none;" d="M1695 755L1696 756L1695 755z"/>
<path style="fill:#2e1c75; stroke:none;" d="M260 756L261 757L260 756z"/>
<path style="fill:#422790; stroke:none;" d="M1694 756L1695 757L1694 756z"/>
<path style="fill:#2e1c75; stroke:none;" d="M259 757L260 758L259 757z"/>
<path style="fill:#422790; stroke:none;" d="M1693 757L1694 758L1693 757z"/>
<path style="fill:#2e1c75; stroke:none;" d="M258 758L259 759L258 758z"/>
<path style="fill:#422790; stroke:none;" d="M1692 758L1693 759L1692 758z"/>
<path style="fill:#2e1c75; stroke:none;" d="M257 759L258 760L257 759z"/>
<path style="fill:#422790; stroke:none;" d="M1691 759L1692 760L1691 759z"/>
<path style="fill:#2e1c75; stroke:none;" d="M256 760L257 761L256 760z"/>
<path style="fill:#422790; stroke:none;" d="M1690 760L1691 761L1690 760z"/>
<path style="fill:#2e1c75; stroke:none;" d="M255 761L256 762L255 761z"/>
<path style="fill:#422790; stroke:none;" d="M1689 761L1690 762L1689 761z"/>
<path style="fill:#2e1c75; stroke:none;" d="M254 762L255 763L254 762z"/>
<path style="fill:#422790; stroke:none;" d="M1688 762L1689 763L1688 762z"/>
<path style="fill:#2e1c75; stroke:none;" d="M253 763L254 764L253 763z"/>
<path style="fill:#422790; stroke:none;" d="M1687 763L1688 764L1687 763z"/>
<path style="fill:#2e1c75; stroke:none;" d="M252 764L253 765L252 764z"/>
<path style="fill:#422790; stroke:none;" d="M1686 764L1687 765L1686 764z"/>
<path style="fill:#2e1c75; stroke:none;" d="M251 765L252 766L251 765z"/>
<path style="fill:#422790; stroke:none;" d="M1685 765L1686 766L1685 765z"/>
<path style="fill:#2e1c75; stroke:none;" d="M250 766L251 767L250 766z"/>
<path style="fill:#422790; stroke:none;" d="M1684 766L1685 767L1684 766z"/>
<path style="fill:#2e1c75; stroke:none;" d="M249 767L250 768L249 767M1403.67 767.333L1404.33 767.667L1403.67 767.333z"/>
<path style="fill:#422790; stroke:none;" d="M196 1407C198.463 1411.75 202.242 1415.24 206 1419C212.198 1425.2 218.451 1432.02 227 1434.9C243.965 1440.59 270.755 1431.48 288 1428.59C368.522 1415.08 449.386 1403.54 530 1390.59C589.944 1380.96 649.912 1370.77 710 1362.13C730.715 1359.15 751.297 1355.32 772 1352.27C782.299 1350.75 796.492 1350.64 806 1346.49C812.849 1343.49 819.656 1335.2 825 1329.99C836.645 1318.63 848.501 1307.5 860 1296C896.234 1259.77 933.501 1224.02 971 1189.09C1067.42 1099.28 1159.58 1004.9 1256 915.089C1290.51 882.945 1323.91 849.635 1358 817.039C1374.59 801.179 1395.76 785.8 1409 767C1359.67 770.899 1309.99 781.512 1261 788.728C1173.99 801.547 1086.91 814.096 1000 827.576C959.381 833.875 918.685 839.867 878 845.729C862.537 847.957 838.918 847.152 825 854.178C813.108 860.182 802.389 875.611 793 885L723 955L493 1185L312 1366L266 1412C258.11 1419.89 250.473 1430.03 239 1432.48C219.333 1436.68 209.651 1416.62 196 1407M1683 767L1684 768L1683 767z"/>
<path style="fill:#2e1c75; stroke:none;" d="M248 768L249 769L248 768M1396 768L1396 769L1399 769L1396 768z"/>
<path style="fill:#422790; stroke:none;" d="M1682 768L1683 769L1682 768z"/>
<path style="fill:#2e1c75; stroke:none;" d="M247 769L248 770L247 769M1389 769L1389 770L1393 770L1389 769z"/>
<path style="fill:#422790; stroke:none;" d="M1681 769L1682 770L1681 769z"/>
<path style="fill:#2e1c75; stroke:none;" d="M246 770L247 771L246 770M1383.67 770.333L1384.33 770.667L1383.67 770.333M1388 770L1389 771L1388 770z"/>
<path style="fill:#422790; stroke:none;" d="M1680 770L1681 771L1680 770z"/>
<path style="fill:#2e1c75; stroke:none;" d="M245 771L246 772L245 771M1376.67 771.333L1377.33 771.667L1376.67 771.333z"/>
<path style="fill:#422790; stroke:none;" d="M1679 771L1680 772L1679 771z"/>
<path style="fill:#2e1c75; stroke:none;" d="M244 772L245 773L244 772M1369 772L1369 773L1372 773L1369 772z"/>
<path style="fill:#422790; stroke:none;" d="M1678 772L1679 773L1678 772z"/>
<path style="fill:#2e1c75; stroke:none;" d="M243 773L244 774L243 773M1363.67 773.333L1364.33 773.667L1363.67 773.333z"/>
<path style="fill:#422790; stroke:none;" d="M1677 773L1678 774L1677 773z"/>
<path style="fill:#2e1c75; stroke:none;" d="M242 774L243 775L242 774M1356 774L1357 775L1356 774z"/>
<path style="fill:#422790; stroke:none;" d="M1676 774L1677 775L1676 774z"/>
<path style="fill:#2e1c75; stroke:none;" d="M241 775L242 776L241 775z"/>
<path style="fill:#ffffff; stroke:none;" d="M375 775L267 883L237 913L223.603 928L224.961 957L229.91 1038L246 1300L283 1264L352 1195L383 1164L397.971 1148L397.09 1120L393.09 1055L381.09 860L377.285 797L375 775z"/>
<path style="fill:#2e1c75; stroke:none;" d="M1349 775L1350 776L1349 775z"/>
<path style="fill:#422790; stroke:none;" d="M1675 775L1676 776L1675 775z"/>
<path style="fill:#2e1c75; stroke:none;" d="M240 776L241 777L240 776M1342 776L1342 777L1345 777L1342 776z"/>
<path style="fill:#422790; stroke:none;" d="M1674 776L1675 777L1674 776z"/>
<path style="fill:#2e1c75; stroke:none;" d="M239 777L240 778L239 777M1336 777L1337 778L1336 777z"/>
<path style="fill:#422790; stroke:none;" d="M1673 777L1674 778L1673 777z"/>
<path style="fill:#2e1c75; stroke:none;" d="M238 778L239 779L238 778M1329 778L1330 779L1329 778z"/>
<path style="fill:#422790; stroke:none;" d="M1672 778L1673 779L1672 778z"/>
<path style="fill:#2e1c75; stroke:none;" d="M237 779L238 780L237 779M1322.67 779.333L1323.33 779.667L1322.67 779.333z"/>
<path style="fill:#422790; stroke:none;" d="M1671 779L1672 780L1671 779z"/>
<path style="fill:#2e1c75; stroke:none;" d="M236 780L237 781L236 780M1316 780L1317 781L1316 780z"/>
<path style="fill:#422790; stroke:none;" d="M1670 780L1671 781L1670 780z"/>
<path style="fill:#2e1c75; stroke:none;" d="M235 781L236 782L235 781M1309.67 781.333L1310.33 781.667L1309.67 781.333z"/>
<path style="fill:#422790; stroke:none;" d="M1669 781L1670 782L1669 781z"/>
<path style="fill:#2e1c75; stroke:none;" d="M234 782L235 783L234 782z"/>
<path style="fill:#422790; stroke:none;" d="M376 782L377 783L376 782z"/>
<path style="fill:#2e1c75; stroke:none;" d="M1302 782L1303 783L1302 782z"/>
<path style="fill:#422790; stroke:none;" d="M1668 782L1669 783L1668 782z"/>
<path style="fill:#2e1c75; stroke:none;" d="M233 783L234 784L233 783M1295 783L1296 784L1295 783z"/>
<path style="fill:#422790; stroke:none;" d="M1667 783L1668 784L1667 783z"/>
<path style="fill:#2e1c75; stroke:none;" d="M232 784L233 785L232 784M1289 784L1290 785L1289 784z"/>
<path style="fill:#422790; stroke:none;" d="M1666 784L1667 785L1666 784z"/>
<path style="fill:#2e1c75; stroke:none;" d="M231 785L232 786L231 785M1282 785L1283 786L1282 785z"/>
<path style="fill:#422790; stroke:none;" d="M1665 785L1666 786L1665 785z"/>
<path style="fill:#2e1c75; stroke:none;" d="M230 786L231 787L230 786M1275 786L1276 787L1275 786z"/>
<path style="fill:#422790; stroke:none;" d="M1664 786L1665 787L1664 786z"/>
<path style="fill:#2e1c75; stroke:none;" d="M229 787L230 788L229 787z"/>
<path style="fill:#422790; stroke:none;" d="M1663 787L1664 788L1663 787z"/>
<path style="fill:#2e1c75; stroke:none;" d="M228 788L229 789L228 788M1262 788L1263 789L1262 788z"/>
<path style="fill:#422790; stroke:none;" d="M1662 788L1663 789L1662 788z"/>
<path style="fill:#2e1c75; stroke:none;" d="M227 789L228 790L227 789M1255 789L1256 790L1255 789z"/>
<path style="fill:#422790; stroke:none;" d="M1661 789L1662 790L1661 789z"/>
<path style="fill:#2e1c75; stroke:none;" d="M226 790L227 791L226 790M1248 790L1249 791L1248 790z"/>
<path style="fill:#422790; stroke:none;" d="M1660 790L1661 791L1660 790z"/>
<path style="fill:#2e1c75; stroke:none;" d="M225 791L226 792L225 791M1242 791L1243 792L1242 791z"/>
<path style="fill:#422790; stroke:none;" d="M1659 791L1660 792L1659 791z"/>
<path style="fill:#2e1c75; stroke:none;" d="M224 792L225 793L224 792M1235 792L1236 793L1235 792z"/>
<path style="fill:#422790; stroke:none;" d="M1658 792L1659 793L1658 792z"/>
<path style="fill:#2e1c75; stroke:none;" d="M223 793L224 794L223 793M1228 793L1229 794L1228 793z"/>
<path style="fill:#422790; stroke:none;" d="M1657 793L1658 794L1657 793z"/>
<path style="fill:#2e1c75; stroke:none;" d="M222 794L223 795L222 794M1222 794L1223 795L1222 794z"/>
<path style="fill:#422790; stroke:none;" d="M1656 794L1657 795L1656 794z"/>
<path style="fill:#2e1c75; stroke:none;" d="M221 795L222 796L221 795M1215 795L1216 796L1215 795z"/>
<path style="fill:#422790; stroke:none;" d="M1655 795L1656 796L1655 795z"/>
<path style="fill:#2e1c75; stroke:none;" d="M220 796L221 797L220 796M1208 796L1209 797L1208 796z"/>
<path style="fill:#422790; stroke:none;" d="M1654 796L1655 797L1654 796z"/>
<path style="fill:#2e1c75; stroke:none;" d="M219 797L220 798L219 797M1201 797L1202 798L1201 797z"/>
<path style="fill:#422790; stroke:none;" d="M1653 797L1654 798L1653 797z"/>
<path style="fill:#2e1c75; stroke:none;" d="M218 798L219 799L218 798z"/>
<path style="fill:#422790; stroke:none;" d="M1652 798L1653 799L1652 798z"/>
<path style="fill:#2e1c75; stroke:none;" d="M217 799L218 800L217 799M1188 799L1189 800L1188 799z"/>
<path style="fill:#422790; stroke:none;" d="M1651 799L1652 800L1651 799z"/>
<path style="fill:#2e1c75; stroke:none;" d="M216 800L217 801L216 800M1181 800L1182 801L1181 800z"/>
<path style="fill:#422790; stroke:none;" d="M1650 800L1651 801L1650 800z"/>
<path style="fill:#2e1c75; stroke:none;" d="M215 801L216 802L215 801M1175 801L1176 802L1175 801z"/>
<path style="fill:#422790; stroke:none;" d="M1649 801L1650 802L1649 801z"/>
<path style="fill:#2e1c75; stroke:none;" d="M214 802L215 803L214 802M1168 802L1169 803L1168 802z"/>
<path style="fill:#422790; stroke:none;" d="M1648 802L1649 803L1648 802z"/>
<path style="fill:#2e1c75; stroke:none;" d="M213 803L214 804L213 803M1161 803L1162 804L1161 803z"/>
<path style="fill:#422790; stroke:none;" d="M1647 803L1648 804L1647 803z"/>
<path style="fill:#2e1c75; stroke:none;" d="M212 804L213 805L212 804z"/>
<path style="fill:#422790; stroke:none;" d="M555 804L556 805L555 804z"/>
<path style="fill:#2e1c75; stroke:none;" d="M1154 804L1155 805L1154 804z"/>
<path style="fill:#422790; stroke:none;" d="M1646 804L1647 805L1646 804z"/>
<path style="fill:#2e1c75; stroke:none;" d="M211 805L212 806L211 805z"/>
<path style="fill:#422790; stroke:none;" d="M1645 805L1646 806L1645 805z"/>
<path style="fill:#2e1c75; stroke:none;" d="M210 806L211 807L210 806M1141 806L1142 807L1141 806z"/>
<path style="fill:#422790; stroke:none;" d="M1644 806L1645 807L1644 806z"/>
<path style="fill:#2e1c75; stroke:none;" d="M209 807L210 808L209 807M1134 807L1135 808L1134 807z"/>
<path style="fill:#422790; stroke:none;" d="M1643 807L1644 808L1643 807z"/>
<path style="fill:#2e1c75; stroke:none;" d="M208 808L209 809L208 808z"/>
<path style="fill:#422790; stroke:none;" d="M1642 808L1643 809L1642 808z"/>
<path style="fill:#2e1c75; stroke:none;" d="M207 809L208 810L207 809M1121 809L1122 810L1121 809z"/>
<path style="fill:#422790; stroke:none;" d="M1641 809L1642 810L1641 809z"/>
<path style="fill:#2e1c75; stroke:none;" d="M206 810L207 811L206 810M1114 810L1115 811L1114 810z"/>
<path style="fill:#422790; stroke:none;" d="M1640 810L1641 811L1640 810z"/>
<path style="fill:#2e1c75; stroke:none;" d="M205 811L206 812L205 811z"/>
<path style="fill:#422790; stroke:none;" d="M1639 811L1640 812L1639 811z"/>
<path style="fill:#2e1c75; stroke:none;" d="M204 812L205 813L204 812z"/>
<path style="fill:#422790; stroke:none;" d="M1638 812L1639 813L1638 812z"/>
<path style="fill:#2e1c75; stroke:none;" d="M203 813L204 814L203 813M718 813L719 814L718 813M1094 813L1095 814L1094 813z"/>
<path style="fill:#422790; stroke:none;" d="M1637 813L1638 814L1637 813z"/>
<path style="fill:#2e1c75; stroke:none;" d="M202 814L203 815L202 814M1087 814L1088 815L1087 814z"/>
<path style="fill:#422790; stroke:none;" d="M1636 814L1637 815L1636 814z"/>
<path style="fill:#2e1c75; stroke:none;" d="M201 815L202 816L201 815z"/>
<path style="fill:#422790; stroke:none;" d="M1635 815L1636 816L1635 815z"/>
<path style="fill:#2e1c75; stroke:none;" d="M200 816L201 817L200 816M1074 816L1075 817L1074 816z"/>
<path style="fill:#422790; stroke:none;" d="M1634 816L1635 817L1634 816z"/>
<path style="fill:#2e1c75; stroke:none;" d="M199 817L200 818L199 817M1067 817L1068 818L1067 817z"/>
<path style="fill:#422790; stroke:none;" d="M1633 817L1634 818L1633 817z"/>
<path style="fill:#2e1c75; stroke:none;" d="M198 818L199 819L198 818z"/>
<path style="fill:#422790; stroke:none;" d="M1632 818L1633 819L1632 818z"/>
<path style="fill:#2e1c75; stroke:none;" d="M197 819L198 820L197 819z"/>
<path style="fill:#422790; stroke:none;" d="M1631 819L1632 820L1631 819z"/>
<path style="fill:#2e1c75; stroke:none;" d="M196 820L197 821L196 820M556 820L557 821L556 820M1047 820L1048 821L1047 820z"/>
<path style="fill:#422790; stroke:none;" d="M1630 820L1631 821L1630 820z"/>
<path style="fill:#2e1c75; stroke:none;" d="M195 821L196 822L195 821M1040 821L1041 822L1040 821z"/>
<path style="fill:#422790; stroke:none;" d="M1629 821L1630 822L1629 821z"/>
<path style="fill:#2e1c75; stroke:none;" d="M194 822L195 823L194 822z"/>
<path style="fill:#422790; stroke:none;" d="M1628 822L1629 823L1628 822z"/>
<path style="fill:#2e1c75; stroke:none;" d="M193 823L194 824L193 823M1027 823L1028 824L1027 823z"/>
<path style="fill:#422790; stroke:none;" d="M1627 823L1628 824L1627 823z"/>
<path style="fill:#2e1c75; stroke:none;" d="M192 824L193 825L192 824M1020 824L1021 825L1020 824z"/>
<path style="fill:#422790; stroke:none;" d="M1626 824L1627 825L1626 824z"/>
<path style="fill:#2e1c75; stroke:none;" d="M191 825L192 826L191 825z"/>
<path style="fill:#422790; stroke:none;" d="M1625 825L1626 826L1625 825M1624 826L1625 827L1624 826z"/>
<path style="fill:#2e1c75; stroke:none;" d="M1000 827L1001 828L1000 827z"/>
<path style="fill:#422790; stroke:none;" d="M1623 827L1624 828L1623 827z"/>
<path style="fill:#2e1c75; stroke:none;" d="M993 828L994 829L993 828z"/>
<path style="fill:#422790; stroke:none;" d="M1622 828L1623 829L1622 828M1621 829L1622 830L1621 829z"/>
<path style="fill:#2e1c75; stroke:none;" d="M980 830L981 831L980 830z"/>
<path style="fill:#422790; stroke:none;" d="M1620 830L1621 831L1620 830z"/>
<path style="fill:#2e1c75; stroke:none;" d="M379 831L380 832L379 831M973 831L974 832L973 831z"/>
<path style="fill:#422790; stroke:none;" d="M1619 831L1620 832L1619 831M1618 832L1619 833L1618 832M1617 833L1618 834L1617 833z"/>
<path style="fill:#2e1c75; stroke:none;" d="M953 834L954 835L953 834z"/>
<path style="fill:#422790; stroke:none;" d="M1616 834L1617 835L1616 834z"/>
<path style="fill:#2e1c75; stroke:none;" d="M946 835L947 836L946 835z"/>
<path style="fill:#422790; stroke:none;" d="M1615 835L1616 836L1615 835M1614 836L1615 837L1614 836z"/>
<path style="fill:#2e1c75; stroke:none;" d="M933 837L934 838L933 837z"/>
<path style="fill:#422790; stroke:none;" d="M1613 837L1614 838L1613 837z"/>
<path style="fill:#2e1c75; stroke:none;" d="M926 838L927 839L926 838z"/>
<path style="fill:#422790; stroke:none;" d="M1612 838L1613 839L1612 838M1611 839L1612 840L1611 839M1610 840L1611 841L1610 840z"/>
<path style="fill:#2e1c75; stroke:none;" d="M906 841L907 842L906 841z"/>
<path style="fill:#422790; stroke:none;" d="M1609 841L1610 842L1609 841z"/>
<path style="fill:#2e1c75; stroke:none;" d="M899 842L900 843L899 842z"/>
<path style="fill:#422790; stroke:none;" d="M1608 842L1609 843L1608 842M1607 843L1608 844L1607 843z"/>
<path style="fill:#2e1c75; stroke:none;" d="M886 844L887 845L886 844z"/>
<path style="fill:#422790; stroke:none;" d="M1606 844L1607 845L1606 844z"/>
<path style="fill:#2e1c75; stroke:none;" d="M879 845L880 846L879 845z"/>
<path style="fill:#422790; stroke:none;" d="M1605 845L1606 846L1605 845M1604 846L1605 847L1604 846M380 847L381 848L380 847M1603 847L1604 848L1603 847z"/>
<path style="fill:#2e1c75; stroke:none;" d="M859 848L860 849L859 848z"/>
<path style="fill:#422790; stroke:none;" d="M1602 848L1603 849L1602 848z"/>
<path style="fill:#2e1c75; stroke:none;" d="M852 849L853 850L852 849z"/>
<path style="fill:#422790; stroke:none;" d="M1601 849L1602 850L1601 849M1600 850L1601 851L1600 850z"/>
<path style="fill:#ffffff; stroke:none;" d="M1733 850L1628 955L1597 986C1592.23 990.773 1585.08 995.899 1582.03 1002C1578.12 1009.82 1582.02 1025.51 1582.83 1034C1584.91 1055.88 1585.41 1078.06 1586.91 1100C1591 1159.64 1593.83 1219.36 1597.91 1279C1599.39 1300.66 1600.43 1322.34 1601.91 1344C1602.58 1353.81 1601.72 1364.42 1604 1374L1641 1338L1712 1267L1743 1237L1755.93 1223L1755.04 1198L1751.04 1133L1739.09 939L1735.17 875L1733 850z"/>
<path style="fill:#2e1c75; stroke:none;" d="M839 851L840 852L839 851z"/>
<path style="fill:#422790; stroke:none;" d="M1599 851L1600 852L1599 851z"/>
<path style="fill:#2e1c75; stroke:none;" d="M832 852L833 853L832 852z"/>
<path style="fill:#422790; stroke:none;" d="M1598 852L1599 853L1598 852M1597 853L1598 854L1597 853M1596 854L1597 855L1596 854M1595 855L1596 856L1595 855M1594 856L1595 857L1594 856M1593 857L1594 858L1593 857M1592 858L1593 859L1592 858M1591 859L1592 860L1591 859M1590 860L1591 861L1590 860M1589 861L1590 862L1589 861M1588 862L1589 863L1588 862M1587 863L1588 864L1587 863M1586 864L1587 865L1586 864M1585 865L1586 866L1585 865M1584 866L1585 867L1584 866M1583 867L1584 868L1583 867M1582 868L1583 869L1582 868M559 869L560 870L559 869M1581 869L1582 870L1581 869M1580 870L1581 871L1580 870M1579 871L1580 872L1579 871z"/>
<path style="fill:#2e1c75; stroke:none;" d="M1912 871L1913 872L1912 871z"/>
<path style="fill:#422790; stroke:none;" d="M1578 872L1579 873L1578 872z"/>
<path style="fill:#2e1c75; stroke:none;" d="M1913 872L1914 873L1913 872z"/>
<path style="fill:#422790; stroke:none;" d="M1577 873L1578 874L1577 873M1576 874L1577 875L1576 874M1575 875L1576 876L1575 875M1574 876L1575 877L1574 876M1573 877L1574 878L1573 877M1572 878L1573 879L1572 878M1571 879L1572 880L1571 879M1570 880L1571 881L1570 880M1569 881L1570 882L1569 881M1568 882L1569 883L1568 882M1567 883L1568 884L1567 883M1566 884L1567 885L1566 884z"/>
<path style="fill:#2e1c75; stroke:none;" d="M560 885L561 886L560 885z"/>
<path style="fill:#422790; stroke:none;" d="M1565 885L1566 886L1565 885M1564 886L1565 887L1564 886M1563 887L1564 888L1563 887M1562 888L1563 889L1562 888M1561 889L1562 890L1561 889z"/>
<path style="fill:#2e1c75; stroke:none;" d="M1928 889L1929 890L1928 889z"/>
<path style="fill:#422790; stroke:none;" d="M1560 890L1561 891L1560 890M1559 891L1560 892L1559 891M1558 892L1559 893L1558 892M1557 893L1558 894L1557 893M1556 894L1557 895L1556 894M1555 895L1556 896L1555 895z"/>
<path style="fill:#2e1c75; stroke:none;" d="M383 896L384 897L383 896z"/>
<path style="fill:#422790; stroke:none;" d="M1554 896L1555 897L1554 896M1553 897L1554 898L1553 897M1552 898L1553 899L1552 898M1551 899L1552 900L1551 899M1550 900L1551 901L1550 900M1549 901L1550 902L1549 901z"/>
<path style="fill:#2e1c75; stroke:none;" d="M1937 901L1938 902L1937 901z"/>
<path style="fill:#422790; stroke:none;" d="M1548 902L1549 903L1548 902M1547 903L1548 904L1547 903M1546 904L1547 905L1546 904M1545 905L1546 906L1545 905M1544 906L1545 907L1544 906M1543 907L1544 908L1543 907M1542 908L1543 909L1542 908M1541 909L1542 910L1541 909M1540 910L1541 911L1540 910z"/>
<path style="fill:#2e1c75; stroke:none;" d="M1943 910L1944 911L1943 910z"/>
<path style="fill:#422790; stroke:none;" d="M1539 911L1540 912L1539 911M384 912L385 913L384 912M1538 912L1539 913L1538 912M1537 913L1538 914L1537 913M1536 914L1537 915L1536 914M1535 915L1536 916L1535 915M1534 916L1535 917L1534 916M1533 917L1534 918L1533 917M562 918L563 919L562 918M1532 918L1533 919L1532 918M1531 919L1532 920L1531 919M1530 920L1531 921L1530 920M1529 921L1530 922L1529 921M1528 922L1529 923L1528 922M1527 923L1528 924L1527 923M1526 924L1527 925L1526 924M1525 925L1526 926L1525 925M1524 926L1525 927L1524 926M1523 927L1524 928L1523 927M385 928L386 929L385 928M1522 928L1523 929L1522 928M1521 929L1522 930L1521 929M1520 930L1521 931L1520 930M1519 931L1520 932L1519 931M1518 932L1519 933L1518 932M1517 933L1518 934L1517 933M563 934L564 935L563 934M1516 934L1517 935L1516 934M1515 935L1516 936L1515 935M1514 936L1515 937L1514 936M1513 937L1514 938L1513 937M1512 938L1513 939L1512 938M1511 939L1512 940L1511 939M1510 940L1511 941L1510 940z"/>
<path style="fill:#2e1c75; stroke:none;" d="M1959 940L1960 941L1959 940z"/>
<path style="fill:#422790; stroke:none;" d="M1509 941L1510 942L1509 941M1508 942L1509 943L1508 942M1507 943L1508 944L1507 943M1506 944L1507 945L1506 944M1505 945L1506 946L1505 945M1504 946L1505 947L1504 946M1503 947L1504 948L1503 947M1502 948L1503 949L1502 948M1501 949L1502 950L1501 949M1500 950L1501 951L1500 950M1499 951L1500 952L1499 951M224 952L225 953L224 952M1498 952L1499 953L1498 952M1497 953L1498 954L1497 953M1496 954L1497 955L1496 954M1495 955L1496 956L1495 955z"/>
<path style="fill:#2e1c75; stroke:none;" d="M1965 955L1966 956L1965 955z"/>
<path style="fill:#422790; stroke:none;" d="M1494 956L1495 957L1494 956M1493 957L1494 958L1493 957M1492 958L1493 959L1492 958M1491 959L1492 960L1491 959M57 960L58 961L57 960M1490 960L1491 961L1490 960z"/>
<path style="fill:#2e1c75; stroke:none;" d="M387 961L388 962L387 961z"/>
<path style="fill:#422790; stroke:none;" d="M1489 961L1490 962L1489 961M1488 962L1489 963L1488 962M1487 963L1488 964L1487 963M1486 964L1487 965L1486 964M1485 965L1486 966L1485 965M1484 966L1485 967L1484 966M1483 967L1484 968L1483 967M1482 968L1483 969L1482 968M1481 969L1482 970L1481 969M1480 970L1481 971L1480 970M1479 971L1480 972L1479 971M1478 972L1479 973L1478 972M1477 973L1478 974L1477 973M1476 974L1477 975L1476 974M1475 975L1476 976L1475 975M1474 976L1475 977L1474 976M1473 977L1474 978L1473 977M1472 978L1473 979L1472 978z"/>
<path style="fill:#2e1c75; stroke:none;" d="M1972 978L1973 979L1972 978M42 979L43 980L42 979z"/>
<path style="fill:#422790; stroke:none;" d="M1471 979L1472 980L1471 979M1470 980L1471 981L1470 980M1469 981L1470 982L1469 981M40 982L41 983L40 982M1468 982L1469 983L1468 982M1467 983L1468 984L1467 983M1466 984L1467 985L1466 984M226 985L227 986L226 985M1465 985L1466 986L1465 985M1464 986L1465 987L1464 986M1463 987L1464 988L1463 987z"/>
<path style="fill:#2e1c75; stroke:none;" d="M36 988L37 989L36 988z"/>
<path style="fill:#422790; stroke:none;" d="M1462 988L1463 989L1462 988M1461 989L1462 990L1461 989M1460 990L1461 991L1460 990M1459 991L1460 992L1459 991M1458 992L1459 993L1458 992M389 993L390 994L389 993M1457 993L1458 994L1457 993M1456 994L1457 995L1456 994M1455 995L1456 996L1455 995M1454 996L1455 997L1454 996M1453 997L1454 998L1453 997z"/>
<path style="fill:#2e1c75; stroke:none;" d="M30 998L31 999L30 998z"/>
<path style="fill:#422790; stroke:none;" d="M1452 998L1453 999L1452 998M1451 999L1452 1000L1451 999M1450 1000L1451 1001L1450 1000M227 1001L228 1002L227 1001M1449 1001L1450 1002L1449 1001M1448 1002L1449 1003L1448 1002M1447 1003L1448 1004L1447 1003M1446 1004L1447 1005L1446 1004M1445 1005L1446 1006L1445 1005M1444 1006L1445 1007L1444 1006M1443 1007L1444 1008L1443 1007M1442 1008L1443 1009L1442 1008M1441 1009L1442 1010L1441 1009M1440 1010L1441 1011L1440 1010M1439 1011L1440 1012L1439 1011M1438 1012L1439 1013L1438 1012M1437 1013L1438 1014L1437 1013M1436 1014L1437 1015L1436 1014M1435 1015L1436 1016L1435 1015M1434 1016L1435 1017L1434 1016M228 1017L229 1018L228 1017M1433 1017L1434 1018L1433 1017M1432 1018L1433 1019L1432 1018M1431 1019L1432 1020L1431 1019z"/>
<path style="fill:#2e1c75; stroke:none;" d="M19 1020L20 1021L19 1020z"/>
<path style="fill:#422790; stroke:none;" d="M1430 1020L1431 1021L1430 1020M1429 1021L1430 1022L1429 1021M1428 1022L1429 1023L1428 1022M1427 1023L1428 1024L1427 1023M1426 1024L1427 1025L1426 1024M1425 1025L1426 1026L1425 1025M391 1026L392 1027L391 1026M1424 1026L1425 1027L1424 1026M1423 1027L1424 1028L1423 1027M1422 1028L1423 1029L1422 1028M1421 1029L1422 1030L1421 1029M15 1030L16 1031L15 1030M1420 1030L1421 1031L1420 1030M1419 1031L1420 1032L1419 1031M1418 1032L1419 1033L1418 1032M1417 1033L1418 1034L1417 1033M1416 1034L1417 1035L1416 1034M1415 1035L1416 1036L1415 1035M1414 1036L1415 1037L1414 1036M1413 1037L1414 1038L1413 1037z"/>
<path style="fill:#2e1c75; stroke:none;" d="M1979 1037L1980 1038L1979 1037z"/>
<path style="fill:#422790; stroke:none;" d="M1412 1038L1413 1039L1412 1038z"/>
<path style="fill:#ffffff; stroke:none;" d="M1979 1038C1979 1087.88 1962.72 1137.23 1932.35 1177C1914.5 1200.37 1891.75 1220.25 1871 1241L1782 1330L1205 1907L1027 2085L981 2131C973.675 2138.32 966.8 2147.38 956 2149L956 2150L1980 2150L1980 1360L1980 1133L1980 1067L1979 1038z"/>
<path style="fill:#422790; stroke:none;" d="M1411 1039L1412 1040L1411 1039M1410 1040L1411 1041L1410 1040z"/>
<path style="fill:#2e1c75; stroke:none;" d="M1745 1040L1746 1041L1745 1040z"/>
<path style="fill:#422790; stroke:none;" d="M1409 1041L1410 1042L1409 1041M1408 1042L1409 1043L1408 1042M1407 1043L1408 1044L1407 1043M1406 1044L1407 1045L1406 1044M1405 1045L1406 1046L1405 1045M1404 1046L1405 1047L1404 1046M1403 1047L1404 1048L1403 1047M9 1048L10 1049L9 1048M1402 1048L1403 1049L1402 1048M1401 1049L1402 1050L1401 1049M1400 1050L1401 1051L1400 1050M1399 1051L1400 1052L1399 1051M1398 1052L1399 1053L1398 1052M1397 1053L1398 1054L1397 1053M1396 1054L1397 1055L1396 1054M1395 1055L1396 1056L1395 1055M1394 1056L1395 1057L1394 1056M1393 1057L1394 1058L1393 1057M1392 1058L1393 1059L1392 1058M1391 1059L1392 1060L1391 1059M1390 1060L1391 1061L1390 1060M1389 1061L1390 1062L1389 1061M1388 1062L1389 1063L1388 1062M1387 1063L1388 1064L1387 1063M1386 1064L1387 1065L1386 1064M1385 1065L1386 1066L1385 1065M231 1066L232 1067L231 1066M1384 1066L1385 1067L1384 1066M1383 1067L1384 1068L1383 1067M1382 1068L1383 1069L1382 1068M1381 1069L1382 1070L1381 1069M1380 1070L1381 1071L1380 1070M1379 1071L1380 1072L1379 1071M1378 1072L1379 1073L1378 1072M1377 1073L1378 1074L1377 1073z"/>
<path style="fill:#2e1c75; stroke:none;" d="M3 1074L4 1075L3 1074z"/>
<path style="fill:#422790; stroke:none;" d="M1376 1074L1377 1075L1376 1074M1375 1075L1376 1076L1375 1075M1374 1076L1375 1077L1374 1076M1373 1077L1374 1078L1373 1077M1372 1078L1373 1079L1372 1078M1371 1079L1372 1080L1371 1079M1370 1080L1371 1081L1370 1080M1369 1081L1370 1082L1369 1081M232 1082L233 1083L232 1082M1368 1082L1369 1083L1368 1082M1367 1083L1368 1084L1367 1083M1366 1084L1367 1085L1366 1084M1365 1085L1366 1086L1365 1085M1364 1086L1365 1087L1364 1086M1363 1087L1364 1088L1363 1087M1362 1088L1363 1089L1362 1088M1 1089L2 1090L1 1089M1361 1089L1362 1090L1361 1089M1360 1090L1361 1091L1360 1090M395 1091L396 1092L395 1091M1359 1091L1360 1092L1359 1091M1358 1092L1359 1093L1358 1092M1357 1093L1358 1094L1357 1093M1356 1094L1357 1095L1356 1094M1355 1095L1356 1096L1355 1095M1354 1096L1355 1097L1354 1096M1353 1097L1354 1098L1353 1097M1352 1098L1353 1099L1352 1098M1351 1099L1352 1100L1351 1099M1350 1100L1351 1101L1350 1100M1349 1101L1350 1102L1349 1101M1348 1102L1349 1103L1348 1102M1347 1103L1348 1104L1347 1103M1346 1104L1347 1105L1346 1104M1345 1105L1346 1106L1345 1105z"/>
<path style="fill:#2e1c75; stroke:none;" d="M1749 1105L1750 1106L1749 1105z"/>
<path style="fill:#422790; stroke:none;" d="M1344 1106L1345 1107L1344 1106M396 1107L397 1108L396 1107M1343 1107L1344 1108L1343 1107M1342 1108L1343 1109L1342 1108M1341 1109L1342 1110L1341 1109M1340 1110L1341 1111L1340 1110M1339 1111L1340 1112L1339 1111M1338 1112L1339 1113L1338 1112z"/>
<path style="fill:#2e1c75; stroke:none;" d="M1587 1112L1588 1113L1587 1112z"/>
<path style="fill:#422790; stroke:none;" d="M1337 1113L1338 1114L1337 1113M1336 1114L1337 1115L1336 1114M1335 1115L1336 1116L1335 1115M1334 1116L1335 1117L1334 1116M1333 1117L1334 1118L1333 1117M1332 1118L1333 1119L1332 1118M1331 1119L1332 1120L1331 1119M1330 1120L1331 1121L1330 1120M1329 1121L1330 1122L1329 1121M1328 1122L1329 1123L1328 1122M1327 1123L1328 1124L1327 1123M1326 1124L1327 1125L1326 1124M1325 1125L1326 1126L1325 1125M0 1126L1 1127L0 1126M1324 1126L1325 1127L1324 1126z"/>
<path style="fill:#ffffff; stroke:none;" d="M0 1127L0 2150L946 2150L946 2149C928.126 2146.32 913.084 2124.08 901 2112L800 2011L675 1886C661.376 1872.38 633.586 1853.75 632.09 1833C630.692 1813.6 650.74 1800.26 663 1788L762 1689L1029 1422L1115 1336C1129.05 1321.95 1146.56 1308.23 1158 1292C1078.11 1302.15 998.589 1317.23 919 1329.58C775.323 1351.86 631.448 1373.37 488 1397.08C426.418 1407.26 364.581 1415.9 303 1426.08C287.021 1428.72 270.989 1431.02 255 1433.59C245.995 1435.04 235.888 1437.93 227 1434.53C212.743 1429.08 202.715 1414.92 192.83 1404C180.562 1390.44 166.929 1377.93 154 1365C107.478 1318.48 51.3733 1274.17 22.2585 1214C13.9462 1196.82 7.81782 1177.78 4.42438 1159C2.67389 1149.31 3.70085 1135.82 0 1127z"/>
<path style="fill:#422790; stroke:none;" d="M1323 1127L1324 1128L1323 1127M1322 1128L1323 1129L1322 1128M1321 1129L1322 1130L1321 1129M1320 1130L1321 1131L1320 1130M1319 1131L1320 1132L1319 1131M1318 1132L1319 1133L1318 1132M1317 1133L1318 1134L1317 1133M1316 1134L1317 1135L1316 1134M1315 1135L1316 1136L1315 1135M1314 1136L1315 1137L1314 1136M1313 1137L1314 1138L1313 1137M1312 1138L1313 1139L1312 1138z"/>
<path style="fill:#2e1c75; stroke:none;" d="M1 1139L2 1140L1 1139z"/>
<path style="fill:#422790; stroke:none;" d="M398 1139L399 1140L398 1139M1311 1139L1312 1140L1311 1139M1310 1140L1311 1141L1310 1140M1309 1141L1310 1142L1309 1141M1308 1142L1309 1143L1308 1142M1307 1143L1308 1144L1307 1143M1306 1144L1307 1145L1306 1144M1305 1145L1306 1146L1305 1145M1304 1146L1305 1147L1304 1146M2 1147L3 1148L2 1147z"/>
<path style="fill:#2e1c75; stroke:none;" d="M236 1147L237 1148L236 1147z"/>
<path style="fill:#422790; stroke:none;" d="M1303 1147L1304 1148L1303 1147M1302 1148L1303 1149L1302 1148M1301 1149L1302 1150L1301 1149z"/>
<path style="fill:#2e1c75; stroke:none;" d="M1950 1149L1951 1150L1950 1149z"/>
<path style="fill:#422790; stroke:none;" d="M1300 1150L1301 1151L1300 1150M1299 1151L1300 1152L1299 1151M1298 1152L1299 1153L1298 1152M1297 1153L1298 1154L1297 1153M1296 1154L1297 1155L1296 1154M1295 1155L1296 1156L1295 1155M1294 1156L1295 1157L1294 1156z"/>
<path style="fill:#2e1c75; stroke:none;" d="M1946 1156L1947 1157L1946 1156z"/>
<path style="fill:#422790; stroke:none;" d="M1293 1157L1294 1158L1293 1157M1292 1158L1293 1159L1292 1158M1291 1159L1292 1160L1291 1159M1290 1160L1291 1161L1290 1160M1289 1161L1290 1162L1289 1161M1288 1162L1289 1163L1288 1162M1287 1163L1288 1164L1287 1163M5 1164L6 1165L5 1164M1286 1164L1287 1165L1286 1164z"/>
<path style="fill:#2e1c75; stroke:none;" d="M1941 1164L1942 1165L1941 1164z"/>
<path style="fill:#422790; stroke:none;" d="M1285 1165L1286 1166L1285 1165M1284 1166L1285 1167L1284 1166M1283 1167L1284 1168L1283 1167z"/>
<path style="fill:#2e1c75; stroke:none;" d="M1939 1167L1940 1168L1939 1167z"/>
<path style="fill:#422790; stroke:none;" d="M1282 1168L1283 1169L1282 1168M1281 1169L1282 1170L1281 1169M1280 1170L1281 1171L1280 1170z"/>
<path style="fill:#2e1c75; stroke:none;" d="M1753 1170L1754 1171L1753 1170z"/>
<path style="fill:#422790; stroke:none;" d="M1279 1171L1280 1172L1279 1171z"/>
<path style="fill:#ffffff; stroke:none;" d="M1412 1171L1305 1278L1274 1309L1261.2 1323L1262 1349L1266.91 1427L1277.09 1599L1283 1695L1321 1658L1393 1586L1423 1556L1435.4 1542L1435.01 1524L1432.09 1477L1422.09 1315L1416.01 1215L1414.09 1185L1412 1171z"/>
<path style="fill:#422790; stroke:none;" d="M1278 1172L1279 1173L1278 1172M1277 1173L1278 1174L1277 1173M1276 1174L1277 1175L1276 1174M1275 1175L1276 1176L1275 1175M1274 1176L1275 1177L1274 1176M1273 1177L1274 1178L1273 1177z"/>
<path style="fill:#2e1c75; stroke:none;" d="M1591 1177L1592 1178L1591 1177z"/>
<path style="fill:#422790; stroke:none;" d="M1272 1178L1273 1179L1272 1178M1271 1179L1272 1180L1271 1179M1270 1180L1271 1181L1270 1180M1269 1181L1270 1182L1269 1181M1268 1182L1269 1183L1268 1182M1267 1183L1268 1184L1267 1183M1266 1184L1267 1185L1266 1184M1265 1185L1266 1186L1265 1185M1264 1186L1265 1187L1264 1186M1263 1187L1264 1188L1263 1187M1262 1188L1263 1189L1262 1188z"/>
<path style="fill:#2e1c75; stroke:none;" d="M1414 1188L1415 1189L1414 1188z"/>
<path style="fill:#422790; stroke:none;" d="M1261 1189L1262 1190L1261 1189M1260 1190L1261 1191L1260 1190M1259 1191L1260 1192L1259 1191M1258 1192L1259 1193L1258 1192M1257 1193L1258 1194L1257 1193M1256 1194L1257 1195L1256 1194M1255 1195L1256 1196L1255 1195M239 1196L240 1197L239 1196M1254 1196L1255 1197L1254 1196M1253 1197L1254 1198L1253 1197M1252 1198L1253 1199L1252 1198M1251 1199L1252 1200L1251 1199M1250 1200L1251 1201L1250 1200M1249 1201L1250 1202L1249 1201M1248 1202L1249 1203L1248 1202z"/>
<path style="fill:#2e1c75; stroke:none;" d="M17 1203L18 1204L17 1203z"/>
<path style="fill:#422790; stroke:none;" d="M1247 1203L1248 1204L1247 1203M1246 1204L1247 1205L1246 1204M1415 1204L1416 1205L1415 1204M1245 1205L1246 1206L1245 1205M1244 1206L1245 1207L1244 1206M1243 1207L1244 1208L1243 1207M1242 1208L1243 1209L1242 1208M1241 1209L1242 1210L1241 1209z"/>
<path style="fill:#2e1c75; stroke:none;" d="M20 1210L21 1211L20 1210z"/>
<path style="fill:#422790; stroke:none;" d="M1240 1210L1241 1211L1240 1210M1239 1211L1240 1212L1239 1211z"/>
<path style="fill:#2e1c75; stroke:none;" d="M240 1212L241 1213L240 1212z"/>
<path style="fill:#422790; stroke:none;" d="M1238 1212L1239 1213L1238 1212M1237 1213L1238 1214L1237 1213M1236 1214L1237 1215L1236 1214M1235 1215L1236 1216L1235 1215M1234 1216L1235 1217L1234 1216M1233 1217L1234 1218L1233 1217M1232 1218L1233 1219L1232 1218M1231 1219L1232 1220L1231 1219M1230 1220L1231 1221L1230 1220M1229 1221L1230 1222L1229 1221M1228 1222L1229 1223L1228 1222M1227 1223L1228 1224L1227 1223M1226 1224L1227 1225L1226 1224M1225 1225L1226 1226L1225 1225M1224 1226L1225 1227L1224 1226M1223 1227L1224 1228L1223 1227M29 1228L30 1229L29 1228M1222 1228L1223 1229L1222 1228M1221 1229L1222 1230L1221 1229M1220 1230L1221 1231L1220 1230M1219 1231C1199.88 1250.12 1175.56 1268.91 1160 1291L1204 1248L1219 1231z"/>
<path style="fill:#7c59fd; stroke:none;" d="M1219 1232L1220 1233L1219 1232M1218 1233L1219 1234L1218 1233M1217 1234L1218 1235L1217 1234M1216 1235L1217 1236L1216 1235M1215 1236L1216 1237L1215 1236M1214 1237L1215 1238L1214 1237M1213 1238L1214 1239L1213 1238M1212 1239L1213 1240L1212 1239M1211 1240L1212 1241L1211 1240M1210 1241L1211 1242L1210 1241M1209 1242L1210 1243L1209 1242z"/>
<path style="fill:#2e1c75; stroke:none;" d="M1595 1242L1596 1243L1595 1242z"/>
<path style="fill:#7c59fd; stroke:none;" d="M1208 1243L1209 1244L1208 1243M1207 1244L1208 1245L1207 1244M1206 1245L1207 1246L1206 1245M1205 1246L1206 1247L1205 1246M1204 1247L1205 1248L1204 1247M1203 1248L1204 1249L1203 1248M1202 1249L1203 1250L1202 1249M1201 1250L1202 1251L1201 1250z"/>
<path style="fill:#2e1c75; stroke:none;" d="M1728 1250L1729 1251L1728 1250z"/>
<path style="fill:#7c59fd; stroke:none;" d="M1200 1251L1201 1252L1200 1251z"/>
<path style="fill:#2e1c75; stroke:none;" d="M1727 1251L1728 1252L1727 1251z"/>
<path style="fill:#7c59fd; stroke:none;" d="M1199 1252L1200 1253L1199 1252z"/>
<path style="fill:#2e1c75; stroke:none;" d="M1726 1252L1727 1253L1726 1252z"/>
<path style="fill:#7c59fd; stroke:none;" d="M1198 1253L1199 1254L1198 1253z"/>
<path style="fill:#2e1c75; stroke:none;" d="M1418 1253L1419 1254L1418 1253M1725 1253L1726 1254L1725 1253z"/>
<path style="fill:#7c59fd; stroke:none;" d="M1197 1254L1198 1255L1197 1254M1328 1254L1329 1255L1328 1254z"/>
<path style="fill:#2e1c75; stroke:none;" d="M1724 1254L1725 1255L1724 1254z"/>
<path style="fill:#7c59fd; stroke:none;" d="M1196 1255L1197 1256L1196 1255M1327 1255L1328 1256L1327 1255z"/>
<path style="fill:#2e1c75; stroke:none;" d="M1723 1255L1724 1256L1723 1255z"/>
<path style="fill:#7c59fd; stroke:none;" d="M1195 1256L1196 1257L1195 1256M1326 1256L1327 1257L1326 1256z"/>
<path style="fill:#2e1c75; stroke:none;" d="M1722 1256L1723 1257L1722 1256z"/>
<path style="fill:#7c59fd; stroke:none;" d="M1194 1257L1195 1258L1194 1257M1325 1257L1326 1258L1325 1257z"/>
<path style="fill:#2e1c75; stroke:none;" d="M1721 1257L1722 1258L1721 1257z"/>
<path style="fill:#7c59fd; stroke:none;" d="M1193 1258L1194 1259L1193 1258M1324 1258L1325 1259L1324 1258z"/>
<path style="fill:#2e1c75; stroke:none;" d="M1720 1258L1721 1259L1720 1258z"/>
<path style="fill:#7c59fd; stroke:none;" d="M1192 1259L1193 1260L1192 1259M1323 1259L1324 1260L1323 1259z"/>
<path style="fill:#2e1c75; stroke:none;" d="M1719 1259L1720 1260L1719 1259z"/>
<path style="fill:#7c59fd; stroke:none;" d="M1191 1260L1192 1261L1191 1260M1322 1260L1323 1261L1322 1260z"/>
<path style="fill:#2e1c75; stroke:none;" d="M1718 1260L1719 1261L1718 1260z"/>
<path style="fill:#422790; stroke:none;" d="M243 1261L244 1262L243 1261z"/>
<path style="fill:#7c59fd; stroke:none;" d="M1190 1261L1191 1262L1190 1261M1321 1261L1322 1262L1321 1261z"/>
<path style="fill:#2e1c75; stroke:none;" d="M1717 1261L1718 1262L1717 1261M52 1262L53 1263L52 1262z"/>
<path style="fill:#7c59fd; stroke:none;" d="M1189 1262L1190 1263L1189 1262M1320 1262L1321 1263L1320 1262z"/>
<path style="fill:#2e1c75; stroke:none;" d="M1716 1262L1717 1263L1716 1262z"/>
<path style="fill:#422790; stroke:none;" d="M53 1263L54 1264L53 1263z"/>
<path style="fill:#7c59fd; stroke:none;" d="M1188 1263L1189 1264L1188 1263M1319 1263L1320 1264L1319 1263z"/>
<path style="fill:#2e1c75; stroke:none;" d="M1715 1263L1716 1264L1715 1263z"/>
<path style="fill:#7c59fd; stroke:none;" d="M1187 1264L1188 1265L1187 1264M1318 1264L1319 1265L1318 1264z"/>
<path style="fill:#2e1c75; stroke:none;" d="M1714 1264L1715 1265L1714 1264z"/>
<path style="fill:#7c59fd; stroke:none;" d="M1186 1265L1187 1266L1186 1265M1317 1265L1318 1266L1317 1265z"/>
<path style="fill:#2e1c75; stroke:none;" d="M1713 1265L1714 1266L1713 1265z"/>
<path style="fill:#7c59fd; stroke:none;" d="M1185 1266L1186 1267L1185 1266M1316 1266L1317 1267L1316 1266z"/>
<path style="fill:#2e1c75; stroke:none;" d="M1712 1266L1713 1267L1712 1266z"/>
<path style="fill:#7c59fd; stroke:none;" d="M1184 1267L1185 1268L1184 1267z"/>
<path style="fill:#2e1c75; stroke:none;" d="M1711 1267L1712 1268L1711 1267z"/>
<path style="fill:#7c59fd; stroke:none;" d="M1183 1268L1184 1269L1183 1268z"/>
<path style="fill:#2e1c75; stroke:none;" d="M1710 1268L1711 1269L1710 1268M58 1269L59 1270L58 1269z"/>
<path style="fill:#7c59fd; stroke:none;" d="M1182 1269L1183 1270L1182 1269z"/>
<path style="fill:#422790; stroke:none;" d="M1419 1269L1420 1270L1419 1269z"/>
<path style="fill:#2e1c75; stroke:none;" d="M1709 1269L1710 1270L1709 1269z"/>
<path style="fill:#7c59fd; stroke:none;" d="M1181 1270L1182 1271L1181 1270z"/>
<path style="fill:#2e1c75; stroke:none;" d="M1708 1270L1709 1271L1708 1270z"/>
<path style="fill:#7c59fd; stroke:none;" d="M1180 1271L1181 1272L1180 1271z"/>
<path style="fill:#2e1c75; stroke:none;" d="M1707 1271L1708 1272L1707 1271z"/>
<path style="fill:#7c59fd; stroke:none;" d="M1179 1272L1180 1273L1179 1272z"/>
<path style="fill:#2e1c75; stroke:none;" d="M1706 1272L1707 1273L1706 1272z"/>
<path style="fill:#7c59fd; stroke:none;" d="M1178 1273L1179 1274L1178 1273z"/>
<path style="fill:#2e1c75; stroke:none;" d="M1705 1273L1706 1274L1705 1273z"/>
<path style="fill:#7c59fd; stroke:none;" d="M1177 1274L1178 1275L1177 1274z"/>
<path style="fill:#2e1c75; stroke:none;" d="M1704 1274L1705 1275L1704 1274z"/>
<path style="fill:#7c59fd; stroke:none;" d="M1176 1275L1177 1276L1176 1275z"/>
<path style="fill:#2e1c75; stroke:none;" d="M1703 1275L1704 1276L1703 1275z"/>
<path style="fill:#7c59fd; stroke:none;" d="M1175 1276L1176 1277L1175 1276z"/>
<path style="fill:#2e1c75; stroke:none;" d="M1702 1276L1703 1277L1702 1276M244 1277L245 1278L244 1277z"/>
<path style="fill:#7c59fd; stroke:none;" d="M1174 1277L1175 1278L1174 1277z"/>
<path style="fill:#2e1c75; stroke:none;" d="M1701 1277L1702 1278L1701 1277z"/>
<path style="fill:#7c59fd; stroke:none;" d="M1173 1278L1174 1279L1173 1278z"/>
<path style="fill:#2e1c75; stroke:none;" d="M1700 1278L1701 1279L1700 1278z"/>
<path style="fill:#7c59fd; stroke:none;" d="M1172 1279L1173 1280L1172 1279z"/>
<path style="fill:#2e1c75; stroke:none;" d="M1699 1279L1700 1280L1699 1279z"/>
<path style="fill:#7c59fd; stroke:none;" d="M1171 1280L1172 1281L1171 1280z"/>
<path style="fill:#2e1c75; stroke:none;" d="M1698 1280L1699 1281L1698 1280z"/>
<path style="fill:#7c59fd; stroke:none;" d="M1170 1281L1171 1282L1170 1281z"/>
<path style="fill:#2e1c75; stroke:none;" d="M1697 1281L1698 1282L1697 1281z"/>
<path style="fill:#7c59fd; stroke:none;" d="M1169 1282L1170 1283L1169 1282z"/>
<path style="fill:#2e1c75; stroke:none;" d="M1696 1282L1697 1283L1696 1282z"/>
<path style="fill:#7c59fd; stroke:none;" d="M1168 1283L1169 1284L1168 1283z"/>
<path style="fill:#2e1c75; stroke:none;" d="M1695 1283L1696 1284L1695 1283z"/>
<path style="fill:#7c59fd; stroke:none;" d="M1167 1284L1168 1285L1167 1284z"/>
<path style="fill:#2e1c75; stroke:none;" d="M1694 1284L1695 1285L1694 1284z"/>
<path style="fill:#7c59fd; stroke:none;" d="M1166 1285L1167 1286L1166 1285z"/>
<path style="fill:#2e1c75; stroke:none;" d="M1693 1285L1694 1286L1693 1285z"/>
<path style="fill:#7c59fd; stroke:none;" d="M1165 1286L1166 1287L1165 1286z"/>
<path style="fill:#2e1c75; stroke:none;" d="M1692 1286L1693 1287L1692 1286z"/>
<path style="fill:#7c59fd; stroke:none;" d="M1164 1287L1165 1288L1164 1287z"/>
<path style="fill:#2e1c75; stroke:none;" d="M1691 1287L1692 1288L1691 1287z"/>
<path style="fill:#7c59fd; stroke:none;" d="M1163 1288L1164 1289L1163 1288z"/>
<path style="fill:#2e1c75; stroke:none;" d="M1690 1288L1691 1289L1690 1288z"/>
<path style="fill:#7c59fd; stroke:none;" d="M1162 1289L1163 1290L1162 1289z"/>
<path style="fill:#2e1c75; stroke:none;" d="M1689 1289L1690 1290L1689 1289z"/>
<path style="fill:#7c59fd; stroke:none;" d="M1161 1290L1162 1291L1161 1290z"/>
<path style="fill:#2e1c75; stroke:none;" d="M1688 1290L1689 1291L1688 1290z"/>
<path style="fill:#422790; stroke:none;" d="M1159 1291L1160 1292L1159 1291z"/>
<path style="fill:#2e1c75; stroke:none;" d="M1687 1291L1688 1292L1687 1291M1686 1292L1687 1293L1686 1292M1685 1293L1686 1294L1685 1293M1684 1294L1685 1295L1684 1294M1683 1295L1684 1296L1683 1295M1682 1296L1683 1297L1682 1296M1681 1297L1682 1298L1681 1297M1680 1298L1681 1299L1680 1298M1679 1299L1680 1300L1679 1299M1678 1300L1679 1301L1678 1300M1677 1301L1678 1302L1677 1301M1676 1302L1677 1303L1676 1302M1675 1303L1676 1304L1675 1303z"/>
<path style="fill:#7c59fd; stroke:none;" d="M1147 1304L1148 1305L1147 1304z"/>
<path style="fill:#2e1c75; stroke:none;" d="M1674 1304L1675 1305L1674 1304z"/>
<path style="fill:#7c59fd; stroke:none;" d="M1146 1305C1017.52 1433.47 888.499 1561.5 760 1690L664 1786C651.973 1798.03 632.144 1811.33 632.005 1830C631.896 1844.58 641.361 1852.36 651 1862L696 1907L835 2046C856.978 2067.98 878.615 2096.12 904 2114C917.34 2072.99 929.316 2031.39 941.424 1990C946.665 1972.08 957.789 1950.38 957.657 1931.59C957.169 1861.84 948.014 1791.72 944.961 1722C944.221 1705.11 943.432 1687.83 941.83 1671C941.152 1663.87 938.148 1651.75 940.604 1645C942.593 1639.53 948.992 1635.01 953 1631L983 1601C1018.23 1565.77 1058.65 1531.95 1089.72 1493C1096.38 1484.65 1097.89 1470.09 1101.03 1460C1109.28 1433.42 1117.44 1406.75 1125.14 1380C1130.34 1361.94 1136.15 1344.04 1141.42 1326C1143.14 1320.14 1148.1 1310.92 1146 1305z"/>
<path style="fill:#2e1c75; stroke:none;" d="M1673 1305L1674 1306L1673 1305M1672 1306L1673 1307L1672 1306M1599 1307L1600 1308L1599 1307M1671 1307L1672 1308L1671 1307M1670 1308L1671 1309L1670 1308M1669 1309L1670 1310L1669 1309M1668 1310L1669 1311L1668 1310M1667 1311L1668 1312L1667 1311M1666 1312L1667 1313L1666 1312M1665 1313L1666 1314L1665 1313M1664 1314L1665 1315L1664 1314M1663 1315L1664 1316L1663 1315M1662 1316L1663 1317L1662 1316M1661 1317L1662 1318L1661 1317M1422 1318L1423 1319L1422 1318M1660 1318L1661 1319L1660 1318M1659 1319L1660 1320L1659 1319M1658 1320L1659 1321L1658 1320M1657 1321L1658 1322L1657 1321M1656 1322L1657 1323L1656 1322M1655 1323L1656 1324L1655 1323M1654 1324L1655 1325L1654 1324M1260 1325L1261 1326L1260 1325M1653 1325L1654 1326L1653 1325M1652 1326L1653 1327L1652 1326M1651 1327L1652 1328L1651 1327M1650 1328L1651 1329L1650 1328M1649 1329L1650 1330L1649 1329M1648 1330L1649 1331L1648 1330M1647 1331L1648 1332L1647 1331M1646 1332L1647 1333L1646 1332M1645 1333L1646 1334L1645 1333z"/>
<path style="fill:#422790; stroke:none;" d="M1423 1334L1424 1335L1423 1334z"/>
<path style="fill:#2e1c75; stroke:none;" d="M1644 1334L1645 1335L1644 1334M1643 1335L1644 1336L1643 1335M1642 1336L1643 1337L1642 1336M1641 1337L1642 1338L1641 1337M1640 1338L1641 1339L1640 1338M1639 1339L1640 1340L1639 1339M1638 1340L1639 1341L1638 1340M1637 1341L1638 1342L1637 1341M1636 1342L1637 1343L1636 1342M1635 1343L1636 1344L1635 1343M1634 1344L1635 1345L1634 1344M1633 1345L1634 1346L1633 1345M1632 1346L1633 1347L1632 1346M802 1347L802 1348L805 1348L802 1347M1631 1347L1632 1348L1631 1347M794 1348L794 1349L798 1349L794 1348M1630 1348L1631 1349L1630 1348M786 1349L787 1350L786 1349M788 1349L789 1350L788 1349M790.667 1349.33L791.333 1349.67L790.667 1349.33M1629 1349L1630 1350L1629 1349M783 1350L783 1351L786 1351L783 1350M1628 1350L1629 1351L1628 1350M777.667 1351.33L778.333 1351.67L777.667 1351.33M1627 1351L1628 1352L1627 1351M770 1352L770 1353L773 1353L770 1352M1626 1352L1627 1353L1626 1352M764 1353L764 1354L767 1354L764 1353M1625 1353L1626 1354L1625 1353M758.667 1354.33L759.333 1354.67L758.667 1354.33M1624 1354L1625 1355L1624 1354M752.667 1355.33L753.333 1355.67L752.667 1355.33M1623 1355L1624 1356L1623 1355M746 1356L747 1357L746 1356M1622 1356L1623 1357L1622 1356M739.667 1357.33L740.333 1357.67L739.667 1357.33M1621 1357L1622 1358L1621 1357M733.667 1358.33L734.333 1358.67L733.667 1358.33z"/>
<path style="fill:#7c59fd; stroke:none;" d="M1262 1358L1263 1359L1262 1358z"/>
<path style="fill:#2e1c75; stroke:none;" d="M1620 1358L1621 1359L1620 1358M727 1359L728 1360L727 1359M1619 1359L1620 1360L1619 1359M721 1360L722 1361L721 1360M1618 1360L1619 1361L1618 1360M714.667 1361.33L715.333 1361.67L714.667 1361.33M1617 1361L1618 1362L1617 1361M707.667 1362.33L708.333 1362.67L707.667 1362.33M1616 1362L1617 1363L1616 1362M702 1363L703 1364L702 1363M1615 1363L1616 1364L1615 1363M695 1364L696 1365L695 1364M1614 1364L1615 1365L1614 1364M689 1365L690 1366L689 1365M1613 1365L1614 1366L1613 1365M683 1366L684 1367L683 1366M1612 1366L1613 1367L1612 1366M676 1367L677 1368L676 1367M1611 1367L1612 1368L1611 1367M670 1368L671 1369L670 1368M1610 1368L1611 1369L1610 1368M663 1369L664 1370L663 1369M1609 1369L1610 1370L1609 1369M657 1370L658 1371L657 1370M1608 1370L1609 1371L1608 1370M651 1371L652 1372L651 1371M1607 1371L1608 1372L1607 1371M644 1372L645 1373L644 1372M1603 1372L1604 1373L1603 1372M1606 1372L1607 1373L1606 1372M638 1373L639 1374L638 1373M1605 1373L1606 1374L1605 1373M632 1374L633 1375L632 1374M1604 1374L1605 1375L1604 1374M625 1375L626 1376L625 1375M619 1376L620 1377L619 1376M606 1378L607 1379L606 1378M600 1379L601 1380L600 1379M593 1380L594 1381L593 1380M587 1381L588 1382L587 1381M581 1382L582 1383L581 1382M574 1383L575 1384L574 1383M1426 1383L1427 1384L1426 1383M568 1384L569 1385L568 1384M555 1386L556 1387L555 1386M549 1387L550 1388L549 1387M530 1390L531 1391L530 1390M517 1392L518 1393L517 1392M504 1394L505 1395L504 1394M498 1395L499 1396L498 1395M479 1398L480 1399L479 1398M466 1400L467 1401L466 1400M453 1402L454 1403L453 1402M447 1403L448 1404L447 1403M428 1406L429 1407L428 1406M195 1407L196 1408L195 1407M196 1408L197 1409L196 1408M415 1408L416 1409L415 1408M396 1411L397 1412L396 1411M377 1414L378 1415L377 1414M364 1416L365 1417L364 1416M206 1419L207 1420L206 1419M345 1419L346 1420L345 1419M207 1420L208 1421L207 1420M208 1421L209 1422L208 1421M209 1422L210 1423L209 1422M326 1422L327 1423L326 1422M210 1423L211 1424L210 1423M211 1424L212 1425L211 1424M313 1424L314 1425L313 1424M294 1427L295 1428L294 1427M217 1429L218 1430L217 1429M275 1430L276 1431L275 1430M262 1432L263 1433L262 1432M243 1435L244 1436L243 1435z"/>
<path style="fill:#ffffff; stroke:none;" d="M1092 1491L984 1599L954 1629L940.603 1644L941.961 1674L946.911 1754L963 2015L1000 1979L1069 1910L1100 1879L1114.97 1863L1114.09 1837L1110.09 1772L1098.09 1576L1094.29 1513L1092 1491z"/>
<path style="fill:#7c59fd; stroke:none;" d="M1093 1498L1094 1499L1093 1498z"/>
<path style="fill:#2e1c75; stroke:none;" d="M1271 1504L1272 1505L1271 1504z"/>
<path style="fill:#7c59fd; stroke:none;" d="M1094 1514L1095 1515L1094 1514M1095 1530L1096 1531L1095 1530z"/>
<path style="fill:#2e1c75; stroke:none;" d="M1435 1543L1436 1544L1435 1543M1434 1544L1435 1545L1434 1544z"/>
<path style="fill:#7c59fd; stroke:none;" d="M1096.33 1545.67L1096.67 1546.33L1096.33 1545.67z"/>
<path style="fill:#2e1c75; stroke:none;" d="M1433 1545L1434 1546L1433 1545M1432 1546L1433 1547L1432 1546M1431 1547L1432 1548L1431 1547M1430 1548L1431 1549L1430 1548M1429 1549L1430 1550L1429 1549M1428 1550L1429 1551L1428 1550M1427 1551L1428 1552L1427 1551M1426 1552L1427 1553L1426 1552z"/>
<path style="fill:#422790; stroke:none;" d="M1274 1553L1275 1554L1274 1553z"/>
<path style="fill:#2e1c75; stroke:none;" d="M1425 1553L1426 1554L1425 1553M1424 1554L1425 1555L1424 1554M1423 1555L1424 1556L1423 1555M1422 1556L1423 1557L1422 1556M1421 1557L1422 1558L1421 1557M1420 1558L1421 1559L1420 1558M1419 1559L1420 1560L1419 1559M1418 1560L1419 1561L1418 1560z"/>
<path style="fill:#7c59fd; stroke:none;" d="M1097 1561L1097 1564L1098 1564L1097 1561z"/>
<path style="fill:#2e1c75; stroke:none;" d="M1417 1561L1418 1562L1417 1561M1416 1562L1417 1563L1416 1562M1415 1563L1416 1564L1415 1563M1414 1564L1415 1565L1414 1564M1413 1565L1414 1566L1413 1565M1412 1566L1413 1567L1412 1566M1411 1567L1412 1568L1411 1567M1410 1568L1411 1569L1410 1568M1275 1569L1276 1570L1275 1569M1409 1569L1410 1570L1409 1569M1408 1570L1409 1571L1408 1570M1407 1571L1408 1572L1407 1571M1406 1572L1407 1573L1406 1572M1405 1573L1406 1574L1405 1573M1404 1574L1405 1575L1404 1574M1403 1575L1404 1576L1403 1575M1402 1576L1403 1577L1402 1576M1401 1577L1402 1578L1401 1577M1400 1578L1401 1579L1400 1578z"/>
<path style="fill:#7c59fd; stroke:none;" d="M1098 1579L1099 1580L1098 1579z"/>
<path style="fill:#2e1c75; stroke:none;" d="M1399 1579L1400 1580L1399 1579M1398 1580L1399 1581L1398 1580M1397 1581L1398 1582L1397 1581M1396 1582L1397 1583L1396 1582M1395 1583L1396 1584L1395 1583M1394 1584L1395 1585L1394 1584M1393 1585L1394 1586L1393 1585M1392 1586L1393 1587L1392 1586M1391 1587L1392 1588L1391 1587M1390 1588L1391 1589L1390 1588M1389 1589L1390 1590L1389 1589M1388 1590L1389 1591L1388 1590M1387 1591L1388 1592L1387 1591M1386 1592L1387 1593L1386 1592M1385 1593L1386 1594L1385 1593M1384 1594L1385 1595L1384 1594z"/>
<path style="fill:#7c59fd; stroke:none;" d="M1099 1595L1100 1596L1099 1595z"/>
<path style="fill:#2e1c75; stroke:none;" d="M1383 1595L1384 1596L1383 1595M1382 1596L1383 1597L1382 1596M1381 1597L1382 1598L1381 1597M1380 1598L1381 1599L1380 1598M1379 1599L1380 1600L1379 1599M1378 1600L1379 1601L1378 1600M1377 1601L1378 1602L1377 1601M1376 1602L1377 1603L1376 1602M1375 1603L1376 1604L1375 1603M1374 1604L1375 1605L1374 1604M1373 1605L1374 1606L1373 1605M1372 1606L1373 1607L1372 1606M1371 1607L1372 1608L1371 1607M1370 1608L1371 1609L1370 1608M1369 1609L1370 1610L1369 1609M1368 1610L1369 1611L1368 1610z"/>
<path style="fill:#7c59fd; stroke:none;" d="M1100 1611L1101 1612L1100 1611z"/>
<path style="fill:#2e1c75; stroke:none;" d="M1367 1611L1368 1612L1367 1611M1366 1612L1367 1613L1366 1612M1365 1613L1366 1614L1365 1613M1364 1614L1365 1615L1364 1614M1363 1615L1364 1616L1363 1615M1362 1616L1363 1617L1362 1616M1361 1617L1362 1618L1361 1617z"/>
<path style="fill:#422790; stroke:none;" d="M1278 1618L1279 1619L1278 1618z"/>
<path style="fill:#2e1c75; stroke:none;" d="M1360 1618L1361 1619L1360 1618M1359 1619L1360 1620L1359 1619M1358 1620L1359 1621L1358 1620M1357 1621L1358 1622L1357 1621M1356 1622L1357 1623L1356 1622M1355 1623L1356 1624L1355 1623M1354 1624L1355 1625L1354 1624M1353 1625L1354 1626L1353 1625M1352 1626L1353 1627L1352 1626z"/>
<path style="fill:#7c59fd; stroke:none;" d="M1101 1627L1102 1628L1101 1627z"/>
<path style="fill:#2e1c75; stroke:none;" d="M1351 1627L1352 1628L1351 1627M1350 1628L1351 1629L1350 1628M1349 1629L1350 1630L1349 1629M1348 1630L1349 1631L1348 1630M1347 1631L1348 1632L1347 1631M1346 1632L1347 1633L1346 1632M1345 1633L1346 1634L1345 1633M1279 1634L1280 1635L1279 1634M1344 1634L1345 1635L1344 1634M1343 1635L1344 1636L1343 1635M1342 1636L1343 1637L1342 1636M1341 1637L1342 1638L1341 1637M1340 1638L1341 1639L1340 1638M1339 1639L1340 1640L1339 1639M1338 1640L1339 1641L1338 1640M1337 1641L1338 1642L1337 1641M1336 1642L1337 1643L1336 1642M1335 1643L1336 1644L1335 1643M1334 1644L1335 1645L1334 1644M1333 1645L1334 1646L1333 1645M1332 1646L1333 1647L1332 1646M1331 1647L1332 1648L1331 1647M1330 1648L1331 1649L1330 1648M1329 1649L1330 1650L1329 1649M1328 1650L1329 1651L1328 1650M1327 1651L1328 1652L1327 1651M940 1652L941 1653L940 1652M1326 1652L1327 1653L1326 1652M1325 1653L1326 1654L1325 1653M1324 1654L1325 1655L1324 1654M1323 1655L1324 1656L1323 1655M1322 1656L1323 1657L1322 1656M1321 1657L1322 1658L1321 1657M1320 1658L1321 1659L1320 1658M1319 1659L1320 1660L1319 1659M1318 1660L1319 1661L1318 1660M1317 1661L1318 1662L1317 1661M1316 1662L1317 1663L1316 1662M1315 1663L1316 1664L1315 1663M1314 1664L1315 1665L1314 1664M1313 1665L1314 1666L1313 1665M1312 1666L1313 1667L1312 1666M1311 1667L1312 1668L1311 1667M1310 1668L1311 1669L1310 1668M1309 1669L1310 1670L1309 1669M1308 1670L1309 1671L1308 1670M1307 1671L1308 1672L1307 1671M1306 1672L1307 1673L1306 1672M1305 1673L1306 1674L1305 1673M1304 1674L1305 1675L1304 1674M1303 1675L1304 1676L1303 1675M1302 1676L1303 1677L1302 1676z"/>
<path style="fill:#7c59fd; stroke:none;" d="M1104 1677L1105 1678L1104 1677z"/>
<path style="fill:#2e1c75; stroke:none;" d="M1301 1677L1302 1678L1301 1677M1300 1678L1301 1679L1300 1678M1299 1679L1300 1680L1299 1679M1298 1680L1299 1681L1298 1680M1297 1681L1298 1682L1297 1681M1296 1682L1297 1683L1296 1682M1295 1683L1296 1684L1295 1683M1294 1684L1295 1685L1294 1684M1293 1685L1294 1686L1293 1685M1292 1686L1293 1687L1292 1686M1291 1687L1292 1688L1291 1687M1290 1688L1291 1689L1290 1688M1289 1689L1290 1690L1289 1689M1288 1690L1289 1691L1288 1690M1287 1691L1288 1692L1287 1691M1286 1692L1287 1693L1286 1692M1285 1693L1286 1694L1285 1693M1284 1694L1285 1695L1284 1694M1283 1695L1284 1696L1283 1695z"/>
<path style="fill:#422790; stroke:none;" d="M943 1701L944 1702L943 1701z"/>
<path style="fill:#2e1c75; stroke:none;" d="M1106 1710L1107 1711L1106 1710M944 1717L945 1718L944 1717z"/>
<path style="fill:#7c59fd; stroke:none;" d="M1108 1742L1109 1743L1108 1742M1109 1758L1110 1759L1109 1758z"/>
<path style="fill:#422790; stroke:none;" d="M947 1766L948 1767L947 1766z"/>
<path style="fill:#2e1c75; stroke:none;" d="M1110 1775L1111 1776L1110 1775M948 1782L949 1783L948 1782z"/>
<path style="fill:#422790; stroke:none;" d="M1111 1791L1112 1792L1111 1791z"/>
<path style="fill:#7c59fd; stroke:none;" d="M1112 1807L1113 1808L1112 1807z"/>
<path style="fill:#422790; stroke:none;" d="M635 1816L636 1817L635 1816z"/>
<path style="fill:#7c59fd; stroke:none;" d="M1113 1823L1114 1824L1113 1823z"/>
<path style="fill:#422790; stroke:none;" d="M951 1831L952 1832L951 1831z"/>
<path style="fill:#2e1c75; stroke:none;" d="M1114 1840L1115 1841L1114 1840M952 1847L953 1848L952 1847M639 1850L640 1851L639 1850M640 1851L641 1852L640 1851M641 1852L642 1853L641 1852M642 1853L643 1854L642 1853M643 1854L644 1855L643 1854M644 1855L645 1856L644 1855M645 1856L646 1857L645 1856z"/>
<path style="fill:#422790; stroke:none;" d="M1115 1856L1116 1857L1115 1856z"/>
<path style="fill:#2e1c75; stroke:none;" d="M646 1857L647 1858L646 1857M647 1858L648 1859L647 1858M648 1859L649 1860L648 1859M649 1860L650 1861L649 1860M650 1861L651 1862L650 1861M651 1862L652 1863L651 1862M652 1863L653 1864L652 1863M1115 1863L1116 1864L1115 1863M653 1864L654 1865L653 1864M1114 1864L1115 1865L1114 1864M654 1865L655 1866L654 1865M1113 1865L1114 1866L1113 1865M655 1866L656 1867L655 1866M1112 1866L1113 1867L1112 1866M656 1867L657 1868L656 1867M1111 1867L1112 1868L1111 1867M657 1868L658 1869L657 1868M1110 1868L1111 1869L1110 1868M658 1869L659 1870L658 1869M1109 1869L1110 1870L1109 1869M659 1870L660 1871L659 1870M1108 1870L1109 1871L1108 1870M660 1871L661 1872L660 1871M1107 1871L1108 1872L1107 1871M661 1872L662 1873L661 1872M1106 1872L1107 1873L1106 1872M662 1873L663 1874L662 1873M1105 1873L1106 1874L1105 1873M663 1874L664 1875L663 1874M1104 1874L1105 1875L1104 1874M664 1875L665 1876L664 1875M1103 1875L1104 1876L1103 1875M665 1876L666 1877L665 1876M1102 1876L1103 1877L1102 1876M666 1877L667 1878L666 1877M1101 1877L1102 1878L1101 1877M667 1878L668 1879L667 1878M1100 1878L1101 1879L1100 1878M668 1879L669 1880L668 1879M1099 1879L1100 1880L1099 1879M669 1880L670 1881L669 1880M1098 1880L1099 1881L1098 1880M670 1881L671 1882L670 1881M1097 1881L1098 1882L1097 1881M671 1882L672 1883L671 1882M1096 1882L1097 1883L1096 1882M672 1883L673 1884L672 1883M1095 1883L1096 1884L1095 1883M673 1884L674 1885L673 1884M1094 1884L1095 1885L1094 1884M674 1885L675 1886L674 1885M1093 1885L1094 1886L1093 1885M675 1886L676 1887L675 1886M1092 1886L1093 1887L1092 1886M676 1887L677 1888L676 1887M1091 1887L1092 1888L1091 1887M677 1888L678 1889L677 1888M1090 1888L1091 1889L1090 1888M678 1889L679 1890L678 1889M1089 1889L1090 1890L1089 1889M679 1890L680 1891L679 1890M1088 1890L1089 1891L1088 1890M680 1891L681 1892L680 1891M1087 1891L1088 1892L1087 1891M681 1892L682 1893L681 1892M1086 1892L1087 1893L1086 1892M682 1893L683 1894L682 1893M1085 1893L1086 1894L1085 1893M683 1894L684 1895L683 1894M1084 1894L1085 1895L1084 1894M684 1895L685 1896L684 1895M1083 1895L1084 1896L1083 1895M685 1896L686 1897L685 1896z"/>
<path style="fill:#422790; stroke:none;" d="M955 1896L956 1897L955 1896z"/>
<path style="fill:#2e1c75; stroke:none;" d="M1082 1896L1083 1897L1082 1896M686 1897L687 1898L686 1897M1081 1897L1082 1898L1081 1897M687 1898L688 1899L687 1898M1080 1898L1081 1899L1080 1898M688 1899L689 1900L688 1899M1079 1899L1080 1900L1079 1899M689 1900L690 1901L689 1900M1078 1900L1079 1901L1078 1900M690 1901L691 1902L690 1901M1077 1901L1078 1902L1077 1901M691 1902L692 1903L691 1902M1076 1902L1077 1903L1076 1902M692 1903L693 1904L692 1903z"/>
<path style="fill:#49b0fb; stroke:none;" d="M955 1903L956 1904L955 1903z"/>
<path style="fill:#2e1c75; stroke:none;" d="M1075 1903L1076 1904L1075 1903M693 1904L694 1905L693 1904M1074 1904L1075 1905L1074 1904M694 1905L695 1906L694 1905M1073 1905L1074 1906L1073 1905M695 1906L696 1907L695 1906M1072 1906L1073 1907L1072 1906M696 1907L697 1908L696 1907M1071 1907L1072 1908L1071 1907M697 1908L698 1909L697 1908M1070 1908L1071 1909L1070 1908M698 1909L699 1910L698 1909M1069 1909L1070 1910L1069 1909M699 1910L700 1911L699 1910M1068 1910L1069 1911L1068 1910M700 1911L701 1912L700 1911M1067 1911L1068 1912L1067 1911M701 1912L702 1913L701 1912M956 1912L957 1913L956 1912M1066 1912L1067 1913L1066 1912M702 1913L703 1914L702 1913M1065 1913L1066 1914L1065 1913M703 1914L704 1915L703 1914M1064 1914L1065 1915L1064 1914M704 1915L705 1916L704 1915z"/>
<path style="fill:#49b0fb; stroke:none;" d="M956 1915L956 1921L957 1921L956 1915z"/>
<path style="fill:#2e1c75; stroke:none;" d="M1063 1915L1064 1916L1063 1915M705 1916L706 1917L705 1916M1062 1916L1063 1917L1062 1916M706 1917L707 1918L706 1917M1061 1917L1062 1918L1061 1917M707 1918L708 1919L707 1918M1060 1918L1061 1919L1060 1918M708 1919L709 1920L708 1919M1059 1919L1060 1920L1059 1919M709 1920L710 1921L709 1920M1058 1920L1059 1921L1058 1920M710 1921L711 1922L710 1921M1057 1921L1058 1922L1057 1921M711 1922L712 1923L711 1922z"/>
<path style="fill:#49b0fb; stroke:none;" d="M956.333 1922.67L956.667 1923.33L956.333 1922.67z"/>
<path style="fill:#2e1c75; stroke:none;" d="M1056 1922L1057 1923L1056 1922M712 1923L713 1924L712 1923M1055 1923L1056 1924L1055 1923M713 1924L714 1925L713 1924M1054 1924L1055 1925L1054 1924M714 1925L715 1926L714 1925M1053 1925L1054 1926L1053 1925M715 1926L716 1927L715 1926M1052 1926L1053 1927L1052 1926M716 1927L717 1928L716 1927z"/>
<path style="fill:#49b0fb; stroke:none;" d="M956 1927L957 1928L956 1927z"/>
<path style="fill:#2e1c75; stroke:none;" d="M1051 1927L1052 1928L1051 1927M717 1928L718 1929L717 1928M1050 1928L1051 1929L1050 1928M718 1929L719 1930L718 1929M1049 1929L1050 1930L1049 1929M719 1930L720 1931L719 1930M1048 1930L1049 1931L1048 1930M720 1931L721 1932L720 1931M1047 1931L1048 1932L1047 1931M721 1932L722 1933L721 1932z"/>
<path style="fill:#49b0fb; stroke:none;" d="M957 1932L958 1933L957 1932z"/>
<path style="fill:#2e1c75; stroke:none;" d="M1046 1932L1047 1933L1046 1932M722 1933L723 1934L722 1933M1045 1933L1046 1934L1045 1933M723 1934L724 1935L723 1934M1044 1934L1045 1935L1044 1934M724 1935L725 1936L724 1935M1043 1935L1044 1936L1043 1935M725 1936L726 1937L725 1936M1042 1936L1043 1937L1042 1936M726 1937L727 1938L726 1937M1041 1937L1042 1938L1041 1937M727 1938L728 1939L727 1938M1040 1938L1041 1939L1040 1938M728 1939L729 1940L728 1939M1039 1939L1040 1940L1039 1939M729 1940L730 1941L729 1940M1038 1940L1039 1941L1038 1940M730 1941L731 1942L730 1941M1037 1941L1038 1942L1037 1941M731 1942L732 1943L731 1942M1036 1942L1037 1943L1036 1942M732 1943L733 1944L732 1943M1035 1943L1036 1944L1035 1943M733 1944L734 1945L733 1944M1034 1944L1035 1945L1034 1944M734 1945L735 1946L734 1945M1033 1945L1034 1946L1033 1945M735 1946L736 1947L735 1946M1032 1946L1033 1947L1032 1946M736 1947L737 1948L736 1947z"/>
<path style="fill:#7c59fd; stroke:none;" d="M958 1947L959 1948L958 1947z"/>
<path style="fill:#2e1c75; stroke:none;" d="M1031 1947L1032 1948L1031 1947M737 1948L738 1949L737 1948M1030 1948L1031 1949L1030 1948M738 1949L739 1950L738 1949M1029 1949L1030 1950L1029 1949M739 1950L740 1951L739 1950M1028 1950L1029 1951L1028 1950M740 1951L741 1952L740 1951M1027 1951L1028 1952L1027 1951M741 1952L742 1953L741 1952M1026 1952L1027 1953L1026 1952M742 1953L743 1954L742 1953M1025 1953L1026 1954L1025 1953M743 1954L744 1955L743 1954M1024 1954L1025 1955L1024 1954M744 1955L745 1956L744 1955M1023 1955L1024 1956L1023 1955M745 1956L746 1957L745 1956M1022 1956L1023 1957L1022 1956M746 1957L747 1958L746 1957M1021 1957L1022 1958L1021 1957M747 1958L748 1959L747 1958M1020 1958L1021 1959L1020 1958M748 1959L749 1960L748 1959M1019 1959L1020 1960L1019 1959M749 1960L750 1961L749 1960M1018 1960L1019 1961L1018 1960M750 1961L751 1962L750 1961z"/>
<path style="fill:#422790; stroke:none;" d="M959 1961L960 1962L959 1961z"/>
<path style="fill:#2e1c75; stroke:none;" d="M1017 1961L1018 1962L1017 1961M751 1962L752 1963L751 1962M1016 1962L1017 1963L1016 1962M752 1963L753 1964L752 1963z"/>
<path style="fill:#7c59fd; stroke:none;" d="M959 1963L960 1964L959 1963z"/>
<path style="fill:#2e1c75; stroke:none;" d="M1015 1963L1016 1964L1015 1963M753 1964L754 1965L753 1964M1014 1964L1015 1965L1014 1964M754 1965L755 1966L754 1965M1013 1965L1014 1966L1013 1965M755 1966L756 1967L755 1966M1012 1966L1013 1967L1012 1966M756 1967L757 1968L756 1967M1011 1967L1012 1968L1011 1967M757 1968L758 1969L757 1968M1010 1968L1011 1969L1010 1968M758 1969L759 1970L758 1969M1009 1969L1010 1970L1009 1969M759 1970L760 1971L759 1970M1008 1970L1009 1971L1008 1970M760 1971L761 1972L760 1971M1007 1971L1008 1972L1007 1971M761 1972L762 1973L761 1972M1006 1972L1007 1973L1006 1972M762 1973L763 1974L762 1973M1005 1973L1006 1974L1005 1973M763 1974L764 1975L763 1974M1004 1974L1005 1975L1004 1974M764 1975L765 1976L764 1975M1003 1975L1004 1976L1003 1975M765 1976L766 1977L765 1976M1002 1976L1003 1977L1002 1976M766 1977L767 1978L766 1977M960 1977L961 1978L960 1977M1001 1977L1002 1978L1001 1977M767 1978L768 1979L767 1978M1000 1978L1001 1979L1000 1978M768 1979L769 1980L768 1979z"/>
<path style="fill:#7c59fd; stroke:none;" d="M960 1979L961 1980L960 1979z"/>
<path style="fill:#2e1c75; stroke:none;" d="M999 1979L1000 1980L999 1979M769 1980L770 1981L769 1980M998 1980L999 1981L998 1980M770 1981L771 1982L770 1981M997 1981L998 1982L997 1981M771 1982L772 1983L771 1982M996 1982L997 1983L996 1982M772 1983L773 1984L772 1983M995 1983L996 1984L995 1983M773 1984L774 1985L773 1984M994 1984L995 1985L994 1984M774 1985L775 1986L774 1985M993 1985L994 1986L993 1985M775 1986L776 1987L775 1986M992 1986L993 1987L992 1986M776 1987L777 1988L776 1987M991 1987L992 1988L991 1987M777 1988L778 1989L777 1988M990 1988L991 1989L990 1988M778 1989L779 1990L778 1989M989 1989L990 1990L989 1989M779 1990L780 1991L779 1990M988 1990L989 1991L988 1990M780 1991L781 1992L780 1991M987 1991L988 1992L987 1991M781 1992L782 1993L781 1992M986 1992L987 1993L986 1992M782 1993L783 1994L782 1993M985 1993L986 1994L985 1993M783 1994L784 1995L783 1994M984 1994L985 1995L984 1994M784 1995L785 1996L784 1995z"/>
<path style="fill:#7c59fd; stroke:none;" d="M961.333 1995.67L961.667 1996.33L961.333 1995.67z"/>
<path style="fill:#2e1c75; stroke:none;" d="M983 1995L984 1996L983 1995M785 1996L786 1997L785 1996M982 1996L983 1997L982 1996M786 1997L787 1998L786 1997M981 1997L982 1998L981 1997M787 1998L788 1999L787 1998M980 1998L981 1999L980 1998M788 1999L789 2000L788 1999M979 1999L980 2000L979 1999M789 2000L790 2001L789 2000M978 2000L979 2001L978 2000M790 2001L791 2002L790 2001M977 2001L978 2002L977 2001M791 2002L792 2003L791 2002M976 2002L977 2003L976 2002M792 2003L793 2004L792 2003M975 2003L976 2004L975 2003M793 2004L794 2005L793 2004M974 2004L975 2005L974 2004M794 2005L795 2006L794 2005M973 2005L974 2006L973 2005M795 2006L796 2007L795 2006M972 2006L973 2007L972 2006M796 2007L797 2008L796 2007M971 2007L972 2008L971 2007M797 2008L798 2009L797 2008M970 2008L971 2009L970 2008M798 2009L799 2010L798 2009M969 2009L970 2010L969 2009M799 2010L800 2011L799 2010M968 2010L969 2011L968 2010M800 2011L801 2012L800 2011z"/>
<path style="fill:#7c59fd; stroke:none;" d="M962.333 2011.67L962.667 2012.33L962.333 2011.67z"/>
<path style="fill:#2e1c75; stroke:none;" d="M967 2011L968 2012L967 2011M801 2012L802 2013L801 2012M966 2012L967 2013L966 2012M802 2013L803 2014L802 2013M965 2013L966 2014L965 2013M803 2014L804 2015L803 2014M964 2014L965 2015L964 2014M804 2015L805 2016L804 2015M963 2015L964 2016L963 2015M805 2016L806 2017L805 2016M806 2017L807 2018L806 2017M807 2018L808 2019L807 2018M808 2019L809 2020L808 2019M809 2020L810 2021L809 2020M810 2021L811 2022L810 2021M811 2022L812 2023L811 2022M812 2023L813 2024L812 2023M813 2024L814 2025L813 2024M814 2025L815 2026L814 2025M815 2026L816 2027L815 2026M816 2027L817 2028L816 2027M817 2028L818 2029L817 2028M818 2029L819 2030L818 2029M819 2030L820 2031L819 2030M820 2031L821 2032L820 2031M821 2032L822 2033L821 2032M822 2033L823 2034L822 2033M823 2034L824 2035L823 2034M824 2035L825 2036L824 2035M825 2036L826 2037L825 2036M826 2037L827 2038L826 2037M827 2038L828 2039L827 2038M828 2039L829 2040L828 2039M829 2040L830 2041L829 2040M830 2041L831 2042L830 2041M831 2042L832 2043L831 2042M832 2043L833 2044L832 2043M833 2044L834 2045L833 2044M834 2045L835 2046L834 2045M835 2046L836 2047L835 2046M836 2047L837 2048L836 2047M837 2048L838 2049L837 2048M838 2049L839 2050L838 2049M839 2050L840 2051L839 2050M840 2051L841 2052L840 2051M841 2052L842 2053L841 2052M842 2053L843 2054L842 2053M843 2054L844 2055L843 2054M844 2055L845 2056L844 2055M845 2056L846 2057L845 2056M846 2057L847 2058L846 2057M847 2058L848 2059L847 2058M848 2059L849 2060L848 2059M849 2060L850 2061L849 2060M850 2061L851 2062L850 2061M851 2062L852 2063L851 2062M852 2063L853 2064L852 2063M853 2064L854 2065L853 2064M854 2065L855 2066L854 2065M855 2066L856 2067L855 2066M856 2067L857 2068L856 2067M857 2068L858 2069L857 2068M858 2069L859 2070L858 2069M859 2070L860 2071L859 2070M860 2071L861 2072L860 2071M861 2072L862 2073L861 2072M862 2073L863 2074L862 2073M863 2074L864 2075L863 2074M864 2075L865 2076L864 2075M865 2076L866 2077L865 2076M866 2077L867 2078L866 2077M867 2078L868 2079L867 2078M868 2079L869 2080L868 2079M869 2080L870 2081L869 2080M870 2081L871 2082L870 2081M871 2082L872 2083L871 2082M872 2083L873 2084L872 2083M873 2084L874 2085L873 2084M874 2085L875 2086L874 2085M875 2086L876 2087L875 2086M876 2087L877 2088L876 2087M877 2088L878 2089L877 2088M878 2089L879 2090L878 2089M879 2090L880 2091L879 2090M880 2091L881 2092L880 2091M881 2092L882 2093L881 2092M882 2093L883 2094L882 2093M883 2094L884 2095L883 2094M884 2095L885 2096L884 2095M885 2096L886 2097L885 2096M886 2097L887 2098L886 2097M887 2098L888 2099L887 2098M888 2099L889 2100L888 2099M889 2100L890 2101L889 2100M890 2101L891 2102L890 2101M891 2102L892 2103L891 2102M892 2103L893 2104L892 2103M893 2104L894 2105L893 2104M894 2105L895 2106L894 2105M895 2106L896 2107L895 2106M896 2107L897 2108L896 2107M897 2108L898 2109L897 2108M898 2109L899 2110L898 2109M899 2110L900 2111L899 2110M900 2111L901 2112L900 2111M901 2112L902 2113L901 2112M902 2113L903 2114L902 2113M903 2114L904 2115L903 2114M904 2115L905 2116L904 2115M931 2142L932 2143L931 2142z"/>
<path style="fill:#7c59fd; stroke:none;" d="M939 2147L940 2148L939 2147M962 2147L963 2148L962 2147M942 2148L943 2149L942 2148M959 2148L960 2149L959 2148M946 2149L947 2150L946 2149z"/>
</svg>
