<?xml version="1.0" encoding="utf-8"?>
<!-- Generator: Adobe Illustrator 17.0.0, SVG Export Plug-In . SVG Version: 6.00 Build 0)  -->
<!DOCTYPE svg PUBLIC "-//W3C//DTD SVG 1.1//EN" "http://www.w3.org/Graphics/SVG/1.1/DTD/svg11.dtd">
<svg version="1.1" id="Layer_1" xmlns="http://www.w3.org/2000/svg" xmlns:xlink="http://www.w3.org/1999/xlink" x="0px" y="0px"
	 width="595.28px" height="841.89px" viewBox="0 0 595.28 841.89" enable-background="new 0 0 595.28 841.89" xml:space="preserve">
<polygon fill-rule="evenodd" clip-rule="evenodd" fill="#180530" points="-1.28,132.89 595.28,132.89 595.28,708.89 -1.28,708.89 
	-1.28,132.89 "/>
<linearGradient id="SVGID_1_" gradientUnits="userSpaceOnUse" x1="245.9351" y1="394.8769" x2="348.9414" y2="394.8769">
	<stop  offset="0" style="stop-color:#5532A9"/>
	<stop  offset="1" style="stop-color:#1B115E"/>
</linearGradient>
<path fill="url(#SVGID_1_)" d="M342.305,379.074l-26.811,26.811l4.878,0.572l-0.845,0.845l-70.314,11.028
	c-1.336,0.209-2.162-1.159-3.279-2.275c2.367-2.367,6.585-8.026,11.22-14.067l0.361-0.36l2.109-2.109l-0.042-0.675
	c3.714-4.772,7.53-9.468,10.762-12.692l0.153,2.494l2.109-2.109l4.682-4.681l70.159-10.451l1.492,1.035L342.305,379.074
	L342.305,379.074z"/>
<linearGradient id="SVGID_2_" gradientUnits="userSpaceOnUse" x1="249.0542" y1="366.4108" x2="347.3463" y2="423.1598">
	<stop  offset="0" style="stop-color:#9B3FFD"/>
	<stop  offset="0.6601" style="stop-color:#4785FB"/>
	<stop  offset="1" style="stop-color:#49D7FB"/>
</linearGradient>
<path fill="url(#SVGID_2_)" d="M246.015,378.556l51.115-51.115l0.004,0.004l2.31-2.31c0.713-0.714,1.882-0.714,2.597,0
	l18.985,18.987c0.715,0.715,0.714,1.883,0,2.597l-70.915,70.915c-0.714,0.713-1.883,0.714-2.598,0l-9.492-9.493
	c-5.935-5.936-5.935-15.648,0-21.583l7.998-7.998L246.015,378.556L246.015,378.556z M299.989,333.211l-10.06,10.061l1.503,24.44
	l2.109-2.11l5.842-5.842l2.109-2.11L299.989,333.211L299.989,333.211z M279.056,354.144l-10.06,10.061l1.503,24.439l2.109-2.109
	l5.842-5.842l2.109-2.11L279.056,354.144L279.056,354.144z M258.122,375.079l-7.792,7.792l-0.011-0.01l-0.149,0.149l-2.109,2.109
	l1.504,24.46l2.109-2.109l5.842-5.842l2.109-2.109L258.122,375.079L258.122,375.079z M358.379,403.014l-7.521,7.52l-1.605,1.605
	l-0.267,0.267l-20.729,20.729l-0.261,0.26l-21.387,21.387l-0.261,0.26l-6.605,6.606l-2.787,2.787c-0.714,0.714-1.883,0.714-2.597,0
	l-18.986-18.986c-0.714-0.714-0.713-1.883,0-2.597l70.915-70.916c0.714-0.714,1.882-0.715,2.597,0l9.493,9.493
	C364.314,387.366,364.313,397.079,358.379,403.014L358.379,403.014z M346.559,406.234l1.781-1.781l-1.504-24.46l-2.109,2.109
	l-5.842,5.842l-2.11,2.109l1.503,24.432l8.266-8.266L346.559,406.234L346.559,406.234z M327.404,425.359l-1.503-24.432l-2.109,2.109
	l-5.842,5.842l-2.109,2.109l1.502,24.432L327.404,425.359L327.404,425.359z M306.471,446.293l-1.503-24.432l-2.109,2.109
	l-5.841,5.842l-2.11,2.11l1.503,24.431L306.471,446.293L306.471,446.293z"/>
<polygon fill="#FFFFFF" points="190.672,516.702 193.268,516.702 193.268,489.95 190.672,489.95 190.672,516.702 "/>
<path fill="#FFFFFF" d="M200.854,516.702h2.476V507c0-4.193,3.034-7.627,6.748-7.627c3.993,0,6.749,3.314,6.749,7.347v9.982h2.475
	V506.52c0-5.27-3.434-9.383-8.625-9.383c-3.434,0-6.429,2.396-7.467,5.87h-0.04l-0.12-5.43h-2.196V516.702L200.854,516.702z"/>
<path fill="#FFFFFF" d="M242.54,487.953v14.934h-0.04c-1.118-3.314-4.472-5.75-8.226-5.75c-5.23,0-9.822,4.312-9.822,9.982
	c0,5.71,4.592,10.022,9.862,10.022c3.713,0,7.228-2.316,8.345-5.75h0.041l0.08,5.311h2.236v-28.749H242.54L242.54,487.953z
	 M234.714,514.945c-4.313,0-7.786-3.474-7.786-7.786c0-4.312,3.474-7.826,7.786-7.826s7.826,3.514,7.826,7.826
	C242.54,511.472,239.026,514.945,234.714,514.945L234.714,514.945z"/>
<path fill="#FFFFFF" d="M253.44,493.344c0.998,0,1.836-0.799,1.836-1.797c0-0.998-0.838-1.837-1.836-1.837
	c-1.038,0-1.877,0.838-1.877,1.837C251.563,492.545,252.402,493.344,253.44,493.344L253.44,493.344z M252.202,516.702h2.476v-19.126
	h-2.476V516.702L252.202,516.702z"/>
<path fill="#FFFFFF" d="M270.609,515.025c-4.312,0-7.586-2.995-7.985-7.147h17.928c0-5.95-4.113-10.741-10.222-10.741
	c-5.869,0-10.142,4.512-10.142,9.982c0,5.63,4.513,10.022,10.302,10.022c4.312,0,8.186-2.316,9.543-5.75h-2.436
	C276.599,513.548,273.725,515.025,270.609,515.025L270.609,515.025z M270.33,499.253c4.153,0,7.147,2.755,7.746,6.708h-15.412
	C263.103,502.168,266.058,499.253,270.33,499.253L270.33,499.253z"/>
<path fill="#FFFFFF" d="M294.886,517.181c5.55,0,9.703-2.675,9.703-7.786c0-5.39-4.273-6.708-9.264-8.305
	c-3.034-0.918-5.829-1.717-5.829-4.352c0-2.516,2.595-3.474,4.831-3.474s4.712,1.038,5.191,3.953h4.672
	c-0.479-5.63-4.991-7.746-9.863-7.746c-5.55,0-9.542,2.635-9.542,7.467c0,4.672,3.713,6.469,8.904,8.106
	c3.354,1.038,6.188,1.957,6.188,4.671c0,2.556-2.595,3.594-4.991,3.594c-2.276,0-5.51-0.918-5.909-4.272h-4.752
	C284.624,514.786,289.696,517.181,294.886,517.181L294.886,517.181z"/>
<path fill="#FFFFFF" d="M328.705,509.714h-4.632c-0.838,2.037-2.875,3.434-5.43,3.434c-3.434,0-6.189-2.795-6.189-6.189
	c0-3.394,2.755-6.229,6.189-6.229c2.555,0,4.672,1.477,5.43,3.434h4.632c-0.839-4.153-4.951-7.427-9.982-7.427
	c-5.95,0-10.822,4.632-10.822,10.222c0,5.63,4.872,10.222,10.822,10.222C323.714,517.181,327.907,513.947,328.705,509.714
	L328.705,509.714z"/>
<path fill="#FFFFFF" d="M342.918,513.468c-3.354,0-5.83-1.996-6.429-5.151h16.77c0-6.428-4.033-11.579-10.661-11.579
	c-6.269,0-10.661,4.632-10.661,10.222c0,5.869,4.792,10.222,10.821,10.222c4.472,0,8.545-2.436,9.942-6.029l-4.393-0.24
	C347.51,512.549,345.234,513.468,342.918,513.468L342.918,513.468z M342.599,500.451c3.154,0,5.351,1.717,6.03,4.711H336.49
	C337.089,502.368,339.205,500.451,342.599,500.451L342.599,500.451z"/>
<path fill="#FFFFFF" d="M357.811,516.702h4.552V506.68c0-3.195,2.436-5.87,5.351-5.87c3.075,0,5.311,2.595,5.311,5.71v10.182h4.552
	v-10.621c0-5.231-3.394-9.344-8.665-9.344c-2.915,0-5.59,1.757-6.749,4.432h-0.08l-0.24-3.913h-4.032V516.702L357.811,516.702z"/>
<path fill="#FFFFFF" d="M392.987,513.468c-3.354,0-5.83-1.996-6.429-5.151h16.771c0-6.428-4.033-11.579-10.661-11.579
	c-6.269,0-10.661,4.632-10.661,10.222c0,5.869,4.792,10.222,10.821,10.222c4.472,0,8.545-2.436,9.942-6.029l-4.393-0.24
	C397.579,512.549,395.303,513.468,392.987,513.468L392.987,513.468z M392.667,500.451c3.154,0,5.35,1.717,6.029,4.711h-12.139
	C387.157,502.368,389.273,500.451,392.667,500.451L392.667,500.451z"/>
</svg>
