<?xml version="1.0" standalone="no"?>
<!DOCTYPE svg PUBLIC "-//W3C//DTD SVG 20010904//EN"
 "http://www.w3.org/TR/2001/REC-SVG-20010904/DTD/svg10.dtd">
<svg version="1.0" xmlns="http://www.w3.org/2000/svg"
 width="2905.000000pt" height="2631.000000pt" viewBox="0 0 2905.000000 2631.000000"
 preserveAspectRatio="xMidYMid meet">

<g transform="translate(0.000000,2631.000000) scale(0.100000,-0.100000)"
fill="#000000" stroke="none">
<path d="M14969 26287 c-25 -7 -58 -23 -75 -34 -16 -12 -1942 -1936 -4280
-4275 -4538 -4540 -4320 -4317 -4460 -4555 -147 -249 -240 -532 -275 -838 -15
-126 -6 -439 16 -560 66 -366 210 -688 436 -970 78 -99 1438 -1470 1494 -1507
92 -62 11 -70 1260 126 622 98 2464 386 4095 642 1631 255 2981 467 3000 470
31 5 -246 -275 -2307 -2337 l-2342 -2344 -16 -58 c-19 -65 -14 -119 16 -182
22 -48 2649 -2677 2656 -2658 2 6 84 278 182 603 l179 592 -49 -48 c-27 -26
-51 -45 -54 -42 -4 3 -53 755 -109 1669 l-103 1664 688 690 c379 379 690 687
692 685 3 -3 17 -198 31 -435 15 -236 28 -431 30 -432 1 -1 206 674 454 1500
417 1383 455 1504 483 1532 25 24 30 26 25 10 -3 -11 -220 -733 -482 -1604
l-476 -1584 8 -80 9 -79 514 1708 c283 940 519 1721 525 1737 14 35 4539 4562
4586 4588 l35 20 -30 -5 c-16 -3 -1573 -235 -3460 -516 -1886 -281 -3700 -551
-4029 -600 -330 -50 -607 -90 -615 -90 -9 0 1024 1039 2294 2310 1465 1465
2318 2325 2333 2351 29 55 30 146 1 209 -15 35 -308 333 -1342 1368 -901 901
-1335 1329 -1362 1342 -54 25 -121 32 -176 17z m-29 -1189 c0 -13 45 -763 101
-1667 l101 -1644 -688 -688 -689 -689 -7 67 c-3 38 -50 789 -104 1671 l-98
1603 684 684 c377 377 688 685 692 685 5 0 8 -10 8 -22z m-2759 -4501 l103
-1668 -684 -684 c-376 -376 -687 -682 -690 -679 -6 7 -7 11 -120 1833 l-92
1494 688 688 c378 378 689 687 690 686 1 -1 48 -753 105 -1670z m-2861 -2819
c55 -894 100 -1645 100 -1669 l0 -44 -685 -685 c-376 -376 -686 -682 -688
-680 -2 3 -49 754 -105 1670 l-102 1665 687 687 c378 378 688 686 690 684 1
-1 48 -734 103 -1628z"/>
<path d="M17650 15063 l-55 -58 58 55 c53 50 62 60 54 60 -1 0 -27 -26 -57
-57z"/>
<path d="M14652 8507 c-41 -42 -41 -42 -232 -677 -105 -349 -193 -641 -195
-648 -5 -12 43 -37 53 -27 7 7 423 1388 419 1392 -2 1 -22 -16 -45 -40z"/>
</g>
</svg>
