<svg id="svg" xmlns="http://www.w3.org/2000/svg" xmlns:xlink="http://www.w3.org/1999/xlink" width="400" height="55.036284470246734" viewBox="0, 0, 400,55.036284470246734" version="1.1"><g id="svgg"><path id="path0" d="M102.248 27.083 C 102.248 42.025,102.268 48.113,102.292 40.612 C 102.316 33.111,102.316 20.886,102.292 13.445 C 102.268 6.005,102.248 12.142,102.248 27.083 M191.667 3.000 L 191.083 3.123 191.615 3.145 C 191.908 3.157,192.193 3.092,192.250 3.000 C 192.307 2.908,192.330 2.843,192.302 2.855 C 192.273 2.867,191.987 2.932,191.667 3.000 M193.042 2.948 C 193.202 2.990,193.465 2.990,193.625 2.948 C 193.785 2.906,193.654 2.872,193.333 2.872 C 193.012 2.872,192.881 2.906,193.042 2.948 M196.460 2.951 C 196.668 2.991,196.968 2.990,197.127 2.948 C 197.286 2.906,197.117 2.874,196.750 2.875 C 196.383 2.877,196.253 2.911,196.460 2.951 M117.112 3.412 C 116.669 3.527,116.181 3.752,116.028 3.912 C 115.806 4.143,115.897 4.128,116.482 3.835 C 117.225 3.464,118.244 3.355,119.000 3.566 C 119.281 3.645,119.336 3.633,119.167 3.531 C 118.699 3.247,117.918 3.202,117.112 3.412 M189.375 3.284 C 189.169 3.324,189.000 3.416,189.000 3.488 C 189.000 3.561,189.188 3.585,189.417 3.541 C 189.646 3.497,189.833 3.395,189.833 3.314 C 189.833 3.233,189.815 3.177,189.792 3.189 C 189.769 3.202,189.581 3.245,189.375 3.284 M200.500 3.500 C 200.729 3.573,201.067 3.633,201.250 3.633 C 201.514 3.633,201.497 3.606,201.167 3.500 C 200.938 3.427,200.600 3.367,200.417 3.367 C 200.153 3.367,200.170 3.394,200.500 3.500 M0.081 28.833 C 0.081 42.813,0.101 48.531,0.125 41.542 C 0.149 34.552,0.149 23.115,0.125 16.125 C 0.101 9.135,0.081 14.854,0.081 28.833 M4.915 28.750 C 4.915 42.683,4.934 48.359,4.958 41.362 C 4.982 34.365,4.982 22.965,4.958 16.029 C 4.934 9.092,4.915 14.817,4.915 28.750 M119.500 3.646 C 119.500 3.731,119.759 3.953,120.075 4.139 C 120.415 4.340,120.820 4.806,121.067 5.281 C 121.297 5.722,121.488 5.965,121.492 5.819 C 121.497 5.674,121.444 5.499,121.375 5.431 C 121.306 5.362,121.250 5.251,121.250 5.185 C 121.250 4.976,120.437 4.096,119.958 3.788 C 119.706 3.625,119.500 3.562,119.500 3.646 M186.917 4.000 C 186.707 4.090,186.676 4.143,186.833 4.143 C 186.971 4.143,187.233 4.079,187.417 4.000 C 187.627 3.910,187.658 3.857,187.500 3.857 C 187.362 3.857,187.100 3.921,186.917 4.000 M203.167 4.144 C 203.167 4.228,203.504 4.396,203.917 4.518 C 204.329 4.640,204.667 4.811,204.667 4.897 C 204.667 4.984,204.711 5.011,204.766 4.956 C 204.821 4.902,205.129 5.005,205.452 5.187 C 205.775 5.368,206.075 5.480,206.120 5.436 C 206.164 5.391,205.743 5.124,205.184 4.842 C 204.624 4.560,204.167 4.369,204.167 4.419 C 204.167 4.468,203.942 4.392,203.667 4.250 C 203.392 4.108,203.167 4.060,203.167 4.144 M115.205 4.625 C 114.698 5.357,114.636 5.500,114.823 5.500 C 114.921 5.500,115.000 5.391,115.000 5.258 C 115.000 5.125,115.099 4.957,115.221 4.883 C 115.429 4.758,115.733 4.167,115.589 4.167 C 115.553 4.167,115.380 4.373,115.205 4.625 M184.958 4.686 C 184.615 4.860,184.333 5.089,184.333 5.194 C 184.333 5.307,184.458 5.272,184.638 5.109 C 184.806 4.957,185.059 4.833,185.201 4.833 C 185.343 4.833,185.553 4.721,185.667 4.583 C 185.933 4.263,185.739 4.291,184.958 4.686 M207.470 6.417 C 207.742 6.646,208.065 6.833,208.188 6.833 C 208.310 6.833,208.135 6.646,207.798 6.417 C 207.460 6.188,207.137 6.000,207.079 6.000 C 207.022 6.000,207.197 6.188,207.470 6.417 M181.917 6.578 C 181.642 6.804,181.510 6.991,181.625 6.994 C 181.740 6.997,181.833 6.942,181.833 6.872 C 181.833 6.802,182.040 6.616,182.292 6.460 C 182.544 6.303,182.675 6.174,182.583 6.172 C 182.492 6.170,182.192 6.353,181.917 6.578 M208.825 7.458 C 209.686 8.306,210.259 8.776,209.995 8.419 C 209.642 7.942,208.643 7.000,208.490 7.000 C 208.418 7.000,208.569 7.206,208.825 7.458 M180.875 7.277 C 180.760 7.323,180.667 7.440,180.667 7.537 C 180.667 7.634,180.535 7.813,180.375 7.935 C 180.215 8.056,180.165 8.158,180.264 8.161 C 180.364 8.164,180.645 7.942,180.890 7.667 C 181.320 7.184,181.317 7.099,180.875 7.277 M114.667 7.820 C 114.667 8.031,115.122 8.787,115.464 9.145 C 115.886 9.586,115.767 9.241,115.220 8.439 C 114.916 7.994,114.667 7.715,114.667 7.820 M120.417 9.038 C 119.791 9.693,119.871 9.776,120.557 9.185 C 120.832 8.948,121.251 8.329,121.131 8.336 C 121.105 8.338,120.783 8.653,120.417 9.038 M179.897 8.461 C 179.483 8.733,177.728 11.783,177.891 11.947 C 177.936 11.991,178.118 11.703,178.295 11.306 C 178.473 10.908,178.960 10.077,179.378 9.458 C 179.795 8.840,180.125 8.334,180.110 8.336 C 180.095 8.337,180.000 8.394,179.897 8.461 M210.667 9.422 C 210.667 9.494,210.841 9.784,211.054 10.068 C 211.267 10.351,211.494 10.725,211.558 10.899 C 211.622 11.072,211.724 11.165,211.784 11.105 C 211.844 11.045,211.730 10.775,211.530 10.505 C 211.330 10.235,211.167 9.945,211.167 9.860 C 211.167 9.776,211.054 9.614,210.917 9.500 C 210.779 9.386,210.667 9.351,210.667 9.422 M116.598 9.815 C 116.697 9.923,117.072 10.046,117.431 10.086 C 118.016 10.153,118.031 10.146,117.583 10.018 C 117.308 9.939,116.933 9.817,116.750 9.746 C 116.498 9.649,116.461 9.666,116.598 9.815 M194.444 9.958 C 194.402 10.027,194.754 10.091,195.226 10.101 C 195.799 10.113,195.973 10.076,195.750 9.988 C 195.315 9.817,194.540 9.799,194.444 9.958 M198.904 10.647 C 198.954 10.727,199.165 10.836,199.372 10.888 C 199.737 10.980,199.739 10.975,199.426 10.742 C 199.068 10.474,198.763 10.418,198.904 10.647 M187.794 12.177 C 187.475 12.477,187.388 12.621,187.585 12.526 C 187.938 12.356,188.628 11.667,188.445 11.667 C 188.387 11.667,188.094 11.896,187.794 12.177 M201.333 11.719 C 201.333 11.777,201.837 12.332,202.453 12.953 C 203.069 13.575,203.397 13.834,203.182 13.529 C 202.664 12.792,201.333 11.490,201.333 11.719 M177.488 13.125 C 177.481 13.194,177.442 13.433,177.401 13.657 C 177.359 13.880,177.368 14.021,177.420 13.969 C 177.550 13.839,177.694 13.000,177.587 13.000 C 177.539 13.000,177.494 13.056,177.488 13.125 M212.697 13.584 C 212.802 13.814,212.920 13.969,212.959 13.930 C 213.077 13.812,212.823 13.167,212.659 13.167 C 212.575 13.167,212.593 13.354,212.697 13.584 M186.492 13.681 C 186.228 14.175,186.362 14.207,186.716 13.734 C 186.881 13.513,186.940 13.333,186.847 13.333 C 186.754 13.333,186.595 13.490,186.492 13.681 M203.500 14.211 C 203.500 14.259,203.693 14.626,203.928 15.025 C 204.182 15.456,204.308 15.581,204.238 15.333 C 204.132 14.957,203.500 13.996,203.500 14.211 M212.926 14.542 C 212.989 14.748,213.112 15.029,213.199 15.167 C 213.326 15.366,213.339 15.355,213.263 15.111 C 213.210 14.943,213.167 14.662,213.167 14.486 C 213.167 14.311,213.087 14.167,212.989 14.167 C 212.881 14.167,212.856 14.315,212.926 14.542 M185.904 15.424 C 185.750 16.247,185.896 16.297,186.110 15.495 C 186.208 15.131,186.226 14.833,186.151 14.833 C 186.076 14.833,185.965 15.099,185.904 15.424 M185.934 17.083 C 185.979 17.542,186.035 18.029,186.059 18.167 C 186.143 18.656,186.728 19.821,186.927 19.898 C 187.038 19.940,186.960 19.662,186.754 19.279 C 186.411 18.645,186.136 17.771,185.930 16.667 C 185.888 16.438,185.889 16.625,185.934 17.083 M238.167 16.667 L 237.583 16.789 238.208 16.811 C 238.552 16.823,238.833 16.758,238.833 16.667 C 238.833 16.575,238.815 16.510,238.792 16.522 C 238.769 16.534,238.487 16.599,238.167 16.667 M243.089 16.676 C 243.128 16.738,243.555 16.841,244.038 16.904 C 244.521 16.967,245.104 17.062,245.333 17.116 C 245.563 17.170,245.696 17.155,245.629 17.083 C 245.477 16.919,242.993 16.521,243.089 16.676 M333.743 16.656 C 333.796 16.742,333.983 16.801,334.158 16.788 C 334.574 16.757,334.415 16.500,333.980 16.500 C 333.797 16.500,333.690 16.570,333.743 16.656 M382.074 16.651 C 382.123 16.731,382.427 16.827,382.748 16.865 C 383.070 16.902,383.277 16.883,383.208 16.822 C 383.010 16.645,381.974 16.489,382.074 16.651 M281.969 16.830 C 281.723 16.905,281.478 16.936,281.426 16.901 C 281.373 16.865,281.396 16.915,281.475 17.011 C 281.575 17.132,281.796 17.110,282.185 16.940 C 282.799 16.673,282.685 16.614,281.969 16.830 M288.684 16.828 C 289.735 17.102,290.167 17.149,290.167 16.989 C 290.167 16.903,289.998 16.833,289.792 16.831 C 289.585 16.830,289.117 16.794,288.750 16.751 L 288.083 16.672 288.684 16.828 M376.708 16.782 C 376.869 16.823,377.131 16.823,377.292 16.782 C 377.452 16.740,377.321 16.705,377.000 16.705 C 376.679 16.705,376.548 16.740,376.708 16.782 M338.667 17.000 C 338.667 17.209,338.844 17.209,339.167 17.000 C 339.369 16.869,339.345 16.838,339.042 16.836 C 338.835 16.834,338.667 16.908,338.667 17.000 M235.583 17.167 C 235.122 17.284,235.116 17.295,235.500 17.311 C 235.729 17.321,236.029 17.256,236.167 17.167 C 236.450 16.983,236.304 16.983,235.583 17.167 M290.833 17.250 C 291.597 17.544,292.062 17.539,291.417 17.244 C 291.142 17.118,290.767 17.017,290.583 17.020 C 290.367 17.024,290.455 17.104,290.833 17.250 M331.000 17.174 C 330.817 17.298,330.885 17.313,331.250 17.232 C 331.863 17.095,331.996 16.999,331.569 17.003 C 331.394 17.004,331.137 17.081,331.000 17.174 M374.333 17.167 L 373.917 17.300 374.375 17.317 C 374.627 17.326,374.833 17.258,374.833 17.167 C 374.833 17.075,374.815 17.007,374.792 17.017 C 374.769 17.026,374.563 17.093,374.333 17.167 M82.246 17.342 C 82.519 17.424,82.796 17.437,82.862 17.371 C 82.928 17.304,82.705 17.237,82.366 17.221 C 81.756 17.192,81.755 17.194,82.246 17.342 M279.917 17.276 C 279.733 17.315,279.415 17.382,279.208 17.426 C 279.002 17.470,278.833 17.583,278.833 17.676 C 278.833 17.789,278.939 17.788,279.156 17.673 C 279.333 17.578,279.629 17.500,279.813 17.500 C 279.996 17.500,280.193 17.425,280.250 17.333 C 280.307 17.242,280.330 17.175,280.302 17.186 C 280.273 17.197,280.100 17.237,279.917 17.276 M385.334 17.210 C 385.380 17.263,385.755 17.421,386.167 17.561 C 386.795 17.775,386.864 17.777,386.593 17.575 C 386.415 17.442,386.178 17.333,386.065 17.333 C 385.953 17.333,385.723 17.284,385.555 17.223 C 385.387 17.163,385.288 17.157,385.334 17.210 M34.708 17.505 C 34.211 17.705,34.232 17.807,34.750 17.707 C 34.979 17.664,35.167 17.562,35.167 17.481 C 35.167 17.400,35.148 17.338,35.125 17.344 C 35.102 17.350,34.915 17.422,34.708 17.505 M40.423 17.510 C 40.537 17.695,41.158 17.815,41.248 17.670 C 41.293 17.597,41.110 17.505,40.840 17.465 C 40.571 17.426,40.383 17.446,40.423 17.510 M78.833 17.500 C 78.490 17.610,78.475 17.636,78.750 17.648 C 78.933 17.655,79.196 17.589,79.333 17.500 C 79.625 17.311,79.423 17.311,78.833 17.500 M84.583 17.478 C 84.767 17.558,85.179 17.671,85.500 17.729 C 85.900 17.802,85.979 17.789,85.750 17.689 C 85.567 17.609,85.154 17.496,84.833 17.437 C 84.433 17.365,84.355 17.377,84.583 17.478 M146.500 17.443 C 146.362 17.489,146.146 17.560,146.018 17.600 C 145.410 17.794,146.016 17.777,146.750 17.580 C 147.216 17.454,147.400 17.357,147.167 17.358 C 146.938 17.359,146.637 17.397,146.500 17.443 M314.374 35.792 L 314.415 54.250 314.458 35.875 L 314.501 17.500 318.167 17.500 L 321.833 17.500 321.845 18.208 C 321.851 18.598,321.928 19.067,322.015 19.250 C 322.153 19.541,322.163 19.530,322.089 19.167 C 322.043 18.938,322.004 18.431,322.002 18.042 L 322.000 17.333 318.167 17.333 L 314.333 17.333 314.374 35.792 M247.001 17.547 C 247.133 17.695,248.563 18.160,248.642 18.081 C 248.681 18.041,248.512 17.933,248.266 17.839 C 247.656 17.608,246.898 17.432,247.001 17.547 M86.254 17.817 C 86.343 17.905,86.642 18.030,86.917 18.095 C 87.562 18.248,87.417 18.106,86.670 17.854 C 86.352 17.746,86.164 17.729,86.254 17.817 M144.667 17.833 C 144.332 17.941,144.315 17.968,144.583 17.972 C 144.767 17.974,145.067 17.912,145.250 17.833 C 145.675 17.651,145.237 17.651,144.667 17.833 M387.167 17.734 C 387.167 17.768,387.354 17.918,387.583 18.068 C 387.813 18.218,388.000 18.276,388.000 18.197 C 388.000 18.118,387.813 17.968,387.583 17.864 C 387.354 17.759,387.167 17.701,387.167 17.734 M42.333 18.000 C 42.471 18.089,42.696 18.162,42.833 18.162 C 43.056 18.162,43.056 18.144,42.833 18.000 C 42.696 17.911,42.471 17.838,42.333 17.838 C 42.111 17.838,42.111 17.856,42.333 18.000 M328.624 18.152 C 327.869 18.636,327.869 18.732,328.625 18.350 C 329.015 18.154,329.333 17.957,329.333 17.913 C 329.333 17.771,329.093 17.852,328.624 18.152 M19.247 36.000 C 19.247 45.946,19.267 50.015,19.292 45.042 C 19.316 40.069,19.316 31.931,19.292 26.958 C 19.267 21.985,19.247 26.054,19.247 36.000 M32.500 18.157 C 32.362 18.233,32.044 18.391,31.792 18.509 C 31.540 18.626,31.364 18.753,31.401 18.790 C 31.437 18.826,31.644 18.765,31.859 18.652 C 32.707 18.210,32.853 18.159,33.007 18.254 C 33.095 18.309,33.167 18.274,33.167 18.177 C 33.167 17.970,32.856 17.961,32.500 18.157 M75.934 18.283 C 75.695 18.408,75.500 18.548,75.500 18.593 C 75.500 18.638,75.715 18.564,75.979 18.428 C 76.242 18.291,76.497 18.219,76.546 18.268 C 76.594 18.316,76.675 18.288,76.726 18.206 C 76.864 17.982,76.428 18.024,75.934 18.283 M115.747 35.917 C 115.747 45.817,115.767 49.842,115.792 44.862 C 115.816 39.882,115.816 31.782,115.792 26.862 C 115.767 21.942,115.747 26.017,115.747 35.917 M155.560 18.116 C 155.624 18.180,155.768 18.247,155.880 18.266 C 155.992 18.286,156.233 18.351,156.417 18.412 C 156.644 18.488,156.618 18.442,156.333 18.267 C 155.915 18.011,155.343 17.899,155.560 18.116 M43.333 18.333 C 43.471 18.422,43.696 18.495,43.833 18.495 C 44.056 18.495,44.056 18.477,43.833 18.333 C 43.696 18.244,43.471 18.172,43.333 18.172 C 43.111 18.172,43.111 18.190,43.333 18.333 M177.115 18.750 C 177.212 19.424,177.283 19.612,177.395 19.486 C 177.428 19.448,177.358 19.117,177.238 18.750 L 177.020 18.083 177.115 18.750 M276.612 18.449 C 276.353 18.586,276.181 18.737,276.230 18.786 C 276.279 18.835,276.566 18.717,276.868 18.524 C 277.491 18.125,277.323 18.076,276.612 18.449 M294.500 18.500 C 294.500 18.592,294.588 18.667,294.695 18.667 C 294.803 18.667,295.009 18.765,295.154 18.884 C 295.509 19.179,296.335 19.522,296.325 19.371 C 296.311 19.179,294.500 18.314,294.500 18.500 M44.330 18.746 C 44.446 18.886,44.654 19.000,44.792 19.000 C 44.931 19.000,45.315 19.162,45.647 19.359 C 46.028 19.586,46.158 19.620,46.000 19.452 C 45.651 19.081,44.043 18.401,44.330 18.746 M343.417 18.754 C 343.923 19.165,344.398 19.406,344.260 19.182 C 344.197 19.081,343.907 18.882,343.614 18.741 C 343.121 18.502,343.107 18.503,343.417 18.754 M389.074 18.752 C 389.251 18.889,389.495 19.000,389.615 19.000 C 389.735 19.000,389.833 19.075,389.833 19.167 C 389.833 19.258,389.918 19.333,390.020 19.333 C 390.367 19.333,389.840 18.868,389.282 18.682 C 388.794 18.519,388.777 18.525,389.074 18.752 M327.025 19.168 C 326.092 19.844,326.141 19.982,327.083 19.333 C 327.745 18.878,327.964 18.667,327.775 18.667 C 327.743 18.667,327.405 18.892,327.025 19.168 M73.708 19.207 C 73.410 19.385,73.167 19.601,73.167 19.687 C 73.167 19.773,73.410 19.673,73.708 19.464 C 74.006 19.255,74.281 19.065,74.319 19.042 C 74.358 19.019,74.358 18.974,74.319 18.942 C 74.281 18.909,74.006 19.029,73.708 19.207 M89.181 18.899 C 89.390 19.096,90.509 19.650,90.426 19.515 C 90.371 19.427,90.092 19.237,89.804 19.094 C 89.305 18.845,89.033 18.759,89.181 18.899 M140.963 19.234 C 139.979 19.818,139.999 19.915,141.000 19.417 C 142.051 18.893,142.146 18.827,141.819 18.849 C 141.690 18.858,141.304 19.031,140.963 19.234 M274.917 19.340 C 274.458 19.610,274.168 19.831,274.271 19.832 C 274.476 19.833,276.000 19.014,276.000 18.902 C 276.000 18.755,275.718 18.869,274.917 19.340 M158.014 19.055 C 158.303 19.285,159.654 19.947,159.576 19.821 C 159.473 19.655,158.266 19.000,158.062 19.000 C 157.997 19.000,157.976 19.025,158.014 19.055 M229.583 19.752 C 228.942 20.162,228.477 20.497,228.550 20.498 C 228.623 20.499,229.093 20.237,229.595 19.917 C 230.096 19.596,230.576 19.333,230.660 19.333 C 230.745 19.333,230.860 19.258,230.917 19.167 C 231.112 18.850,230.746 19.011,229.583 19.752 M250.833 19.250 C 250.947 19.387,251.116 19.500,251.207 19.500 C 251.300 19.500,251.282 19.389,251.167 19.250 C 251.053 19.112,250.884 19.000,250.793 19.000 C 250.700 19.000,250.718 19.111,250.833 19.250 M29.959 19.474 C 29.707 19.626,29.500 19.805,29.500 19.871 C 29.500 20.031,30.657 19.454,30.663 19.292 C 30.668 19.111,30.478 19.160,29.959 19.474 M369.000 19.417 C 368.884 19.556,368.866 19.667,368.959 19.667 C 369.051 19.667,369.219 19.554,369.333 19.417 C 369.449 19.277,369.467 19.167,369.374 19.167 C 369.282 19.167,369.114 19.279,369.000 19.417 M23.372 20.167 C 23.372 20.487,23.406 20.619,23.448 20.458 C 23.490 20.298,23.490 20.035,23.448 19.875 C 23.406 19.715,23.372 19.846,23.372 20.167 M46.333 19.713 C 46.333 19.745,46.577 19.949,46.875 20.167 C 47.210 20.413,47.327 20.453,47.180 20.273 C 46.958 19.999,46.333 19.586,46.333 19.713 M90.667 19.714 C 90.667 19.786,91.797 20.589,92.330 20.896 C 92.469 20.976,92.433 20.894,92.250 20.713 C 91.896 20.363,90.667 19.588,90.667 19.714 M139.833 19.806 C 139.833 19.912,139.740 20.002,139.625 20.004 C 139.510 20.007,139.154 20.234,138.833 20.508 L 138.250 21.007 138.791 20.712 C 139.088 20.550,139.332 20.360,139.332 20.292 C 139.333 20.223,139.441 20.167,139.573 20.167 C 139.845 20.167,140.085 19.863,139.933 19.711 C 139.878 19.656,139.833 19.699,139.833 19.806 M296.833 19.823 C 296.833 19.921,296.907 20.000,296.998 20.000 C 297.164 20.000,297.621 20.335,298.192 20.875 C 298.361 21.035,298.500 21.098,298.500 21.014 C 298.500 20.930,298.219 20.643,297.875 20.375 C 297.034 19.721,296.833 19.615,296.833 19.823 M367.750 20.264 L 367.083 20.857 367.875 20.337 C 368.310 20.051,368.667 19.783,368.667 19.742 C 368.667 19.547,368.360 19.722,367.750 20.264 M252.000 19.902 C 252.000 19.940,252.375 20.202,252.833 20.484 C 253.292 20.766,253.667 21.073,253.667 21.165 C 253.667 21.258,253.779 21.333,253.917 21.333 C 254.054 21.333,254.167 21.421,254.167 21.528 C 254.167 21.635,254.220 21.669,254.285 21.604 C 254.414 21.475,253.776 20.893,252.795 20.244 C 252.188 19.843,252.000 19.762,252.000 19.902 M345.714 20.487 C 346.099 20.847,346.452 21.103,346.498 21.057 C 346.604 20.951,345.395 19.833,345.176 19.833 C 345.086 19.833,345.328 20.128,345.714 20.487 M391.500 20.125 C 391.500 20.196,391.650 20.347,391.833 20.461 C 392.017 20.576,392.167 20.612,392.167 20.542 C 392.167 20.471,392.017 20.320,391.833 20.205 C 391.650 20.091,391.500 20.055,391.500 20.125 M325.040 20.958 C 323.653 22.555,323.515 22.740,323.145 23.488 C 322.441 24.912,322.553 24.804,323.772 22.886 C 324.151 22.290,324.718 21.527,325.033 21.192 C 325.599 20.588,325.911 20.167,325.790 20.167 C 325.756 20.167,325.418 20.523,325.040 20.958 M47.500 20.626 C 47.500 20.718,47.612 20.886,47.750 21.000 C 47.889 21.116,48.000 21.134,48.000 21.041 C 48.000 20.949,47.887 20.781,47.750 20.667 C 47.611 20.551,47.500 20.533,47.500 20.626 M187.936 20.937 C 188.221 21.201,188.633 21.525,188.852 21.656 C 190.008 22.353,190.693 22.695,190.772 22.617 C 190.821 22.568,190.573 22.394,190.222 22.230 C 189.871 22.066,189.096 21.600,188.500 21.194 C 187.776 20.701,187.589 20.616,187.936 20.937 M227.938 20.885 C 227.447 21.197,225.667 22.910,225.667 23.070 C 225.667 23.149,226.129 22.754,226.694 22.193 C 227.259 21.631,227.859 21.128,228.027 21.075 C 228.196 21.021,228.333 20.908,228.333 20.822 C 228.333 20.635,228.330 20.635,227.938 20.885 M161.595 21.329 C 161.955 21.601,162.320 21.826,162.405 21.829 C 162.490 21.831,162.265 21.610,161.905 21.338 C 161.545 21.066,161.180 20.841,161.095 20.838 C 161.010 20.835,161.235 21.056,161.595 21.329 M366.505 21.121 C 366.287 21.367,366.293 21.384,366.561 21.282 C 366.726 21.218,366.892 21.167,366.930 21.167 C 366.969 21.167,367.000 21.092,367.000 21.000 C 367.000 20.755,366.784 20.808,366.505 21.121 M137.583 21.357 C 136.472 22.369,135.152 23.720,134.755 24.252 C 134.483 24.618,135.062 24.096,136.043 23.093 C 137.522 21.580,138.289 20.715,137.583 21.357 M36.181 21.395 C 36.219 21.428,36.550 21.501,36.917 21.557 C 37.381 21.628,37.482 21.613,37.250 21.508 C 36.930 21.363,36.037 21.268,36.181 21.395 M82.276 21.458 C 82.233 21.527,82.484 21.583,82.833 21.583 C 83.182 21.583,83.433 21.527,83.391 21.458 C 83.348 21.390,83.098 21.333,82.833 21.333 C 82.569 21.333,82.318 21.390,82.276 21.458 M271.654 21.772 C 271.269 22.190,271.267 22.200,271.622 21.984 C 271.826 21.859,272.030 21.662,272.075 21.545 C 272.194 21.234,272.105 21.282,271.654 21.772 M365.636 21.867 C 365.389 22.123,365.277 22.332,365.386 22.330 C 365.640 22.327,366.385 21.546,366.213 21.463 C 366.142 21.429,365.882 21.610,365.636 21.867 M393.699 22.098 C 394.094 22.518,394.672 23.137,394.985 23.473 C 395.297 23.808,395.485 23.961,395.401 23.812 C 395.166 23.389,393.273 21.333,393.119 21.333 C 393.043 21.333,393.305 21.677,393.699 22.098 M27.183 21.875 L 26.953 22.250 27.351 21.918 C 27.571 21.736,27.781 21.567,27.819 21.543 C 27.858 21.520,27.782 21.500,27.651 21.500 C 27.520 21.500,27.310 21.669,27.183 21.875 M33.633 21.764 C 33.202 21.897,32.810 22.070,32.761 22.149 C 32.712 22.228,32.952 22.192,33.295 22.070 C 33.637 21.948,34.048 21.845,34.208 21.841 C 34.369 21.837,34.500 21.758,34.500 21.667 C 34.500 21.575,34.481 21.505,34.458 21.512 C 34.435 21.518,34.064 21.632,33.633 21.764 M79.666 21.771 L 79.250 22.014 79.667 21.903 C 80.131 21.779,80.256 21.700,80.153 21.597 C 80.114 21.559,79.895 21.637,79.666 21.771 M85.417 21.632 C 85.593 21.812,86.833 22.192,86.833 22.066 C 86.833 21.988,86.363 21.795,85.667 21.587 C 85.384 21.503,85.304 21.517,85.417 21.632 M177.846 21.599 C 177.825 21.892,178.342 22.833,178.524 22.833 C 178.615 22.833,178.545 22.627,178.368 22.375 C 178.192 22.123,178.005 21.804,177.954 21.667 C 177.902 21.529,177.854 21.499,177.846 21.599 M154.000 21.815 C 154.137 21.914,154.362 21.997,154.500 21.998 C 154.637 22.000,154.975 22.114,155.250 22.251 L 155.750 22.501 155.357 22.167 C 155.140 21.983,154.828 21.833,154.662 21.833 C 154.496 21.833,154.223 21.789,154.055 21.734 C 153.801 21.652,153.792 21.665,154.000 21.815 M77.845 22.217 C 77.347 22.407,77.017 22.589,77.111 22.620 C 77.301 22.684,78.833 22.063,78.833 21.923 C 78.833 21.873,78.815 21.842,78.792 21.852 C 78.769 21.862,78.343 22.026,77.845 22.217 M144.333 22.091 C 144.092 22.225,144.022 22.323,144.167 22.325 C 144.464 22.329,144.940 22.051,144.828 21.939 C 144.785 21.896,144.562 21.964,144.333 22.091 M347.333 22.066 C 347.333 22.193,347.457 22.345,347.607 22.403 C 347.987 22.549,347.997 22.467,347.639 22.125 C 347.406 21.903,347.333 21.889,347.333 22.066 M69.085 22.498 C 68.411 23.201,68.626 23.255,69.373 22.570 C 69.715 22.257,69.898 22.000,69.779 22.000 C 69.660 22.000,69.348 22.224,69.085 22.498 M87.333 22.242 C 87.562 22.369,87.785 22.437,87.828 22.394 C 87.940 22.282,87.464 22.004,87.167 22.008 C 87.022 22.010,87.092 22.109,87.333 22.242 M31.917 22.423 C 31.498 22.624,31.484 22.647,31.833 22.563 C 32.063 22.508,32.321 22.396,32.408 22.315 C 32.624 22.113,32.506 22.139,31.917 22.423 M41.251 22.335 C 41.309 22.429,41.745 22.703,42.220 22.943 C 43.636 23.661,44.960 24.814,46.637 26.793 L 47.024 27.250 46.720 26.693 C 46.316 25.953,44.051 23.799,42.957 23.115 C 41.918 22.466,41.101 22.092,41.251 22.335 M49.940 23.125 C 50.273 23.560,50.622 24.085,50.716 24.292 C 50.810 24.498,50.941 24.667,51.007 24.667 C 51.072 24.667,51.219 24.892,51.333 25.167 C 51.447 25.442,51.609 25.667,51.692 25.667 C 51.840 25.667,50.856 24.009,50.398 23.487 C 50.271 23.342,50.167 23.173,50.167 23.112 C 50.167 22.983,49.541 22.333,49.418 22.333 C 49.373 22.333,49.608 22.690,49.940 23.125 M270.648 22.792 C 269.886 23.634,269.748 23.856,270.060 23.736 C 270.210 23.678,270.333 23.560,270.333 23.473 C 270.333 23.386,270.575 23.094,270.870 22.824 C 271.166 22.554,271.330 22.333,271.235 22.333 C 271.140 22.333,270.876 22.540,270.648 22.792 M88.347 22.557 C 88.686 22.833,90.333 23.600,90.333 23.482 C 90.333 23.398,89.912 23.143,89.396 22.915 C 88.542 22.537,88.165 22.408,88.347 22.557 M255.675 22.956 C 255.886 23.253,256.099 23.457,256.146 23.410 C 256.193 23.362,256.020 23.119,255.761 22.870 L 255.290 22.417 255.675 22.956 M300.211 22.735 C 300.370 22.894,300.503 23.075,300.506 23.137 C 300.510 23.199,300.855 23.625,301.272 24.083 C 301.690 24.542,301.972 24.804,301.898 24.667 C 301.670 24.237,300.293 22.587,300.103 22.515 C 300.004 22.477,300.053 22.576,300.211 22.735 M25.948 23.369 C 25.690 23.735,25.510 24.066,25.548 24.104 C 25.587 24.142,25.822 23.865,26.071 23.488 C 26.660 22.599,26.559 22.502,25.948 23.369 M30.167 23.292 C 29.662 23.623,28.988 24.155,28.667 24.474 L 28.083 25.054 28.667 24.604 C 28.988 24.356,29.695 23.855,30.240 23.490 C 31.351 22.745,31.453 22.662,31.236 22.679 C 31.152 22.685,30.671 22.962,30.167 23.292 M142.497 22.921 C 142.381 23.060,142.249 23.138,142.203 23.092 C 142.089 22.978,141.167 23.653,141.167 23.851 C 141.167 23.940,141.331 23.860,141.531 23.673 C 141.732 23.486,141.976 23.332,142.073 23.330 C 142.318 23.324,143.128 22.675,142.895 22.670 C 142.792 22.668,142.613 22.781,142.497 22.921 M94.843 23.370 C 95.113 23.666,95.333 23.966,95.333 24.037 C 95.333 24.108,95.412 24.167,95.508 24.167 C 95.604 24.167,95.441 23.867,95.147 23.500 C 94.852 23.133,94.553 22.833,94.482 22.833 C 94.410 22.833,94.573 23.075,94.843 23.370 M163.584 23.168 C 163.751 23.352,163.921 23.468,163.963 23.426 C 164.054 23.335,163.578 22.833,163.403 22.833 C 163.336 22.833,163.418 22.984,163.584 23.168 M75.384 23.430 L 74.917 23.859 75.458 23.560 C 75.756 23.396,76.000 23.203,76.000 23.131 C 76.000 22.917,75.877 22.977,75.384 23.430 M192.500 23.362 C 192.729 23.457,193.055 23.607,193.225 23.695 C 193.394 23.784,193.574 23.815,193.625 23.764 C 193.733 23.656,192.612 23.161,192.297 23.178 C 192.179 23.184,192.271 23.267,192.500 23.362 M379.083 23.518 C 378.617 23.627,378.626 23.634,379.220 23.616 C 379.570 23.606,379.886 23.550,379.921 23.493 C 380.003 23.361,379.719 23.369,379.083 23.518 M380.167 23.531 C 380.167 23.606,380.485 23.670,380.875 23.674 C 381.265 23.678,381.908 23.744,382.305 23.821 C 382.702 23.897,382.965 23.900,382.888 23.826 C 382.695 23.639,380.167 23.365,380.167 23.531 M67.978 23.723 C 67.511 24.214,67.173 24.667,67.275 24.667 C 67.441 24.667,68.371 23.649,68.284 23.562 C 68.241 23.519,68.104 23.592,67.978 23.723 M224.786 23.930 C 224.563 24.229,224.549 24.304,224.732 24.234 C 224.865 24.183,225.019 24.023,225.074 23.880 C 225.230 23.474,225.112 23.494,224.786 23.930 M283.769 23.637 C 283.722 23.712,283.905 23.741,284.175 23.701 C 284.446 23.661,284.667 23.600,284.667 23.564 C 284.667 23.437,283.851 23.503,283.769 23.637 M377.583 23.619 C 377.400 23.663,377.181 23.764,377.098 23.844 C 377.014 23.923,377.239 23.908,377.598 23.810 C 378.565 23.546,378.553 23.386,377.583 23.619 M91.583 24.393 C 91.950 24.721,92.381 25.034,92.542 25.089 C 92.702 25.144,92.833 25.256,92.833 25.338 C 92.833 25.420,93.131 25.762,93.495 26.099 C 93.859 26.435,94.434 27.113,94.773 27.605 C 95.112 28.097,95.420 28.468,95.459 28.430 C 95.647 28.242,93.337 25.543,92.305 24.745 C 91.378 24.029,90.934 23.812,91.583 24.393 M239.667 24.000 L 238.917 24.117 239.698 24.142 C 240.129 24.155,240.527 24.092,240.583 24.000 C 240.640 23.908,240.626 23.845,240.552 23.858 C 240.477 23.872,240.079 23.936,239.667 24.000 M240.917 23.958 C 241.115 24.166,242.500 24.315,242.500 24.129 C 242.500 24.058,242.244 24.000,241.930 24.000 C 241.617 24.000,241.223 23.951,241.055 23.892 C 240.846 23.818,240.802 23.839,240.917 23.958 M140.315 24.324 C 140.096 24.506,139.992 24.656,140.083 24.656 C 140.322 24.656,140.909 24.187,140.803 24.081 C 140.754 24.032,140.535 24.141,140.315 24.324 M269.427 24.263 C 269.145 24.545,268.776 25.167,268.891 25.167 C 268.929 25.167,269.161 24.904,269.405 24.583 C 269.869 23.975,269.881 23.810,269.427 24.263 M281.167 24.208 C 281.167 24.378,281.530 24.362,281.817 24.180 C 281.985 24.074,281.925 24.039,281.609 24.058 C 281.366 24.072,281.167 24.140,281.167 24.208 M322.172 24.167 C 322.172 24.454,322.450 24.946,322.546 24.829 C 322.582 24.785,322.512 24.563,322.391 24.333 C 322.270 24.104,322.172 24.029,322.172 24.167 M195.667 24.404 C 195.896 24.542,196.196 24.655,196.333 24.656 C 196.668 24.657,196.271 24.424,195.667 24.263 L 195.250 24.153 195.667 24.404 M243.428 24.315 C 243.605 24.477,244.637 24.748,244.481 24.592 C 244.425 24.536,244.130 24.418,243.826 24.331 C 243.521 24.244,243.342 24.236,243.428 24.315 M280.125 24.599 C 279.324 25.001,279.017 25.292,279.708 24.994 C 279.915 24.905,280.290 24.750,280.542 24.650 C 280.794 24.550,281.000 24.400,281.000 24.317 C 281.000 24.234,280.981 24.175,280.958 24.184 C 280.935 24.194,280.560 24.381,280.125 24.599 M290.500 24.275 C 290.500 24.371,290.819 24.587,291.208 24.756 C 291.598 24.925,292.048 25.173,292.208 25.307 C 292.369 25.442,292.499 25.484,292.498 25.401 C 292.495 25.209,291.410 24.500,291.119 24.500 C 290.999 24.500,290.810 24.410,290.700 24.300 C 290.577 24.177,290.500 24.167,290.500 24.275 M335.167 24.326 C 335.167 24.490,335.812 24.743,335.930 24.626 C 335.969 24.586,335.814 24.469,335.584 24.364 C 335.354 24.259,335.167 24.242,335.167 24.326 M349.062 24.625 C 349.216 24.923,349.370 25.167,349.405 25.167 C 349.558 25.167,349.273 24.491,349.040 24.297 C 348.822 24.116,348.825 24.167,349.062 24.625 M363.391 24.424 C 363.241 24.815,363.403 24.861,363.633 24.492 C 363.761 24.286,363.773 24.167,363.663 24.167 C 363.568 24.167,363.445 24.282,363.391 24.424 M374.833 24.417 C 374.604 24.548,374.492 24.655,374.583 24.655 C 374.675 24.655,374.938 24.548,375.167 24.417 C 375.396 24.286,375.508 24.178,375.417 24.178 C 375.325 24.178,375.063 24.286,374.833 24.417 M395.924 24.769 C 396.645 25.753,396.760 25.829,396.278 25.002 C 396.039 24.590,395.754 24.224,395.646 24.187 C 395.537 24.151,395.662 24.413,395.924 24.769 M73.450 24.763 C 72.859 25.311,72.866 25.510,73.458 24.987 C 73.710 24.765,73.948 24.565,73.986 24.542 C 74.024 24.519,74.021 24.465,73.978 24.423 C 73.935 24.380,73.698 24.533,73.450 24.763 M330.417 24.500 C 330.295 24.697,330.458 24.697,330.917 24.500 C 331.238 24.362,331.237 24.356,330.885 24.345 C 330.684 24.339,330.473 24.408,330.417 24.500 M384.725 24.448 C 384.872 24.594,386.000 24.984,386.000 24.889 C 386.000 24.808,384.911 24.333,384.728 24.333 C 384.664 24.333,384.663 24.385,384.725 24.448 M224.188 24.650 C 224.062 24.730,223.993 24.897,224.035 25.022 C 224.088 25.180,224.172 25.135,224.311 24.875 C 224.533 24.460,224.521 24.439,224.188 24.650 M374.017 24.730 C 373.908 24.860,373.635 25.014,373.410 25.070 C 373.014 25.169,372.827 25.500,373.167 25.500 C 373.258 25.500,373.333 25.425,373.333 25.333 C 373.333 25.242,373.431 25.167,373.551 25.167 C 373.846 25.167,374.442 24.719,374.315 24.593 C 374.260 24.537,374.125 24.599,374.017 24.730 M196.833 24.734 C 196.833 24.772,197.171 24.917,197.583 25.058 C 197.996 25.198,198.333 25.255,198.333 25.183 C 198.333 25.111,198.043 24.966,197.689 24.860 C 196.996 24.652,196.833 24.628,196.833 24.734 M245.071 24.920 C 245.248 25.054,245.433 25.122,245.483 25.073 C 245.588 24.968,245.164 24.670,244.917 24.675 C 244.825 24.676,244.895 24.787,245.071 24.920 M179.942 25.088 C 179.995 25.228,180.190 25.423,180.373 25.521 C 180.704 25.698,180.704 25.695,180.395 25.272 C 180.050 24.798,179.790 24.692,179.942 25.088 M362.683 25.553 C 361.982 26.785,361.168 28.412,361.167 28.579 C 361.166 28.811,361.600 28.153,361.737 27.714 C 361.800 27.511,362.159 26.816,362.533 26.169 C 362.908 25.522,363.184 24.962,363.147 24.924 C 363.109 24.887,362.900 25.170,362.683 25.553 M133.977 25.292 C 133.353 26.045,133.248 26.222,133.467 26.149 C 133.586 26.110,133.837 25.835,134.025 25.539 C 134.394 24.957,134.367 24.820,133.977 25.292 M27.582 25.397 C 27.491 25.523,27.161 25.992,26.848 26.438 L 26.279 27.250 26.802 26.750 C 27.089 26.475,27.326 26.174,27.329 26.082 C 27.331 25.989,27.483 25.820,27.667 25.705 C 27.850 25.591,28.000 25.423,28.000 25.332 C 28.000 25.094,27.776 25.129,27.582 25.397 M96.272 25.519 C 96.468 25.738,96.805 26.384,97.022 26.956 C 97.400 27.952,97.667 28.280,97.667 27.750 C 97.667 27.613,97.592 27.500,97.500 27.500 C 97.408 27.500,97.333 27.405,97.333 27.288 C 97.333 26.918,96.411 25.276,96.159 25.197 C 96.005 25.149,96.046 25.266,96.272 25.519 M278.297 25.709 C 277.865 26.007,277.508 26.311,277.505 26.385 C 277.500 26.524,278.963 25.528,279.107 25.295 C 279.238 25.083,279.120 25.144,278.297 25.709 M386.593 25.411 C 387.016 25.732,387.264 25.735,387.000 25.417 C 386.886 25.279,386.675 25.167,386.531 25.167 C 386.322 25.167,386.334 25.215,386.593 25.411 M160.333 25.476 C 160.333 25.552,160.483 25.751,160.667 25.917 C 160.850 26.083,161.000 26.148,161.000 26.063 C 161.000 25.977,160.850 25.779,160.667 25.622 C 160.483 25.465,160.333 25.399,160.333 25.476 M327.375 26.010 C 326.894 26.380,326.500 26.725,326.500 26.778 C 326.500 26.831,326.639 26.771,326.809 26.645 C 328.072 25.710,328.529 25.334,328.400 25.336 C 328.318 25.338,327.856 25.641,327.375 26.010 M138.786 25.930 C 138.563 26.229,138.549 26.304,138.732 26.234 C 138.865 26.183,139.019 26.023,139.074 25.880 C 139.230 25.474,139.112 25.494,138.786 25.930 M302.356 25.583 C 302.391 25.675,302.689 26.275,303.019 26.917 C 303.348 27.558,303.752 28.442,303.917 28.880 C 304.286 29.864,304.549 30.088,304.223 29.141 C 303.931 28.294,302.705 25.810,302.467 25.583 C 302.350 25.472,302.313 25.472,302.356 25.583 M338.327 25.779 C 338.553 25.946,338.885 26.252,339.066 26.458 C 339.246 26.665,339.458 26.833,339.537 26.833 C 339.763 26.833,338.969 26.071,338.417 25.758 C 337.921 25.477,337.920 25.477,338.327 25.779 M372.310 25.828 C 372.094 26.008,371.976 26.158,372.049 26.161 C 372.121 26.164,372.342 26.017,372.538 25.833 C 373.000 25.404,372.824 25.399,372.310 25.828 M349.686 25.750 C 349.689 25.842,349.836 26.217,350.012 26.583 C 350.188 26.950,350.286 27.063,350.229 26.833 C 350.111 26.361,349.677 25.495,349.686 25.750 M247.269 26.073 C 247.324 26.216,247.436 26.333,247.519 26.333 C 247.601 26.333,248.118 26.772,248.668 27.308 C 249.825 28.437,250.014 28.440,248.933 27.311 C 248.026 26.366,247.123 25.693,247.269 26.073 M387.703 26.255 C 387.953 26.518,388.186 26.699,388.223 26.658 C 388.260 26.617,388.056 26.402,387.770 26.181 L 387.250 25.779 387.703 26.255 M66.167 26.250 C 66.049 26.392,65.990 26.546,66.036 26.591 C 66.082 26.637,66.216 26.559,66.333 26.417 C 66.451 26.275,66.510 26.121,66.464 26.075 C 66.418 26.029,66.284 26.108,66.167 26.250 M258.057 26.415 C 258.163 26.644,258.305 26.831,258.371 26.832 C 258.438 26.833,258.407 26.646,258.303 26.417 C 258.199 26.188,258.057 26.000,257.989 26.000 C 257.921 26.000,257.951 26.187,258.057 26.415 M71.531 26.620 C 71.331 26.869,71.167 27.146,71.167 27.236 C 71.167 27.339,71.214 27.341,71.294 27.242 C 71.364 27.155,71.602 26.877,71.823 26.625 C 72.044 26.373,72.151 26.167,72.060 26.167 C 71.970 26.167,71.731 26.370,71.531 26.620 M181.333 26.289 C 181.333 26.455,182.882 27.667,183.095 27.667 C 183.147 27.667,183.428 27.842,183.719 28.056 C 184.656 28.744,186.961 29.842,186.750 29.499 C 186.693 29.408,186.539 29.333,186.407 29.333 C 186.275 29.333,186.167 29.258,186.167 29.167 C 186.167 29.075,186.088 29.000,185.991 29.000 C 185.766 29.000,184.566 28.419,183.917 27.996 C 183.642 27.817,183.304 27.619,183.167 27.557 C 182.885 27.429,182.065 26.807,181.625 26.387 C 181.465 26.234,181.333 26.189,181.333 26.289 M233.477 26.486 C 233.260 26.661,233.121 26.839,233.167 26.881 C 233.213 26.922,233.436 26.779,233.663 26.562 C 234.158 26.088,234.031 26.036,233.477 26.486 M293.672 26.297 C 293.675 26.363,293.868 26.555,294.100 26.725 C 294.521 27.031,294.522 27.031,294.307 26.687 C 294.089 26.337,293.662 26.075,293.672 26.297 M161.173 26.375 C 161.166 26.522,162.330 28.167,162.442 28.167 C 162.553 28.167,161.988 27.238,161.552 26.706 C 161.347 26.455,161.176 26.306,161.173 26.375 M137.535 27.568 C 137.149 28.155,136.833 28.697,136.833 28.772 C 136.833 28.848,137.103 28.498,137.432 27.996 C 137.761 27.494,138.148 26.952,138.291 26.792 C 138.434 26.631,138.481 26.500,138.395 26.500 C 138.308 26.500,137.921 26.980,137.535 27.568 M202.392 26.614 C 202.538 26.761,203.667 27.151,203.667 27.055 C 203.667 26.975,202.578 26.500,202.394 26.500 C 202.330 26.500,202.329 26.551,202.392 26.614 M267.676 27.104 C 267.480 27.437,267.347 27.736,267.380 27.769 C 267.414 27.802,267.609 27.530,267.814 27.165 C 268.281 26.334,268.162 26.282,267.676 27.104 M371.106 26.906 C 370.716 27.500,370.769 27.627,371.186 27.097 C 371.379 26.851,371.502 26.613,371.458 26.569 C 371.414 26.525,371.256 26.677,371.106 26.906 M389.007 27.675 C 389.415 28.163,389.725 28.592,389.694 28.628 C 389.664 28.665,389.677 28.733,389.724 28.779 C 389.977 29.033,389.683 28.324,389.370 27.925 C 389.166 27.667,389.000 27.408,389.000 27.351 C 389.000 27.294,388.834 27.143,388.632 27.017 C 388.411 26.879,388.562 27.144,389.007 27.675 M258.513 27.127 C 258.506 27.243,258.567 27.468,258.650 27.627 C 258.732 27.786,258.877 28.104,258.972 28.333 C 259.066 28.563,259.147 28.637,259.151 28.500 C 259.160 28.189,258.532 26.837,258.513 27.127 M276.556 27.376 C 276.126 27.856,275.500 28.768,275.500 28.914 C 275.500 28.975,275.688 28.803,275.917 28.530 C 276.146 28.258,276.333 27.980,276.333 27.912 C 276.333 27.844,276.495 27.649,276.693 27.477 C 276.891 27.305,277.017 27.128,276.972 27.083 C 276.927 27.038,276.740 27.170,276.556 27.376 M339.838 27.024 C 339.836 27.082,340.137 27.495,340.507 27.940 C 340.878 28.386,341.402 29.200,341.672 29.750 C 341.943 30.300,342.141 30.600,342.113 30.417 C 342.000 29.668,339.864 26.482,339.838 27.024 M132.534 27.845 C 132.326 28.205,132.220 28.500,132.297 28.500 C 132.441 28.500,133.057 27.334,132.963 27.241 C 132.934 27.212,132.741 27.484,132.534 27.845 M294.943 27.794 C 295.638 28.745,295.752 28.820,295.331 28.049 C 295.120 27.664,294.844 27.309,294.717 27.261 C 294.591 27.212,294.692 27.452,294.943 27.794 M397.557 27.582 C 397.663 27.810,397.809 27.998,397.881 27.999 C 398.034 28.000,397.735 27.395,397.515 27.259 C 397.432 27.208,397.451 27.353,397.557 27.582 M70.587 27.876 C 70.107 28.665,70.086 28.747,70.463 28.371 C 70.755 28.078,71.121 27.331,70.970 27.334 C 70.940 27.335,70.768 27.579,70.587 27.876 M350.333 27.551 C 350.333 27.671,350.450 27.915,350.593 28.093 C 350.841 28.403,350.844 28.401,350.668 28.038 C 350.567 27.830,350.530 27.586,350.585 27.497 C 350.641 27.407,350.607 27.333,350.510 27.333 C 350.413 27.333,350.333 27.431,350.333 27.551 M23.546 27.833 C 23.560 28.017,23.590 28.167,23.613 28.167 C 23.636 28.167,23.735 28.017,23.833 27.833 C 23.974 27.570,23.960 27.500,23.766 27.500 C 23.623 27.500,23.531 27.639,23.546 27.833 M52.500 27.531 C 52.500 27.585,52.616 27.881,52.758 28.189 C 53.016 28.748,53.016 28.748,52.913 28.250 C 52.824 27.818,52.500 27.254,52.500 27.531 M204.833 27.670 C 204.833 27.739,205.021 27.830,205.250 27.874 C 205.479 27.918,205.667 27.898,205.667 27.830 C 205.667 27.761,205.479 27.670,205.250 27.626 C 205.021 27.582,204.833 27.602,204.833 27.670 M370.333 27.643 C 370.333 27.722,370.143 28.067,369.911 28.409 C 369.679 28.752,369.581 29.001,369.695 28.963 C 369.967 28.872,370.727 27.500,370.505 27.500 C 370.411 27.500,370.333 27.565,370.333 27.643 M47.365 28.156 C 47.476 28.333,47.630 28.439,47.708 28.391 C 47.867 28.293,47.540 27.833,47.312 27.833 C 47.230 27.833,47.254 27.978,47.365 28.156 M205.943 27.946 C 205.826 28.063,207.762 29.169,208.076 29.164 C 208.263 29.162,207.677 28.797,207.000 28.496 C 206.771 28.394,206.465 28.203,206.320 28.071 C 206.175 27.940,206.005 27.884,205.943 27.946 M231.696 28.219 C 231.496 28.431,231.333 28.662,231.333 28.731 C 231.333 28.862,231.585 28.626,231.979 28.124 C 232.309 27.704,232.121 27.767,231.696 28.219 M325.333 27.958 C 325.333 28.027,325.146 28.301,324.916 28.568 C 324.687 28.834,324.500 29.128,324.500 29.220 C 324.500 29.313,324.523 29.358,324.551 29.319 C 324.579 29.281,324.848 28.931,325.149 28.542 C 325.449 28.152,325.613 27.833,325.514 27.833 C 325.415 27.833,325.333 27.890,325.333 27.958 M25.533 28.367 C 25.423 28.477,25.333 28.653,25.333 28.758 C 25.333 28.863,25.216 29.184,25.072 29.472 C 24.761 30.097,24.450 31.126,24.640 30.905 C 24.713 30.820,24.989 30.225,25.251 29.583 C 25.514 28.942,25.809 28.362,25.906 28.294 C 26.028 28.210,26.029 28.171,25.908 28.169 C 25.812 28.168,25.643 28.257,25.533 28.367 M167.167 28.535 C 167.167 28.677,167.291 28.895,167.444 29.021 C 167.698 29.230,167.703 29.214,167.505 28.833 C 167.214 28.275,167.167 28.233,167.167 28.535 M249.848 28.585 C 249.886 28.678,250.135 29.146,250.401 29.627 L 250.886 30.500 255.371 30.500 L 259.856 30.500 259.741 30.125 C 259.531 29.439,259.311 29.208,259.423 29.792 L 259.526 30.333 255.305 30.331 L 251.083 30.329 250.708 29.750 C 250.502 29.432,250.333 29.104,250.333 29.023 C 250.333 28.941,250.209 28.771,250.056 28.645 C 249.904 28.520,249.810 28.492,249.848 28.585 M398.135 29.075 C 398.282 29.400,398.459 29.667,398.527 29.667 C 398.700 29.667,398.237 28.607,398.033 28.539 C 397.941 28.508,397.987 28.750,398.135 29.075 M95.718 29.167 C 95.821 29.442,95.961 29.667,96.028 29.667 C 96.095 29.667,96.071 29.442,95.975 29.167 C 95.879 28.892,95.740 28.667,95.665 28.667 C 95.590 28.667,95.614 28.892,95.718 29.167 M69.693 29.354 C 69.323 29.946,68.940 31.165,69.251 30.760 C 69.388 30.582,69.500 30.306,69.500 30.147 C 69.500 29.987,69.619 29.739,69.763 29.594 C 69.908 29.449,70.002 29.255,69.971 29.164 C 69.941 29.072,69.815 29.157,69.693 29.354 M390.014 29.167 C 390.014 29.304,390.163 29.679,390.346 30.000 C 390.596 30.438,390.651 30.480,390.568 30.167 C 390.416 29.588,390.013 28.862,390.014 29.167 M266.593 29.603 C 266.440 30.215,266.561 30.252,266.785 29.660 C 266.887 29.389,266.911 29.167,266.837 29.167 C 266.763 29.167,266.654 29.363,266.593 29.603 M369.244 29.708 L 368.980 30.250 369.320 29.833 C 369.647 29.432,369.753 29.167,369.588 29.167 C 369.544 29.167,369.390 29.410,369.244 29.708 M163.095 29.708 C 163.221 30.115,163.667 30.820,163.667 30.615 C 163.667 30.386,163.185 29.333,163.081 29.333 C 163.024 29.333,163.030 29.502,163.095 29.708 M131.667 29.883 C 131.667 30.094,131.577 30.357,131.467 30.467 C 131.331 30.602,131.326 30.667,131.450 30.667 C 131.551 30.667,131.716 30.430,131.817 30.142 C 132.040 29.502,132.040 29.500,131.833 29.500 C 131.742 29.500,131.667 29.672,131.667 29.883 M167.968 30.792 C 168.190 31.502,168.403 32.188,168.440 32.316 C 168.477 32.443,168.541 32.515,168.581 32.474 C 168.684 32.372,167.806 29.500,167.672 29.500 C 167.613 29.500,167.746 30.081,167.968 30.792 M209.250 30.076 C 209.525 30.301,209.924 30.646,210.136 30.843 C 210.513 31.191,210.764 31.235,210.533 30.912 C 210.353 30.662,209.036 29.667,208.885 29.667 C 208.811 29.667,208.975 29.851,209.250 30.076 M96.173 30.000 C 96.178 30.289,96.625 30.930,96.741 30.814 C 96.784 30.772,96.673 30.514,96.494 30.243 C 96.315 29.972,96.171 29.863,96.173 30.000 M187.835 29.949 C 187.836 30.086,188.685 30.537,188.774 30.448 C 188.801 30.421,188.600 30.268,188.328 30.107 C 188.056 29.946,187.834 29.875,187.835 29.949 M230.411 30.058 C 230.173 30.323,229.497 31.929,229.511 32.198 C 229.517 32.318,229.607 32.229,229.710 32.000 C 229.813 31.771,230.070 31.214,230.281 30.763 C 230.676 29.918,230.711 29.725,230.411 30.058 M221.246 30.513 C 221.088 31.009,221.219 31.048,221.444 30.571 C 221.549 30.349,221.572 30.167,221.496 30.167 C 221.419 30.167,221.306 30.322,221.246 30.513 M274.678 30.478 C 274.587 30.649,274.551 30.829,274.599 30.877 C 274.647 30.925,274.573 31.235,274.435 31.565 C 274.297 31.896,274.245 32.167,274.320 32.167 C 274.395 32.167,274.553 31.810,274.671 31.375 C 274.789 30.940,274.958 30.490,275.046 30.375 C 275.153 30.237,275.146 30.167,275.026 30.167 C 274.927 30.167,274.770 30.307,274.678 30.478 M398.758 30.708 C 398.820 30.915,398.939 31.157,399.023 31.246 C 399.107 31.336,399.091 31.167,398.988 30.871 C 398.777 30.266,398.582 30.128,398.758 30.708 M323.459 31.417 C 323.323 31.829,323.269 32.167,323.338 32.167 C 323.407 32.167,323.521 31.960,323.591 31.708 C 323.931 30.486,323.835 30.274,323.459 31.417 M304.717 31.121 C 304.746 31.325,304.821 31.543,304.885 31.607 C 305.061 31.784,305.017 31.283,304.830 31.000 C 304.700 30.802,304.676 30.827,304.717 31.121 M131.262 31.429 C 131.201 31.673,131.188 31.910,131.234 31.956 C 131.280 32.002,131.367 31.839,131.429 31.595 C 131.490 31.351,131.503 31.114,131.457 31.068 C 131.411 31.022,131.323 31.184,131.262 31.429 M68.828 31.509 C 68.728 31.698,68.674 31.939,68.710 32.046 C 68.746 32.153,68.859 31.999,68.962 31.704 C 69.174 31.097,69.104 30.995,68.828 31.509 M191.595 31.481 C 191.772 31.643,192.804 31.915,192.647 31.758 C 192.591 31.702,192.296 31.585,191.992 31.498 C 191.688 31.411,191.509 31.403,191.595 31.481 M211.092 31.743 C 211.354 31.969,211.602 32.121,211.641 32.081 C 211.732 31.990,210.972 31.346,210.766 31.339 C 210.683 31.336,210.830 31.518,211.092 31.743 M390.890 31.667 C 390.948 31.896,390.996 32.140,390.998 32.208 C 390.999 32.277,391.078 32.333,391.173 32.333 C 391.283 32.333,391.273 32.199,391.144 31.958 C 391.034 31.752,390.963 31.558,390.986 31.528 C 391.009 31.497,390.973 31.422,390.906 31.361 C 390.839 31.300,390.832 31.438,390.890 31.667 M266.078 31.750 C 266.035 31.887,265.963 32.116,265.919 32.259 C 265.874 32.401,265.902 32.477,265.982 32.428 C 266.062 32.379,266.163 32.150,266.207 31.919 C 266.294 31.464,266.204 31.346,266.078 31.750 M351.307 32.292 C 351.339 32.727,351.444 33.158,351.541 33.250 C 351.661 33.365,351.682 33.322,351.608 33.111 C 351.549 32.943,351.500 32.512,351.500 32.153 C 351.500 31.794,351.443 31.500,351.374 31.500 C 351.304 31.500,351.274 31.856,351.307 32.292 M368.500 31.653 C 368.500 31.737,368.454 31.925,368.399 32.070 C 368.343 32.215,368.364 32.333,368.446 32.333 C 368.527 32.333,368.609 32.146,368.628 31.917 C 368.647 31.688,368.626 31.500,368.581 31.500 C 368.537 31.500,368.500 31.569,368.500 31.653 M192.833 31.753 C 192.833 31.809,193.835 32.333,193.942 32.333 C 194.239 32.333,193.875 32.018,193.417 31.877 C 193.096 31.778,192.833 31.723,192.833 31.753 M24.120 32.370 C 24.070 32.671,23.976 33.048,23.913 33.208 C 23.845 33.380,23.874 33.500,23.982 33.500 C 24.084 33.500,24.154 33.444,24.139 33.375 C 24.123 33.306,24.170 32.965,24.242 32.617 C 24.314 32.269,24.337 31.948,24.293 31.904 C 24.248 31.859,24.171 32.069,24.120 32.370 M63.937 32.090 C 63.880 32.239,63.840 32.486,63.848 32.639 C 63.856 32.792,63.928 32.695,64.009 32.425 C 64.166 31.899,64.110 31.639,63.937 32.090 M304.952 32.169 C 305.001 32.354,305.119 32.554,305.215 32.613 C 305.325 32.681,305.349 32.613,305.278 32.430 C 305.217 32.270,305.167 32.071,305.167 31.986 C 305.167 31.902,305.099 31.833,305.016 31.833 C 304.933 31.833,304.904 31.985,304.952 32.169 M220.741 32.574 C 220.678 32.909,220.664 33.220,220.710 33.266 C 220.756 33.311,220.845 33.075,220.907 32.741 C 220.970 32.406,220.984 32.095,220.938 32.049 C 220.892 32.003,220.803 32.240,220.741 32.574 M48.918 32.500 C 49.115 33.173,49.354 33.490,49.231 32.917 C 49.172 32.642,49.050 32.342,48.960 32.250 C 48.852 32.141,48.838 32.226,48.918 32.500 M194.500 32.417 C 194.729 32.548,195.029 32.657,195.167 32.660 C 195.304 32.662,195.202 32.553,194.939 32.416 C 194.331 32.098,193.945 32.099,194.500 32.417 M68.548 32.542 C 68.543 32.656,68.482 32.900,68.412 33.083 C 68.325 33.311,68.339 33.364,68.457 33.250 C 68.701 33.014,68.886 32.333,68.706 32.333 C 68.623 32.333,68.552 32.427,68.548 32.542 M135.608 32.460 C 135.565 32.529,135.478 32.867,135.413 33.210 L 135.296 33.833 149.773 33.793 L 164.250 33.752 149.875 33.708 C 141.969 33.684,135.500 33.608,135.500 33.540 C 135.500 33.471,135.570 33.171,135.655 32.874 C 135.802 32.363,135.781 32.180,135.608 32.460 M211.841 32.681 C 211.943 32.872,212.060 32.995,212.101 32.955 C 212.217 32.838,211.981 32.333,211.810 32.333 C 211.724 32.333,211.739 32.490,211.841 32.681 M323.147 32.431 C 323.136 32.515,323.133 32.631,323.141 32.690 C 323.148 32.748,323.087 33.029,323.005 33.315 C 322.924 33.600,322.920 33.833,322.997 33.833 C 323.166 33.833,323.409 32.520,323.267 32.378 C 323.212 32.323,323.158 32.347,323.147 32.431 M168.587 33.250 C 169.000 35.348,168.992 35.320,168.915 34.417 C 168.829 33.397,168.713 32.821,168.566 32.686 C 168.506 32.629,168.515 32.883,168.587 33.250 M342.836 33.431 C 342.837 33.790,342.904 34.187,342.985 34.314 C 343.074 34.455,343.097 34.229,343.043 33.731 C 342.934 32.715,342.833 32.569,342.836 33.431 M130.833 33.570 C 130.833 33.791,130.784 34.110,130.723 34.278 C 130.663 34.446,130.670 34.533,130.738 34.472 C 130.937 34.292,131.148 33.167,130.982 33.167 C 130.900 33.167,130.833 33.348,130.833 33.570 M212.261 33.294 C 212.359 33.362,212.610 33.773,212.818 34.207 C 213.025 34.642,213.270 35.044,213.360 35.100 C 213.451 35.156,213.377 34.912,213.197 34.559 C 213.017 34.206,212.855 33.842,212.837 33.750 C 212.786 33.485,212.476 33.166,212.271 33.169 C 212.141 33.171,212.138 33.209,212.261 33.294 M97.317 33.495 C 97.267 33.630,97.293 34.112,97.376 34.566 C 97.458 35.021,97.501 35.867,97.471 36.447 C 97.441 37.026,97.473 37.501,97.542 37.500 C 97.691 37.500,97.679 35.452,97.521 34.167 C 97.460 33.662,97.368 33.360,97.317 33.495 M198.000 33.583 C 198.229 33.714,198.492 33.822,198.583 33.822 C 198.675 33.822,198.563 33.714,198.333 33.583 C 198.104 33.452,197.842 33.345,197.750 33.345 C 197.658 33.345,197.771 33.452,198.000 33.583 M305.293 33.917 C 305.336 34.146,305.401 34.333,305.436 34.333 C 305.471 34.333,305.500 34.146,305.500 33.917 C 305.500 33.688,305.435 33.500,305.356 33.500 C 305.277 33.500,305.249 33.688,305.293 33.917 M199.167 34.083 C 199.671 34.372,199.833 34.390,199.833 34.157 C 199.833 34.060,199.764 34.023,199.678 34.076 C 199.593 34.129,199.476 34.096,199.418 34.003 C 199.361 33.910,199.187 33.836,199.032 33.839 C 198.827 33.844,198.863 33.910,199.167 34.083 M49.245 44.333 C 49.245 49.696,49.266 51.890,49.292 49.208 C 49.317 46.527,49.317 42.140,49.292 39.458 C 49.266 36.777,49.245 38.971,49.245 44.333 M53.911 44.333 C 53.911 49.696,53.932 51.890,53.958 49.208 C 53.984 46.527,53.984 42.140,53.958 39.458 C 53.932 36.777,53.911 38.971,53.911 44.333 M200.835 34.782 C 200.836 34.919,201.685 35.370,201.774 35.281 C 201.801 35.254,201.600 35.101,201.328 34.940 C 201.056 34.779,200.834 34.708,200.835 34.782 M343.078 44.417 C 343.078 49.642,343.099 51.755,343.125 49.113 C 343.151 46.471,343.151 42.196,343.125 39.613 C 343.099 37.030,343.078 39.192,343.078 44.417 M202.250 35.667 C 202.605 36.059,202.863 36.105,202.727 35.751 C 202.675 35.614,202.565 35.543,202.483 35.594 C 202.400 35.645,202.333 35.607,202.333 35.510 C 202.333 35.413,202.247 35.333,202.141 35.333 C 202.032 35.333,202.079 35.478,202.250 35.667 M213.611 36.368 C 213.961 37.625,213.999 37.724,214.088 37.635 C 214.131 37.591,214.063 37.209,213.936 36.786 C 213.809 36.364,213.735 35.987,213.773 35.949 C 213.811 35.912,213.734 35.792,213.604 35.683 C 213.400 35.514,213.401 35.613,213.611 36.368 M228.959 35.625 C 228.925 35.694,228.948 36.012,229.010 36.333 L 229.123 36.917 229.145 36.208 C 229.165 35.544,229.099 35.337,228.959 35.625 M63.539 36.167 C 63.539 36.487,63.573 36.619,63.615 36.458 C 63.657 36.298,63.657 36.035,63.615 35.875 C 63.573 35.715,63.539 35.846,63.539 36.167 M203.008 36.069 C 203.003 36.153,203.183 36.416,203.406 36.653 C 203.629 36.890,204.041 37.330,204.322 37.631 C 204.603 37.932,204.833 38.321,204.833 38.496 C 204.833 38.671,204.908 38.860,205.000 38.917 C 205.224 39.055,205.210 38.924,204.936 38.286 C 204.695 37.727,203.021 35.802,203.008 36.069 M359.875 36.583 C 359.877 36.950,359.911 37.080,359.951 36.873 C 359.991 36.666,359.990 36.366,359.948 36.206 C 359.906 36.047,359.874 36.217,359.875 36.583 M169.000 36.916 L 169.000 37.332 152.125 37.375 L 135.250 37.418 152.208 37.459 L 169.167 37.500 169.167 37.000 C 169.167 36.725,169.129 36.500,169.083 36.500 C 169.037 36.500,169.000 36.687,169.000 36.916 M229.003 37.264 C 229.004 37.440,229.081 37.696,229.174 37.833 C 229.298 38.016,229.313 37.948,229.232 37.583 C 229.095 36.971,228.999 36.837,229.003 37.264 M305.705 37.833 C 305.705 38.154,305.740 38.285,305.782 38.125 C 305.823 37.965,305.823 37.702,305.782 37.542 C 305.740 37.381,305.705 37.512,305.705 37.833 M130.833 38.379 C 130.833 38.710,130.904 39.024,130.990 39.077 C 131.084 39.135,131.108 38.920,131.050 38.545 C 130.921 37.708,130.833 37.641,130.833 38.379 M135.339 38.347 C 135.349 38.722,135.780 40.376,135.987 40.833 L 136.176 41.250 136.076 40.833 C 136.020 40.604,135.866 39.934,135.733 39.343 C 135.499 38.300,135.327 37.867,135.339 38.347 M274.183 38.375 C 274.234 39.017,274.469 39.393,274.443 38.792 C 274.429 38.448,274.360 38.167,274.292 38.167 C 274.223 38.167,274.174 38.260,274.183 38.375 M68.384 38.928 C 68.438 39.026,68.521 39.317,68.567 39.574 C 68.614 39.831,68.697 40.086,68.751 40.140 C 68.806 40.195,68.805 39.980,68.750 39.662 C 68.694 39.344,68.566 39.008,68.466 38.917 C 68.344 38.804,68.317 38.808,68.384 38.928 M63.775 39.417 C 63.994 40.389,64.170 40.792,64.067 40.083 C 64.013 39.717,63.900 39.304,63.816 39.167 C 63.713 38.999,63.699 39.082,63.775 39.417 M97.081 39.512 C 96.924 40.225,97.054 40.267,97.271 39.573 C 97.369 39.258,97.392 39.000,97.322 39.000 C 97.251 39.000,97.143 39.230,97.081 39.512 M360.119 39.503 C 360.167 39.687,360.286 39.887,360.382 39.947 C 360.492 40.015,360.515 39.947,360.445 39.764 C 360.384 39.604,360.333 39.404,360.333 39.320 C 360.333 39.236,360.265 39.167,360.182 39.167 C 360.099 39.167,360.071 39.318,360.119 39.503 M274.577 39.792 C 274.639 39.952,274.732 40.290,274.783 40.542 C 274.833 40.794,274.936 41.000,275.011 41.000 C 275.085 41.000,275.031 40.662,274.891 40.250 C 274.750 39.837,274.597 39.500,274.550 39.500 C 274.503 39.500,274.515 39.631,274.577 39.792 M131.181 40.417 C 131.176 40.600,131.244 40.862,131.333 41.000 C 131.547 41.331,131.547 40.915,131.333 40.417 L 131.190 40.083 131.181 40.417 M360.341 40.356 C 360.337 40.506,360.443 40.881,360.577 41.189 C 360.892 41.914,360.899 41.614,360.588 40.750 C 360.456 40.383,360.345 40.206,360.341 40.356 M205.381 41.083 C 205.382 41.542,205.415 41.709,205.453 41.456 C 205.491 41.203,205.490 40.828,205.451 40.623 C 205.411 40.418,205.380 40.625,205.381 41.083 M221.197 40.917 C 221.302 41.147,221.410 41.312,221.437 41.285 C 221.539 41.184,221.289 40.500,221.151 40.500 C 221.072 40.500,221.093 40.688,221.197 40.917 M176.000 41.046 C 176.000 41.285,176.078 41.529,176.173 41.587 C 176.287 41.658,176.308 41.532,176.233 41.222 C 176.080 40.584,176.000 40.523,176.000 41.046 M250.684 41.375 C 250.557 41.673,250.289 42.142,250.090 42.417 C 249.535 43.181,249.424 43.477,249.903 42.917 C 250.138 42.642,250.499 42.099,250.705 41.711 L 251.080 41.005 255.332 40.958 L 259.583 40.911 255.249 40.872 L 250.915 40.833 250.684 41.375 M259.505 41.404 C 259.242 42.096,259.314 42.325,259.592 41.683 C 259.728 41.371,259.802 41.080,259.757 41.035 C 259.713 40.990,259.599 41.157,259.505 41.404 M69.108 41.294 C 69.005 41.460,69.424 42.141,69.542 42.000 C 69.580 41.954,69.519 41.741,69.408 41.527 C 69.296 41.313,69.161 41.208,69.108 41.294 M64.346 41.843 C 64.339 41.986,64.450 42.249,64.593 42.426 C 64.848 42.745,64.849 42.745,64.698 42.417 C 64.614 42.233,64.503 41.971,64.452 41.833 C 64.372 41.617,64.358 41.619,64.346 41.843 M96.187 42.105 C 95.910 42.714,96.031 42.748,96.370 42.156 C 96.525 41.887,96.592 41.667,96.519 41.667 C 96.446 41.667,96.297 41.864,96.187 42.105 M266.794 42.375 C 267.068 43.103,267.337 43.552,267.438 43.451 C 267.469 43.420,267.346 43.102,267.164 42.745 C 266.982 42.388,266.833 42.000,266.833 41.881 C 266.833 41.763,266.764 41.667,266.680 41.667 C 266.596 41.667,266.647 41.985,266.794 42.375 M360.869 42.292 C 361.177 43.019,361.336 43.109,361.131 42.442 C 361.028 42.107,360.883 41.833,360.809 41.833 C 360.735 41.833,360.761 42.040,360.869 42.292 M136.537 42.292 C 136.572 42.360,136.739 42.717,136.908 43.083 C 137.076 43.450,137.244 43.666,137.281 43.563 C 137.345 43.380,136.713 42.167,136.553 42.167 C 136.509 42.167,136.501 42.223,136.537 42.292 M213.959 42.917 C 213.915 43.146,213.944 43.333,214.023 43.333 C 214.102 43.333,214.167 43.146,214.167 42.917 C 214.167 42.688,214.138 42.500,214.103 42.500 C 214.068 42.500,214.003 42.688,213.959 42.917 M132.000 42.912 C 132.000 43.194,132.520 44.202,132.616 44.106 C 132.678 44.045,132.639 43.906,132.531 43.797 C 132.422 43.689,132.333 43.469,132.333 43.310 C 132.333 43.150,132.258 42.973,132.167 42.917 C 132.075 42.860,132.000 42.858,132.000 42.912 M185.833 42.911 C 185.833 43.249,188.149 45.740,188.312 45.577 C 188.347 45.542,188.033 45.192,187.614 44.798 C 187.196 44.405,186.624 43.792,186.343 43.435 C 186.063 43.079,185.833 42.843,185.833 42.911 M276.167 43.018 C 276.168 43.146,276.599 43.704,277.126 44.259 C 277.652 44.814,277.934 45.076,277.752 44.842 C 277.569 44.608,277.335 44.340,277.231 44.247 C 277.128 44.154,276.846 43.787,276.605 43.432 C 276.364 43.077,276.167 42.891,276.167 43.018 M95.102 44.012 C 94.745 44.560,94.496 45.051,94.548 45.103 C 94.600 45.155,94.771 44.947,94.928 44.640 C 95.085 44.334,95.261 44.046,95.319 44.000 C 95.535 43.829,96.003 43.000,95.879 43.007 C 95.808 43.011,95.458 43.463,95.102 44.012 M390.434 43.264 C 390.372 43.426,390.409 43.502,390.531 43.462 C 390.780 43.379,390.917 43.000,390.698 43.000 C 390.609 43.000,390.490 43.119,390.434 43.264 M70.143 43.525 C 70.219 43.731,70.370 43.916,70.478 43.937 C 70.587 43.958,70.598 43.937,70.504 43.890 C 70.410 43.844,70.333 43.704,70.333 43.579 C 70.333 43.455,70.259 43.307,70.169 43.251 C 70.065 43.187,70.055 43.287,70.143 43.525 M232.333 43.917 C 232.738 44.329,233.143 44.667,233.234 44.667 C 233.324 44.667,233.035 44.329,232.592 43.917 C 232.149 43.504,231.744 43.167,231.692 43.167 C 231.640 43.167,231.928 43.504,232.333 43.917 M296.167 43.583 C 296.044 43.813,295.881 44.000,295.805 44.000 C 295.729 44.000,295.667 44.073,295.667 44.161 C 295.667 44.443,296.130 44.158,296.218 43.822 C 296.264 43.646,296.478 43.430,296.693 43.344 C 297.057 43.198,297.060 43.187,296.736 43.177 C 296.530 43.171,296.299 43.335,296.167 43.583 M204.792 43.513 C 204.631 43.607,204.500 43.790,204.500 43.921 C 204.500 44.051,204.162 44.495,203.750 44.908 C 203.024 45.634,202.729 46.070,203.260 45.632 C 203.836 45.156,205.335 43.309,205.120 43.338 C 205.100 43.341,204.952 43.420,204.792 43.513 M222.167 43.481 C 222.167 43.593,222.354 43.960,222.583 44.298 C 222.813 44.635,223.000 45.006,223.000 45.122 C 223.000 45.238,223.076 45.333,223.168 45.333 C 223.261 45.333,223.109 44.906,222.830 44.384 C 222.261 43.318,222.167 43.189,222.167 43.481 M370.500 43.416 C 370.500 43.462,370.800 43.818,371.167 44.207 C 371.940 45.028,372.071 44.982,371.336 44.148 C 371.062 43.837,370.837 43.527,370.836 43.458 C 370.833 43.322,370.500 43.281,370.500 43.416 M396.833 43.523 C 396.833 43.602,397.021 43.667,397.250 43.667 C 397.479 43.667,397.667 43.638,397.667 43.603 C 397.667 43.568,397.479 43.503,397.250 43.459 C 397.021 43.415,396.833 43.444,396.833 43.523 M249.043 43.759 C 248.930 43.882,248.892 44.016,248.960 44.057 C 249.028 44.098,249.176 44.031,249.290 43.908 C 249.404 43.785,249.441 43.651,249.373 43.610 C 249.306 43.569,249.157 43.636,249.043 43.759 M361.920 44.583 C 362.263 45.225,362.657 45.862,362.797 46.000 C 362.936 46.137,362.767 45.725,362.420 45.083 C 362.074 44.442,361.680 43.804,361.544 43.667 C 361.408 43.529,361.578 43.942,361.920 44.583 M97.609 44.368 C 97.556 44.570,97.548 44.770,97.590 44.812 C 97.632 44.854,97.681 44.783,97.699 44.653 C 97.717 44.523,97.778 45.204,97.833 46.167 L 97.935 47.917 97.967 45.958 C 97.997 44.154,97.844 43.471,97.609 44.368 M163.367 44.200 C 163.257 44.310,163.167 44.491,163.167 44.603 C 163.167 44.714,163.073 44.843,162.958 44.890 C 162.794 44.956,162.795 44.976,162.962 44.987 C 163.078 44.994,163.258 44.814,163.362 44.588 C 163.547 44.181,163.583 44.175,165.900 44.124 L 168.250 44.073 165.908 44.037 C 164.266 44.011,163.507 44.060,163.367 44.200 M398.214 44.833 C 398.020 45.292,397.892 45.667,397.928 45.667 C 397.965 45.667,398.184 45.292,398.417 44.833 C 398.649 44.375,398.778 44.000,398.703 44.000 C 398.628 44.000,398.408 44.375,398.214 44.833 M65.341 44.250 C 65.337 44.498,65.635 44.921,65.739 44.816 C 65.789 44.766,65.721 44.581,65.587 44.404 C 65.453 44.228,65.343 44.158,65.341 44.250 M248.458 44.399 C 248.298 44.520,248.167 44.666,248.167 44.721 C 248.167 44.909,248.640 44.643,248.732 44.404 C 248.842 44.118,248.829 44.117,248.458 44.399 M304.194 44.590 C 303.914 45.203,303.968 45.334,304.270 44.777 C 304.411 44.517,304.495 44.273,304.457 44.235 C 304.419 44.196,304.300 44.357,304.194 44.590 M258.259 44.704 C 257.966 45.122,257.930 45.333,258.150 45.333 C 258.233 45.333,258.379 45.108,258.475 44.833 C 258.682 44.239,258.614 44.198,258.259 44.704 M295.208 44.760 C 295.094 44.884,295.000 45.081,295.000 45.197 C 295.000 45.313,295.120 45.236,295.267 45.026 C 295.568 44.597,295.527 44.414,295.208 44.760 M132.833 44.714 C 132.833 44.952,133.231 45.667,133.364 45.667 C 133.443 45.667,133.379 45.460,133.221 45.208 C 132.847 44.610,132.833 44.593,132.833 44.714 M268.030 45.083 C 268.135 45.313,268.285 45.500,268.364 45.500 C 268.443 45.500,268.385 45.313,268.235 45.083 C 268.085 44.854,267.934 44.667,267.901 44.667 C 267.868 44.667,267.926 44.854,268.030 45.083 M372.013 44.928 C 371.997 45.153,372.659 45.735,373.324 46.079 C 374.098 46.479,373.933 46.265,373.010 45.673 C 372.558 45.383,372.151 45.056,372.107 44.948 C 372.059 44.830,372.021 44.823,372.013 44.928 M97.265 45.309 C 97.081 45.607,96.819 46.409,96.958 46.250 C 97.142 46.039,97.516 45.167,97.423 45.167 C 97.384 45.167,97.313 45.231,97.265 45.309 M93.773 45.773 C 93.519 46.008,93.356 46.245,93.411 46.300 C 93.465 46.354,93.710 46.199,93.955 45.955 C 94.534 45.375,94.374 45.215,93.773 45.773 M246.762 45.595 C 246.405 45.952,246.429 46.113,246.792 45.798 C 246.952 45.658,247.196 45.502,247.333 45.452 C 247.538 45.376,247.532 45.357,247.304 45.346 C 247.150 45.339,246.906 45.451,246.762 45.595 M303.349 46.167 C 303.067 46.625,302.892 46.999,302.960 46.998 C 303.086 46.995,304.056 45.333,303.931 45.333 C 303.893 45.333,303.631 45.708,303.349 46.167 M66.337 46.083 C 66.955 47.140,67.167 47.423,67.167 47.193 C 67.167 47.074,66.965 46.702,66.718 46.364 C 66.044 45.443,65.900 45.337,66.337 46.083 M388.250 45.699 C 388.067 45.803,387.879 45.940,387.833 46.003 C 387.787 46.066,387.525 46.239,387.250 46.386 C 386.975 46.533,386.829 46.656,386.926 46.660 C 387.127 46.668,388.667 45.719,388.667 45.587 C 388.667 45.471,388.639 45.479,388.250 45.699 M202.401 46.024 C 202.085 46.380,202.085 46.381,202.458 46.185 C 202.665 46.077,202.833 45.916,202.833 45.827 C 202.833 45.591,202.754 45.627,202.401 46.024 M278.833 45.816 C 278.833 46.027,279.491 46.398,279.625 46.264 C 279.679 46.210,279.640 46.167,279.540 46.167 C 279.439 46.167,279.239 46.049,279.095 45.905 C 278.951 45.761,278.833 45.721,278.833 45.816 M133.584 46.168 C 133.751 46.352,133.921 46.468,133.963 46.426 C 134.054 46.335,133.578 45.833,133.403 45.833 C 133.336 45.833,133.418 45.984,133.584 46.168 M138.833 45.860 C 138.833 46.016,140.010 47.212,140.088 47.134 C 140.128 47.094,139.862 46.770,139.497 46.414 C 139.132 46.057,138.833 45.808,138.833 45.860 M257.417 46.333 C 257.274 46.608,257.183 46.833,257.214 46.833 C 257.245 46.833,257.437 46.608,257.640 46.333 C 257.844 46.058,257.935 45.833,257.843 45.833 C 257.751 45.833,257.559 46.058,257.417 46.333 M161.833 46.417 C 161.618 46.646,161.511 46.831,161.596 46.828 C 161.738 46.823,162.425 46.000,162.287 46.000 C 162.253 46.000,162.049 46.188,161.833 46.417 M189.238 46.147 C 189.287 46.227,189.498 46.336,189.706 46.388 C 190.070 46.480,190.072 46.475,189.760 46.242 C 189.402 45.974,189.097 45.918,189.238 46.147 M72.451 46.576 C 72.615 46.802,72.849 47.026,72.971 47.076 C 73.092 47.125,73.017 46.945,72.804 46.675 C 72.336 46.083,72.027 45.997,72.451 46.576 M212.785 46.622 C 212.704 47.048,212.713 47.056,212.932 46.757 C 213.200 46.390,213.233 46.167,213.019 46.167 C 212.938 46.167,212.833 46.371,212.785 46.622 M223.951 46.568 C 224.115 46.789,224.275 46.902,224.305 46.819 C 224.335 46.737,224.247 46.556,224.109 46.418 C 223.718 46.027,223.618 46.122,223.951 46.568 M235.939 46.331 C 236.168 46.550,237.333 46.996,237.333 46.865 C 237.333 46.800,236.987 46.623,236.564 46.471 C 236.140 46.318,235.859 46.256,235.939 46.331 M177.918 46.668 C 178.084 46.852,178.256 46.966,178.301 46.922 C 178.412 46.810,177.997 46.333,177.787 46.333 C 177.692 46.333,177.751 46.484,177.918 46.668 M166.421 47.043 C 165.977 47.771,165.926 47.899,166.128 47.774 C 166.361 47.630,167.019 46.500,166.869 46.501 C 166.804 46.502,166.602 46.745,166.421 47.043 M244.017 46.763 C 243.237 47.008,242.890 47.214,243.427 47.114 C 244.592 46.896,245.015 46.778,245.095 46.648 C 245.217 46.451,244.904 46.485,244.017 46.763 M291.956 46.860 C 291.581 47.092,291.919 47.135,292.417 46.919 C 292.844 46.733,292.861 46.704,292.535 46.720 C 292.325 46.730,292.065 46.793,291.956 46.860 M134.520 47.500 C 134.815 47.867,135.097 48.125,135.148 48.074 C 135.199 48.023,135.166 47.930,135.075 47.866 C 134.984 47.802,134.778 47.544,134.617 47.292 C 134.457 47.040,134.249 46.833,134.155 46.833 C 134.061 46.833,134.225 47.133,134.520 47.500 M237.750 47.000 C 237.933 47.079,238.196 47.143,238.333 47.143 C 238.491 47.143,238.460 47.090,238.250 47.000 C 238.067 46.921,237.804 46.857,237.667 46.857 C 237.509 46.857,237.540 46.910,237.750 47.000 M280.967 47.034 C 281.198 47.264,282.694 47.680,282.570 47.479 C 282.525 47.406,282.228 47.297,281.909 47.238 C 281.590 47.178,281.289 47.062,281.238 46.981 C 281.188 46.900,281.061 46.833,280.957 46.833 C 280.820 46.833,280.823 46.890,280.967 47.034 M364.000 47.667 C 364.384 48.125,364.735 48.500,364.781 48.500 C 364.827 48.500,364.550 48.125,364.167 47.667 C 363.783 47.208,363.431 46.833,363.386 46.833 C 363.340 46.833,363.616 47.208,364.000 47.667 M96.222 47.268 C 96.156 47.441,96.023 47.667,95.926 47.769 C 95.400 48.326,95.000 48.854,95.000 48.993 C 95.000 49.079,94.902 49.210,94.783 49.283 C 94.663 49.357,94.240 49.792,93.841 50.250 L 93.117 51.083 93.892 50.301 C 94.318 49.871,94.667 49.567,94.667 49.626 C 94.667 49.684,94.909 49.399,95.205 48.991 C 95.501 48.584,95.839 48.150,95.956 48.029 C 96.274 47.698,96.540 47.151,96.434 47.045 C 96.383 46.994,96.287 47.094,96.222 47.268 M199.567 47.194 C 199.487 47.322,200.300 47.255,200.433 47.123 C 200.482 47.074,200.322 47.045,200.078 47.059 C 199.835 47.072,199.605 47.133,199.567 47.194 M224.506 47.116 C 224.513 47.300,225.160 48.063,225.240 47.982 C 225.276 47.946,225.124 47.706,224.902 47.449 C 224.681 47.192,224.502 47.042,224.506 47.116 M256.917 47.128 C 256.556 47.393,256.267 47.848,256.522 47.751 C 256.651 47.701,256.850 47.512,256.963 47.330 C 257.185 46.975,257.177 46.937,256.917 47.128 M396.586 47.453 L 396.293 47.917 396.679 47.546 C 396.891 47.343,397.023 47.134,396.972 47.083 C 396.920 47.032,396.747 47.198,396.586 47.453 M192.500 47.333 C 193.070 47.516,193.508 47.516,193.083 47.333 C 192.900 47.255,192.600 47.192,192.417 47.195 C 192.149 47.199,192.165 47.226,192.500 47.333 M212.315 47.542 C 212.119 47.915,212.120 47.915,212.476 47.599 C 212.873 47.246,212.909 47.167,212.673 47.167 C 212.584 47.167,212.423 47.335,212.315 47.542 M239.792 47.289 C 240.181 47.324,240.819 47.324,241.208 47.289 C 241.598 47.254,241.279 47.225,240.500 47.225 C 239.721 47.225,239.402 47.254,239.792 47.289 M91.412 47.888 C 91.043 48.179,90.556 48.551,90.329 48.716 C 90.051 48.918,90.141 48.898,90.608 48.653 C 90.988 48.454,91.486 48.118,91.715 47.906 C 91.944 47.693,92.176 47.565,92.232 47.621 C 92.288 47.677,92.333 47.635,92.333 47.528 C 92.333 47.235,92.149 47.307,91.412 47.888 M197.944 47.542 C 197.837 47.610,198.042 47.631,198.398 47.588 C 198.755 47.545,199.084 47.472,199.129 47.426 C 199.260 47.295,198.160 47.402,197.944 47.542 M384.191 47.482 C 384.031 47.583,384.092 47.625,384.399 47.625 C 384.638 47.625,384.833 47.559,384.833 47.479 C 384.833 47.294,384.485 47.295,384.191 47.482 M289.184 47.681 C 288.965 47.769,288.823 47.878,288.869 47.925 C 288.967 48.022,289.833 47.719,289.833 47.587 C 289.833 47.467,289.654 47.493,289.184 47.681 M301.982 48.042 C 301.786 48.415,301.787 48.415,302.142 48.099 C 302.540 47.746,302.576 47.667,302.339 47.667 C 302.251 47.667,302.090 47.835,301.982 48.042 M74.167 47.948 C 74.167 48.058,74.598 48.417,75.042 48.675 C 75.202 48.769,75.330 48.786,75.326 48.714 C 75.318 48.562,74.167 47.800,74.167 47.948 M285.684 47.907 C 285.800 48.022,286.974 48.082,287.078 47.977 C 287.128 47.928,286.817 47.874,286.387 47.858 C 285.958 47.842,285.641 47.864,285.684 47.907 M141.417 48.271 C 142.102 48.792,142.461 48.931,142.114 48.541 C 141.948 48.353,141.648 48.159,141.448 48.108 C 141.088 48.018,141.088 48.020,141.417 48.271 M159.417 48.421 L 158.917 48.840 159.542 48.487 C 159.885 48.293,160.167 48.104,160.167 48.067 C 160.167 47.899,159.875 48.036,159.417 48.421 M164.862 48.937 C 163.670 50.181,163.831 50.216,165.083 48.985 C 165.633 48.445,166.008 48.005,165.917 48.007 C 165.825 48.009,165.351 48.428,164.862 48.937 M255.852 48.352 C 255.398 48.839,255.529 48.971,256.000 48.500 C 256.199 48.301,256.325 48.103,256.281 48.058 C 256.236 48.014,256.043 48.146,255.852 48.352 M270.368 48.292 C 270.507 48.452,270.760 48.752,270.930 48.958 C 271.101 49.165,271.303 49.333,271.379 49.333 C 271.455 49.333,271.288 49.090,271.009 48.792 C 270.730 48.494,270.501 48.194,270.501 48.125 C 270.500 48.056,270.413 48.000,270.308 48.000 C 270.185 48.000,270.207 48.106,270.368 48.292 M395.792 48.347 C 395.631 48.523,395.548 48.667,395.606 48.667 C 395.664 48.667,395.495 48.834,395.231 49.039 C 394.348 49.723,393.981 50.125,394.581 49.751 C 395.090 49.434,395.522 49.036,396.072 48.375 C 396.451 47.921,396.203 47.896,395.792 48.347 M135.334 48.273 C 135.334 48.377,135.708 48.862,136.167 49.350 C 136.625 49.838,137.000 50.153,137.000 50.050 C 137.000 49.947,136.756 49.659,136.458 49.409 C 136.160 49.160,135.786 48.760,135.626 48.520 C 135.466 48.280,135.335 48.169,135.334 48.273 M179.833 49.071 C 180.550 49.866,181.399 50.656,181.466 50.590 C 181.521 50.535,180.257 49.258,179.648 48.754 C 179.429 48.572,179.512 48.715,179.833 49.071 M300.909 49.200 C 300.546 49.586,300.400 49.795,300.583 49.665 C 301.119 49.287,301.887 48.500,301.720 48.500 C 301.636 48.500,301.271 48.815,300.909 49.200 M158.083 49.096 C 157.315 49.555,157.366 49.608,158.230 49.248 C 158.562 49.109,158.833 48.922,158.833 48.831 C 158.833 48.633,158.896 48.611,158.083 49.096 M226.150 49.125 C 226.257 49.331,226.399 49.502,226.464 49.504 C 226.530 49.506,226.873 49.768,227.227 50.087 C 227.581 50.406,227.918 50.666,227.977 50.665 C 228.076 50.664,227.537 50.142,226.428 49.167 C 225.972 48.765,225.962 48.764,226.150 49.125 M89.167 49.347 L 88.750 49.687 89.292 49.422 C 89.590 49.277,89.833 49.123,89.833 49.079 C 89.833 48.913,89.568 49.020,89.167 49.347 M143.500 49.500 C 143.821 49.676,144.196 49.820,144.333 49.820 C 144.471 49.820,144.289 49.673,143.929 49.493 C 143.087 49.074,142.731 49.079,143.500 49.500 M211.000 49.380 C 210.862 49.492,210.640 49.733,210.506 49.917 C 210.372 50.100,210.504 50.030,210.798 49.760 C 211.278 49.322,211.417 49.156,211.292 49.172 C 211.269 49.175,211.137 49.269,211.000 49.380 M365.500 49.314 C 365.500 49.394,365.642 49.562,365.816 49.688 C 365.989 49.814,366.589 50.277,367.149 50.718 C 367.709 51.159,368.167 51.456,368.167 51.379 C 368.167 51.302,367.960 51.114,367.708 50.961 C 367.456 50.808,367.025 50.488,366.750 50.248 C 365.613 49.260,365.500 49.175,365.500 49.314 M76.667 49.401 C 76.667 49.434,76.854 49.585,77.083 49.735 C 77.313 49.885,77.500 49.943,77.500 49.864 C 77.500 49.785,77.313 49.635,77.083 49.530 C 76.854 49.426,76.667 49.368,76.667 49.401 M254.333 49.917 C 254.022 50.237,253.814 50.500,253.871 50.500 C 253.986 50.500,255.000 49.515,255.000 49.404 C 255.000 49.259,254.885 49.348,254.333 49.917 M299.557 50.294 C 298.602 51.121,298.333 51.331,298.333 51.250 C 298.333 51.206,298.202 51.280,298.042 51.415 C 297.881 51.550,297.600 51.778,297.417 51.923 C 297.099 52.173,297.103 52.176,297.500 51.985 C 298.114 51.690,300.167 50.144,300.167 49.977 C 300.167 49.774,300.144 49.786,299.557 50.294 M69.901 50.309 C 70.075 50.506,70.286 50.667,70.369 50.667 C 70.604 50.667,70.354 50.356,69.949 50.143 C 69.586 49.953,69.586 49.954,69.901 50.309 M155.167 50.195 C 154.846 50.285,154.516 50.425,154.434 50.504 C 154.310 50.625,155.519 50.324,156.083 50.094 C 156.414 49.960,155.737 50.034,155.167 50.195 M79.167 50.330 C 79.167 50.402,79.352 50.497,79.578 50.540 C 79.805 50.583,79.956 50.563,79.914 50.496 C 79.803 50.317,79.167 50.175,79.167 50.330 M272.828 50.604 C 273.113 50.845,273.386 51.003,273.433 50.956 C 273.521 50.867,272.621 50.167,272.420 50.167 C 272.358 50.167,272.542 50.363,272.828 50.604 M393.595 50.429 C 393.199 50.825,393.282 50.928,393.708 50.569 C 393.915 50.396,394.115 50.234,394.153 50.210 C 394.191 50.186,394.140 50.167,394.040 50.167 C 393.939 50.167,393.739 50.285,393.595 50.429 M209.583 50.633 C 209.001 51.136,208.736 51.527,209.060 51.403 C 209.210 51.345,209.333 51.229,209.333 51.145 C 209.333 51.061,209.521 50.907,209.750 50.803 C 209.979 50.699,210.167 50.550,210.167 50.473 C 210.167 50.257,209.949 50.316,209.583 50.633 M80.985 50.718 C 81.059 50.793,81.487 50.829,81.935 50.799 L 82.750 50.745 81.799 50.664 C 81.277 50.620,80.910 50.644,80.985 50.718 M83.750 50.667 L 82.750 50.777 83.698 50.805 C 84.220 50.821,84.693 50.758,84.750 50.667 C 84.807 50.575,84.830 50.513,84.802 50.528 C 84.773 50.543,84.300 50.606,83.750 50.667 M147.352 50.562 C 147.536 50.768,148.500 50.986,148.500 50.822 C 148.500 50.736,148.356 50.667,148.180 50.667 C 148.004 50.667,147.723 50.617,147.555 50.557 C 147.387 50.496,147.296 50.499,147.352 50.562 M152.417 50.757 L 151.583 50.982 152.333 50.890 C 152.746 50.840,153.155 50.732,153.242 50.650 C 153.329 50.567,153.366 50.507,153.325 50.516 C 153.284 50.525,152.875 50.633,152.417 50.757 M252.708 51.182 C 251.781 51.885,251.513 52.243,252.302 51.725 C 253.064 51.225,253.429 50.930,253.562 50.708 C 253.739 50.412,253.685 50.442,252.708 51.182 M162.442 50.971 C 162.291 51.139,162.168 51.345,162.169 51.430 C 162.171 51.514,162.227 51.504,162.294 51.407 C 162.362 51.310,162.602 51.104,162.829 50.949 C 163.109 50.757,163.157 50.667,162.980 50.667 C 162.836 50.667,162.594 50.804,162.442 50.971 M228.167 50.819 C 228.167 50.914,228.378 51.101,228.637 51.235 C 228.896 51.369,229.204 51.595,229.323 51.737 C 229.441 51.880,229.604 51.955,229.686 51.905 C 229.767 51.855,229.833 51.880,229.833 51.962 C 229.833 52.115,231.817 53.170,232.093 53.163 C 232.179 53.161,231.787 52.910,231.222 52.605 C 230.656 52.300,229.831 51.792,229.389 51.475 C 228.281 50.684,228.167 50.622,228.167 50.819 M149.794 50.951 C 150.001 50.991,150.301 50.990,150.460 50.948 C 150.620 50.906,150.450 50.874,150.083 50.875 C 149.717 50.877,149.586 50.911,149.794 50.951 M138.333 51.170 C 138.333 51.255,138.558 51.441,138.833 51.583 C 139.484 51.920,139.483 51.670,138.832 51.299 C 138.558 51.143,138.333 51.085,138.333 51.170 M273.673 51.114 C 273.681 51.271,275.167 52.395,275.167 52.243 C 275.167 52.103,274.844 51.805,274.208 51.358 C 273.910 51.149,273.670 51.039,273.673 51.114 M71.500 51.499 C 71.500 51.662,73.501 52.888,73.602 52.786 C 73.636 52.753,73.176 52.415,72.582 52.036 C 71.987 51.657,71.500 51.415,71.500 51.499 M91.875 51.727 C 91.669 51.829,91.500 51.972,91.500 52.044 C 91.500 52.116,91.725 52.059,92.000 51.917 C 92.275 51.774,92.500 51.623,92.500 51.579 C 92.500 51.467,92.308 51.512,91.875 51.727 M160.667 52.099 C 159.587 52.682,159.142 53.000,159.405 53.000 C 159.545 53.000,161.146 52.125,161.745 51.722 C 162.376 51.297,161.742 51.519,160.667 52.099 M208.431 51.625 C 208.362 51.694,208.224 51.750,208.125 51.750 C 208.026 51.750,207.911 51.851,207.870 51.975 C 207.784 52.231,208.398 51.966,208.584 51.666 C 208.704 51.471,208.610 51.446,208.431 51.625 M368.833 51.917 C 368.947 52.054,369.116 52.167,369.207 52.167 C 369.300 52.167,369.282 52.056,369.167 51.917 C 369.053 51.779,368.884 51.667,368.793 51.667 C 368.700 51.667,368.718 51.777,368.833 51.917 M139.917 52.236 C 140.192 52.473,140.510 52.632,140.625 52.589 C 140.740 52.546,140.833 52.583,140.833 52.672 C 140.833 52.761,140.918 52.833,141.020 52.833 C 141.148 52.833,141.141 52.753,140.997 52.579 C 140.881 52.440,140.748 52.364,140.701 52.410 C 140.654 52.457,140.346 52.340,140.016 52.150 L 139.417 51.805 139.917 52.236 M275.336 52.122 C 275.334 52.313,276.492 53.009,276.785 52.993 C 276.857 52.989,276.617 52.828,276.250 52.636 C 275.883 52.445,275.528 52.204,275.461 52.102 C 275.375 51.971,275.338 51.977,275.336 52.122 M369.503 52.114 C 369.501 52.222,369.988 52.570,370.583 52.886 C 371.179 53.203,371.667 53.404,371.667 53.334 C 371.667 53.263,371.235 53.002,370.708 52.752 C 370.181 52.503,369.695 52.213,369.628 52.108 C 369.537 51.966,369.504 51.967,369.503 52.114 M184.075 52.320 C 184.210 52.538,185.167 53.004,185.167 52.851 C 185.167 52.784,184.899 52.601,184.572 52.445 C 184.245 52.289,184.021 52.233,184.075 52.320 M207.028 52.414 C 206.306 52.811,206.257 53.007,206.965 52.665 C 207.351 52.478,207.667 52.290,207.667 52.246 C 207.667 52.123,207.453 52.179,207.028 52.414 M296.667 52.333 C 296.667 52.425,296.610 52.488,296.542 52.473 C 296.376 52.437,295.500 52.802,295.500 52.907 C 295.500 53.010,296.021 52.830,296.265 52.642 C 296.365 52.566,296.486 52.542,296.533 52.589 C 296.581 52.636,296.714 52.560,296.830 52.421 C 296.974 52.247,296.982 52.167,296.854 52.167 C 296.751 52.167,296.667 52.242,296.667 52.333 M390.000 52.680 C 389.496 52.944,389.151 53.162,389.234 53.164 C 389.436 53.168,391.167 52.345,391.167 52.245 C 391.167 52.103,390.929 52.192,390.000 52.680 M249.833 52.917 C 249.421 53.138,249.143 53.322,249.215 53.326 C 249.392 53.336,250.667 52.681,250.667 52.580 C 250.667 52.470,250.674 52.467,249.833 52.917 M74.500 53.250 C 74.729 53.381,74.992 53.488,75.083 53.488 C 75.175 53.488,75.063 53.381,74.833 53.250 C 74.604 53.119,74.342 53.012,74.250 53.012 C 74.158 53.012,74.271 53.119,74.500 53.250 M142.333 53.297 C 142.333 53.470,143.832 54.057,143.956 53.933 C 143.993 53.896,143.736 53.774,143.386 53.662 C 143.036 53.549,142.656 53.382,142.542 53.291 C 142.403 53.181,142.333 53.183,142.333 53.297 M157.869 53.453 C 157.612 53.661,157.625 53.673,158.000 53.573 C 158.515 53.436,158.769 53.222,158.416 53.222 C 158.272 53.222,158.026 53.326,157.869 53.453 M277.667 53.313 C 277.667 53.398,277.892 53.546,278.167 53.642 C 278.442 53.738,278.667 53.784,278.667 53.746 C 278.667 53.707,278.442 53.559,278.167 53.417 C 277.892 53.274,277.667 53.228,277.667 53.313 M294.167 53.417 C 293.938 53.548,293.825 53.655,293.917 53.655 C 294.008 53.655,294.271 53.548,294.500 53.417 C 294.729 53.286,294.842 53.178,294.750 53.178 C 294.658 53.178,294.396 53.286,294.167 53.417 M388.407 53.411 C 388.229 53.546,388.163 53.658,388.260 53.661 C 388.357 53.664,388.582 53.557,388.760 53.422 C 388.938 53.287,389.004 53.175,388.907 53.172 C 388.810 53.169,388.585 53.277,388.407 53.411 M204.137 53.638 C 203.217 53.967,202.869 54.233,203.686 53.984 C 203.996 53.889,204.325 53.790,204.417 53.764 C 204.508 53.738,204.771 53.635,205.000 53.535 C 205.655 53.251,205.002 53.329,204.137 53.638 M372.223 53.596 C 372.483 53.741,372.740 53.816,372.793 53.763 C 372.929 53.627,372.821 53.562,372.250 53.440 L 371.750 53.332 372.223 53.596 M75.667 53.661 C 75.667 53.861,77.653 54.569,77.801 54.421 C 77.845 54.377,77.739 54.298,77.566 54.244 C 77.392 54.191,76.894 54.008,76.458 53.838 C 76.023 53.668,75.667 53.588,75.667 53.661 M86.917 54.086 C 86.275 54.298,85.851 54.477,85.974 54.485 C 86.303 54.507,88.057 53.988,88.242 53.815 C 88.470 53.601,88.249 53.647,86.917 54.086 M387.083 53.833 L 386.750 53.977 387.083 53.986 C 387.267 53.991,387.529 53.922,387.667 53.833 C 387.998 53.619,387.582 53.619,387.083 53.833 M144.750 54.219 C 145.025 54.348,145.281 54.426,145.319 54.393 C 145.440 54.290,145.266 54.197,144.750 54.090 L 144.250 53.986 144.750 54.219 M202.083 54.268 L 201.250 54.496 201.979 54.428 C 202.379 54.390,202.788 54.279,202.887 54.180 C 202.986 54.081,203.033 54.009,202.992 54.020 C 202.950 54.031,202.542 54.142,202.083 54.268 M246.054 54.231 C 245.266 54.444,244.965 54.645,245.536 54.577 C 246.001 54.521,246.833 54.207,246.833 54.087 C 246.833 54.039,246.815 54.010,246.792 54.022 C 246.769 54.034,246.437 54.128,246.054 54.231 M280.000 54.250 C 280.761 54.543,281.060 54.539,280.417 54.244 C 280.142 54.118,279.804 54.017,279.667 54.020 C 279.529 54.023,279.679 54.126,280.000 54.250 M291.583 54.244 C 290.940 54.539,291.239 54.543,292.000 54.250 C 292.321 54.126,292.471 54.023,292.333 54.020 C 292.196 54.017,291.858 54.118,291.583 54.244 M385.958 54.115 C 385.798 54.157,385.667 54.254,385.667 54.330 C 385.667 54.406,385.817 54.430,386.000 54.382 C 386.183 54.334,386.333 54.228,386.333 54.147 C 386.333 54.066,386.315 54.009,386.292 54.019 C 386.269 54.030,386.119 54.073,385.958 54.115 M154.917 54.333 L 154.583 54.477 154.917 54.486 C 155.100 54.491,155.362 54.422,155.500 54.333 C 155.831 54.119,155.415 54.119,154.917 54.333 M374.417 54.333 C 374.600 54.412,374.863 54.477,375.000 54.477 C 375.158 54.477,375.127 54.424,374.917 54.333 C 374.733 54.255,374.471 54.190,374.333 54.190 C 374.176 54.190,374.207 54.243,374.417 54.333 M78.500 54.492 C 78.637 54.585,78.894 54.663,79.069 54.664 C 79.496 54.668,79.363 54.572,78.750 54.435 C 78.385 54.353,78.317 54.369,78.500 54.492 M85.250 54.464 C 85.067 54.501,84.842 54.605,84.750 54.695 C 84.596 54.845,85.474 54.714,85.653 54.560 C 85.786 54.445,85.580 54.395,85.250 54.464 M146.072 54.461 C 146.130 54.518,146.277 54.580,146.401 54.598 C 146.524 54.616,146.803 54.685,147.021 54.751 C 147.291 54.833,147.364 54.816,147.250 54.699 C 147.158 54.605,146.833 54.489,146.526 54.443 C 146.219 54.396,146.015 54.404,146.072 54.461 M153.625 54.453 C 153.373 54.491,153.167 54.579,153.167 54.649 C 153.167 54.719,153.392 54.743,153.667 54.702 C 153.942 54.662,154.167 54.562,154.167 54.481 C 154.167 54.400,154.148 54.345,154.125 54.358 C 154.102 54.372,153.877 54.415,153.625 54.453 M290.000 54.533 C 289.587 54.623,289.187 54.756,289.110 54.830 C 289.033 54.903,289.397 54.864,289.918 54.743 C 290.440 54.622,290.909 54.480,290.961 54.428 C 291.077 54.311,290.951 54.325,290.000 54.533 M375.500 54.478 C 375.906 54.719,376.608 54.895,376.417 54.707 C 376.325 54.617,376.025 54.495,375.750 54.436 C 375.424 54.366,375.337 54.380,375.500 54.478 M384.375 54.451 C 384.169 54.491,384.000 54.587,384.000 54.665 C 384.000 54.783,384.791 54.647,385.417 54.420 C 385.644 54.338,384.839 54.362,384.375 54.451 M148.916 54.834 C 148.884 54.886,149.039 54.944,149.262 54.963 C 149.485 54.981,149.667 54.938,149.667 54.867 C 149.667 54.719,149.006 54.689,148.916 54.834 M151.585 54.836 C 151.668 54.970,152.814 54.908,152.960 54.762 C 153.006 54.716,152.698 54.685,152.275 54.693 C 151.852 54.702,151.542 54.766,151.585 54.836 M238.420 54.828 C 238.384 54.886,238.613 54.951,238.927 54.972 C 239.242 54.993,239.500 54.979,239.500 54.941 C 239.500 54.822,238.489 54.716,238.420 54.828 M194.208 54.948 C 194.369 54.990,194.631 54.990,194.792 54.948 C 194.952 54.906,194.821 54.872,194.500 54.872 C 194.179 54.872,194.048 54.906,194.208 54.948 M196.877 54.953 C 197.131 54.991,197.506 54.990,197.711 54.951 C 197.916 54.911,197.708 54.880,197.250 54.881 C 196.792 54.882,196.624 54.915,196.877 54.953 M240.125 54.954 C 240.423 54.991,240.910 54.991,241.208 54.954 C 241.506 54.917,241.262 54.887,240.667 54.887 C 240.071 54.887,239.827 54.917,240.125 54.954 M284.042 54.953 C 284.294 54.991,284.706 54.991,284.958 54.953 C 285.210 54.915,285.004 54.883,284.500 54.883 C 283.996 54.883,283.790 54.915,284.042 54.953 M285.958 54.954 C 286.256 54.991,286.744 54.991,287.042 54.954 C 287.340 54.917,287.096 54.887,286.500 54.887 C 285.904 54.887,285.660 54.917,285.958 54.954 M378.708 54.948 C 378.869 54.990,379.131 54.990,379.292 54.948 C 379.452 54.906,379.321 54.872,379.000 54.872 C 378.679 54.872,378.548 54.906,378.708 54.948 M379.960 54.951 C 380.168 54.991,380.468 54.990,380.627 54.948 C 380.786 54.906,380.617 54.874,380.250 54.875 C 379.883 54.877,379.753 54.911,379.960 54.951 " stroke="none" fill="#fcfcfc" fill-rule="evenodd"></path><path id="path1" d="" stroke="none" fill="#100fcfc" fill-rule="evenodd"></path><path id="path2" d="" stroke="none" fill="#100fcfc" fill-rule="evenodd"></path><path id="path3" d="" stroke="none" fill="#100fcfc" fill-rule="evenodd"></path></g></svg>