<svg id="svg" xmlns="http://www.w3.org/2000/svg" xmlns:xlink="http://www.w3.org/1999/xlink" width="400" height="55.036284470246734" viewBox="0, 0, 400,55.036284470246734"><g id="svgg"><path id="path0" d="M97.531 13.788 L 97.530 27.576 96.980 26.471 C 91.567 15.598,76.436 14.049,68.228 23.529 C 57.585 35.820,66.009 54.861,82.090 54.861 C 89.157 54.861,94.943 51.228,97.485 45.195 L 97.843 44.344 97.920 47.745 C 97.962 49.616,97.997 51.813,97.997 52.627 L 97.997 54.107 100.145 54.107 L 102.293 54.107 102.293 27.054 L 102.293 0.000 99.913 0.000 L 97.533 0.000 97.531 13.788 M193.033 2.911 C 182.968 3.493,177.068 8.701,177.068 17.003 C 177.068 24.425,181.411 28.351,193.962 32.276 C 202.346 34.898,204.871 36.715,205.340 40.464 C 206.091 46.455,196.607 49.824,189.434 46.114 C 187.091 44.902,184.964 41.925,184.964 39.857 L 184.964 39.594 180.435 39.594 L 175.907 39.594 175.907 39.980 C 175.907 42.012,177.048 45.322,178.495 47.489 C 185.001 57.234,205.615 57.730,212.022 48.296 C 215.081 43.791,215.062 36.638,211.981 32.569 C 209.411 29.175,206.723 27.847,194.362 23.864 C 188.435 21.954,186.189 20.059,186.034 16.837 C 185.855 13.123,188.831 10.538,193.780 10.108 C 199.015 9.653,203.159 12.099,204.392 16.372 L 204.677 17.358 209.157 17.389 L 213.638 17.419 213.587 17.099 C 213.139 14.238,212.793 13.019,211.946 11.313 C 209.047 5.471,202.105 2.387,193.033 2.911 M117.378 3.367 C 114.139 3.923,113.447 8.288,116.366 9.747 C 118.266 10.696,120.749 9.793,121.387 7.919 C 122.253 5.378,120.075 2.905,117.378 3.367 M0.000 28.853 L 0.000 54.107 2.496 54.107 L 4.993 54.107 4.993 28.853 L 4.993 3.599 2.496 3.599 L 0.000 3.599 0.000 28.853 M239.212 16.612 C 224.508 17.742,215.878 33.041,223.087 45.201 C 228.968 55.122,242.696 58.131,252.402 51.626 C 256.143 49.119,259.005 45.065,259.686 41.306 L 259.765 40.871 255.354 40.871 L 250.943 40.871 250.787 41.248 C 248.661 46.405,241.342 48.794,235.740 46.158 C 227.580 42.320,226.817 31.125,234.369 26.045 C 239.893 22.329,247.738 24.204,250.612 29.927 L 250.918 30.537 255.338 30.537 L 259.757 30.537 259.675 30.160 C 258.301 23.856,252.179 18.333,245.036 16.955 C 243.991 16.753,241.075 16.458,240.581 16.504 C 240.485 16.513,239.869 16.562,239.212 16.612 M284.006 16.616 C 267.797 17.770,259.840 36.200,270.337 48.277 C 279.318 58.611,298.368 56.754,304.197 44.977 C 304.969 43.416,305.387 43.616,300.872 43.383 C 298.716 43.271,296.842 43.158,296.706 43.130 C 296.510 43.090,296.377 43.215,296.047 43.751 C 293.306 48.192,284.539 49.395,279.356 46.042 C 276.947 44.484,274.369 40.543,274.369 38.420 C 274.369 38.360,281.019 38.316,290.119 38.316 L 305.869 38.316 305.788 36.952 C 305.163 26.349,299.163 18.706,290.091 16.955 C 289.038 16.752,286.046 16.458,285.515 16.505 C 285.419 16.514,284.740 16.564,284.006 16.616 M333.933 16.608 C 329.267 17.027,325.081 19.805,322.946 23.899 C 322.600 24.563,322.485 24.704,322.422 24.538 C 322.356 24.363,321.961 18.309,321.971 17.620 C 321.974 17.430,321.715 17.417,318.142 17.417 L 314.311 17.417 314.311 35.762 L 314.311 54.107 318.661 54.107 L 323.011 54.107 323.046 43.687 L 323.082 33.266 323.349 32.337 C 325.911 23.412,336.245 21.324,341.092 28.751 C 342.930 31.567,342.990 32.060,342.990 44.380 L 342.990 54.107 347.286 54.107 L 351.582 54.107 351.581 43.861 C 351.580 33.362,351.530 31.866,351.115 29.827 C 349.374 21.286,342.317 15.856,333.933 16.608 M378.220 16.609 C 367.543 17.328,359.894 25.322,359.894 35.762 C 359.894 42.487,362.745 47.855,368.289 51.571 C 378.257 58.251,393.364 54.945,398.344 44.993 C 399.135 43.410,399.555 43.615,395.037 43.383 C 392.881 43.273,391.005 43.159,390.867 43.130 C 390.670 43.089,390.554 43.184,390.323 43.579 C 387.656 48.130,378.765 49.434,373.523 46.043 C 371.053 44.445,369.122 41.583,368.603 38.752 L 368.524 38.316 384.276 38.316 L 400.028 38.316 399.950 37.068 C 399.282 26.272,393.476 18.841,384.241 16.959 C 383.251 16.757,380.221 16.456,379.681 16.506 C 379.585 16.515,378.927 16.561,378.220 16.609 M36.401 17.301 C 31.101 17.777,26.352 21.392,24.149 26.627 C 23.630 27.861,23.574 27.773,23.572 25.708 C 23.571 24.936,23.536 22.886,23.494 21.151 L 23.417 17.997 21.288 17.997 L 19.158 17.997 19.158 36.052 L 19.158 54.107 21.534 54.107 L 23.910 54.107 23.950 43.803 C 23.988 33.787,23.996 33.470,24.234 32.511 C 27.829 17.990,45.620 17.841,48.912 32.304 C 49.150 33.349,49.159 33.697,49.200 43.745 L 49.243 54.107 51.624 54.107 L 54.005 54.107 53.959 43.338 C 53.907 31.451,53.925 31.754,53.121 28.970 C 50.928 21.373,44.102 16.609,36.401 17.301 M148.157 17.304 C 130.695 18.637,124.296 41.242,138.520 51.350 C 147.962 58.061,162.838 54.974,167.691 45.297 C 167.995 44.691,168.244 44.153,168.244 44.100 C 168.244 44.048,167.180 44.006,165.879 44.006 L 163.514 44.006 163.063 44.788 C 160.213 49.731,151.879 52.238,145.410 50.099 C 140.051 48.327,136.195 43.688,135.445 38.113 L 135.363 37.504 152.280 37.504 L 169.198 37.504 169.121 36.313 C 168.347 24.391,159.571 16.432,148.157 17.304 M115.646 36.052 L 115.646 54.107 118.026 54.107 L 120.406 54.107 120.406 36.052 L 120.406 17.997 118.026 17.997 L 115.646 17.997 115.646 36.052 M152.610 21.554 C 157.421 22.348,161.411 25.537,163.299 30.098 C 163.737 31.155,164.295 33.077,164.296 33.527 L 164.296 33.788 149.888 33.788 L 135.480 33.788 135.557 33.295 C 136.823 25.160,144.099 20.150,152.610 21.554 M85.443 21.786 C 94.877 23.456,100.217 33.672,96.135 42.245 C 90.810 53.430,75.141 53.614,69.781 42.554 C 64.560 31.780,73.667 19.701,85.443 21.786 M288.368 23.869 C 291.726 24.462,294.310 26.314,295.815 29.207 C 296.289 30.119,296.894 31.738,296.894 32.096 C 296.894 32.261,295.800 32.279,285.639 32.279 L 274.383 32.279 274.615 31.445 C 276.178 25.805,281.798 22.709,288.368 23.869 M382.758 23.916 C 385.992 24.556,388.613 26.487,390.014 29.260 C 390.366 29.957,391.060 31.850,391.060 32.114 C 391.060 32.255,389.450 32.279,379.797 32.279 C 373.602 32.279,368.534 32.255,368.534 32.227 C 368.534 31.944,369.241 30.049,369.617 29.322 C 371.882 24.943,377.101 22.796,382.758 23.916 " stroke="none" fill="#000000" fill-rule="evenodd"></path></g></svg>